<?xml version="1.0" encoding="UTF-8"?> <svg xmlns="http://www.w3.org/2000/svg" width="174" height="40" viewBox="0 0 174 40" fill="none"><path d="M168.862 28.3468C167.111 28.3468 165.789 27.9256 164.897 27.083C164.022 26.224 163.584 24.7867 163.584 22.7712V18.2859H162.494V14.2219C163.121 14.2219 163.592 14.065 163.906 13.7511C164.22 13.4207 164.377 12.9747 164.377 12.413V11.2979H169.63V14.2219H172.976V18.2859H169.63V22.3499C169.63 22.8951 169.746 23.2999 169.977 23.5642C170.225 23.812 170.589 23.9359 171.068 23.9359C171.695 23.9359 172.381 23.8616 173.124 23.7129V27.6034C172.662 27.7851 172.034 27.9503 171.241 28.099C170.465 28.2642 169.672 28.3468 168.862 28.3468Z" fill="#232205"></path><path d="M160.255 13.875C160.585 13.875 160.899 13.908 161.197 13.9741C161.494 14.0402 161.742 14.1228 161.94 14.2219V18.955C161.263 18.6742 160.536 18.5337 159.759 18.5337C158.718 18.5337 157.917 18.8063 157.356 19.3515C156.794 19.8967 156.513 20.7062 156.513 21.78V23.9359H158.743V27.9999H149.723V23.9359H150.813V18.2859H149.723V14.2219H156.513V16.0309C156.976 15.337 157.504 14.8084 158.099 14.445C158.694 14.065 159.412 13.875 160.255 13.875Z" fill="#232205"></path><path d="M142.345 28.3468C139.999 28.3468 138.165 27.7356 136.844 26.513C135.522 25.274 134.861 23.4733 134.861 21.1109C134.861 18.7485 135.522 16.956 136.844 15.7335C138.165 14.4945 139.999 13.875 142.345 13.875C144.674 13.875 146.351 14.4863 147.375 15.7088C148.416 16.9147 148.937 18.4181 148.937 20.2188V22.003H140.908V22.1517C140.908 22.7629 141.089 23.2172 141.453 23.5146C141.816 23.7955 142.419 23.9359 143.262 23.9359C144.27 23.9359 145.228 23.8615 146.136 23.7129C147.045 23.5642 147.838 23.3742 148.515 23.1429V27.1078C147.937 27.4217 147.086 27.7108 145.963 27.9751C144.856 28.2229 143.65 28.3468 142.345 28.3468ZM143.782 19.2771V18.9798C143.782 18.4181 143.658 18.0133 143.411 17.7655C143.179 17.5177 142.824 17.3938 142.345 17.3938C141.866 17.3938 141.503 17.526 141.255 17.7903C141.023 18.0381 140.908 18.4346 140.908 18.9798V19.2771H143.782Z" fill="#232205"></path><path d="M122.784 28.0001L119.661 18.2862H118.621V14.2222H126.278V18.2862H125.237L126.55 23.1927H126.798L128.112 18.2862H127.071V14.2222H134.257V18.2862H133.216L130.168 28.0001H122.784Z" fill="#232205"></path><path d="M110.546 28.3468C108.2 28.3468 106.367 27.7356 105.045 26.513C103.723 25.274 103.062 23.4733 103.062 21.1109C103.062 18.7485 103.723 16.956 105.045 15.7335C106.367 14.4945 108.2 13.875 110.546 13.875C112.925 13.875 114.767 14.5028 116.072 15.7583C117.377 16.9973 118.03 18.7815 118.03 21.1109C118.03 23.4733 117.369 25.274 116.047 26.513C114.726 27.7356 112.892 28.3468 110.546 28.3468ZM110.546 23.9359C111.025 23.9359 111.38 23.812 111.612 23.5642C111.86 23.2998 111.983 22.8951 111.983 22.3499V19.8719C111.983 19.3267 111.86 18.9302 111.612 18.6824C111.38 18.4181 111.025 18.2859 110.546 18.2859C110.067 18.2859 109.704 18.4181 109.456 18.6824C109.225 18.9302 109.109 19.3267 109.109 19.8719V22.3499C109.109 22.8951 109.225 23.2998 109.456 23.5642C109.704 23.812 110.067 23.9359 110.546 23.9359Z" fill="#232205"></path><path d="M100.675 13.875C101.006 13.875 101.32 13.908 101.617 13.9741C101.914 14.0402 102.162 14.1228 102.36 14.2219V18.955C101.683 18.6742 100.956 18.5337 100.18 18.5337C99.1389 18.5337 98.3376 18.8063 97.7759 19.3515C97.2143 19.8967 96.9334 20.7062 96.9334 21.78V23.9359H99.1637V27.9999H90.1436V23.9359H91.2339V18.2859H90.1436V14.2219H96.9334V16.0309C97.396 15.337 97.9246 14.8084 98.5194 14.445C99.1141 14.065 99.8327 13.875 100.675 13.875Z" fill="#232205"></path><path d="M85.0346 28.3468C83.2834 28.3468 81.9618 27.9256 81.0697 27.083C80.1941 26.224 79.7564 24.7867 79.7564 22.7712V18.2859H78.666V14.2219C79.2938 14.2219 79.7646 14.065 80.0785 13.7511C80.3924 13.4207 80.5493 12.9747 80.5493 12.413V11.2979H85.8028V14.2219H89.1482V18.2859H85.8028V22.3499C85.8028 22.8951 85.9184 23.2999 86.1497 23.5642C86.3975 23.812 86.761 23.9359 87.2401 23.9359C87.8678 23.9359 88.5534 23.8616 89.2968 23.7129V27.6034C88.8343 27.7851 88.2065 27.9503 87.4135 28.099C86.6371 28.2642 85.8441 28.3468 85.0346 28.3468Z" fill="#232205"></path><path d="M77.3839 23.9361H78.1769V28.0001H70.4454V23.9361H71.1392L70.1728 22.4741H69.925L68.9585 23.9361H69.6524V28.0001H63.0112V23.9361H64.052L67.0504 21.2598L63.9033 18.2862H63.1104V14.2222H70.8419V18.2862H70.148L71.1145 19.7234H71.3623L72.3287 18.2862H71.6348V14.2222H78.0778V18.2862H77.037L74.1872 20.9129L77.3839 23.9361Z" fill="#232205"></path><path d="M55.8309 28.3468C53.485 28.3468 51.6512 27.7356 50.3296 26.513C49.008 25.274 48.3472 23.4733 48.3472 21.1109C48.3472 18.7485 49.008 16.956 50.3296 15.7335C51.6512 14.4945 53.485 13.875 55.8309 13.875C58.1602 13.875 59.8371 14.4863 60.8613 15.7088C61.9021 16.9147 62.4225 18.4181 62.4225 20.2188V22.003H54.3936V22.1517C54.3936 22.7629 54.5753 23.2172 54.9388 23.5146C55.3022 23.7955 55.9052 23.9359 56.7478 23.9359C57.7555 23.9359 58.7137 23.8615 59.6223 23.7129C60.5309 23.5642 61.3239 23.3742 62.0012 23.1429V27.1078C61.423 27.4217 60.5722 27.7108 59.4488 27.9751C58.342 28.2229 57.136 28.3468 55.8309 28.3468ZM57.2681 19.2771V18.9798C57.2681 18.4181 57.1442 18.0133 56.8964 17.7655C56.6652 17.5177 56.31 17.3938 55.8309 17.3938C55.3518 17.3938 54.9883 17.526 54.7405 17.7903C54.5092 18.0381 54.3936 18.4346 54.3936 18.9798V19.2771H57.2681Z" fill="#232205"></path><g clip-path="url(#clip0_1375_57094)"><path d="M19.6028 39.3354C30.4291 39.3354 39.2055 30.559 39.2055 19.7327C39.2055 8.90634 30.4291 0.129883 19.6028 0.129883C8.77646 0.129883 0 8.90634 0 19.7327C0 30.559 8.77646 39.3354 19.6028 39.3354Z" fill="#232205"></path><path d="M20.3484 30.2893C16.6588 30.2893 13.7747 29.328 11.6961 27.4052C9.61744 25.4565 8.57812 22.6244 8.57812 18.9088C8.57812 15.1932 9.61744 12.3742 11.6961 10.4514C13.7747 8.50268 16.6588 7.52832 20.3484 7.52832C24.012 7.52832 26.6492 8.48968 28.2602 10.4124C29.8971 12.3091 30.7156 14.6737 30.7156 17.5058V20.3119H18.0879V20.5458C18.0879 21.5071 18.3736 22.2217 18.9453 22.6893C19.5169 23.1311 20.4653 23.3519 21.7905 23.3519C23.3754 23.3519 24.8823 23.235 26.3115 23.0011C27.7405 22.7673 28.9877 22.4685 30.053 22.1047V28.3406C29.1436 28.8343 27.8054 29.289 26.0387 29.7047C24.2977 30.0945 22.401 30.2893 20.3484 30.2893ZM22.6089 16.0247V15.557C22.6089 14.6737 22.414 14.037 22.0243 13.6473C21.6605 13.2576 21.1018 13.0627 20.3484 13.0627C19.5949 13.0627 19.0233 13.2706 18.6335 13.6863C18.2697 14.076 18.0879 14.6996 18.0879 15.557V16.0247H22.6089Z" fill="#FBFAF3"></path></g><defs><clipPath id="clip0_1375_57094"><rect width="40" height="40" fill="white"></rect></clipPath></defs></svg> 