<svg xmlns="http://www.w3.org/2000/svg" width="32" height="32" viewBox="0 0 32 32" fill="none">
  <path fill-rule="evenodd" clip-rule="evenodd" fill="white" d="M30.1848 16.8128C29.3337 16.0993 28.3967 15.815 27.0657 15.7018C29.969 14.4436 32 11.5523 32 8.18663C32 3.66528 28.3347 0 23.8134 0C20.4477 0 17.5564 2.03102 16.2982 4.93429C16.185 3.60333 15.9007 2.6663 15.1872 1.81516C15.0226 1.61883 14.7544 1.35061 14.5581 1.18603C13.1432 0 11.491 0 8.18663 0C4.88221 0 3.23001 0 1.81516 1.18603C1.61883 1.35061 1.35061 1.61883 1.18603 1.81516C0 3.23001 0 4.88221 0 8.18663C0 11.491 0 13.1432 1.18603 14.5581C1.35061 14.7544 1.61883 15.0226 1.81517 15.1872C2.6663 15.9007 3.60334 16.185 4.93429 16.2982C2.03102 17.5564 0 20.4477 0 23.8134C0 28.3347 3.66528 32 8.18663 32C11.5523 32 14.4436 29.969 15.7018 27.0657C15.815 28.3967 16.0993 29.3337 16.8128 30.1848C16.9774 30.3812 17.2456 30.6494 17.4419 30.814C18.8568 32 20.509 32 23.8134 32C27.1178 32 28.77 32 30.1848 30.814C30.3812 30.6494 30.6494 30.3812 30.814 30.1848C32 28.77 32 27.1178 32 23.8134C32 20.509 32 18.8568 30.814 17.4419C30.6494 17.2456 30.3812 16.9774 30.1848 16.8128ZM15.1872 14.5581C15.9007 13.707 16.185 12.7699 16.2982 11.439C17.1244 13.3453 18.6547 14.8756 20.561 15.7018C19.2301 15.815 18.293 16.0993 17.4419 16.8128C17.2456 16.9774 16.9774 17.2456 16.8128 17.4419C16.0993 18.293 15.815 19.2301 15.7018 20.561C14.8756 18.6547 13.3453 17.1244 11.439 16.2982C12.7699 16.185 13.707 15.9007 14.5581 15.1872C14.7544 15.0226 15.0226 14.7544 15.1872 14.5581Z"></path>
</svg>
