<svg xmlns="http://www.w3.org/2000/svg" width="100%" fill="none" viewBox="0 0 24 24">
  <path fill="currentColor" d="M11.954 3.817c-4.49 0-8.132 3.644-8.152 8.146v12H0V12C0 5.373 5.352 0 11.954 0s11.953 5.373 11.953 12-5.351 12-11.953 12a12 12 0 0 1-1.718-.123v-3.876q.831.181 1.718.182c4.502 0 8.152-3.663 8.152-8.183s-3.65-8.183-8.152-8.183"></path>
  <path fill="currentColor" d="M5.118 24V11.995c0-3.79 3.062-6.857 6.836-6.857 3.773 0 6.836 3.068 6.836 6.857s-3.063 6.857-6.836 6.857c-.594 0-1.17-.076-1.718-.218V14.5c.488.337 1.08.534 1.718.534a3.037 3.037 0 0 0 3.034-3.04 3.037 3.037 0 0 0-3.034-3.04 3.037 3.037 0 0 0-3.034 3.008V24z"></path>
</svg>
