<?xml version="1.0" encoding="UTF-8"?> <svg xmlns="http://www.w3.org/2000/svg" width="445" height="100" viewBox="0 0 445 100" fill="none"><g clip-path="url(#clip0_5353_32150)"><path d="M120.039 80.1009H127.633C129.645 80.1009 131.212 80.5733 132.327 81.5117C133.442 82.4566 134 83.7909 134 85.5146C134 87.2382 133.435 88.5853 132.314 89.5429C131.185 90.5005 129.625 90.9793 127.633 90.9793H122.27V98.5444H120.039V80.0881V80.1009ZM127.421 89.2109C130.342 89.2109 131.802 87.9788 131.802 85.5209C131.802 83.0631 130.342 81.882 127.421 81.882H122.276V89.2109H127.421Z" fill="#58595B"></path><path d="M176.897 98.5572L174.773 93.8202H164.756L162.631 98.5572H160.348L168.785 80.1009H170.717L179.154 98.5572H176.897ZM165.552 92.0391H173.99L169.774 82.5906L165.559 92.0391H165.552Z" fill="#58595B"></path><path d="M223.798 98.5572H221.348L218.082 92.6392C217.684 91.9242 217.212 91.4326 216.681 91.1581C216.144 90.8899 215.413 90.7495 214.491 90.7495H210.899V98.5508H208.695V80.0945H216.588C218.673 80.0945 220.266 80.5414 221.368 81.4288C222.463 82.3161 223.014 83.6249 223.014 85.355C223.014 86.785 222.596 87.9405 221.747 88.8215C220.903 89.7025 219.702 90.2579 218.142 90.4814C218.633 90.6218 219.065 90.858 219.436 91.19C219.808 91.522 220.147 91.9688 220.459 92.5243L223.804 98.5444L223.798 98.5572ZM216.389 88.9747C217.876 88.9747 218.992 88.6811 219.722 88.0873C220.459 87.4936 220.824 86.5935 220.824 85.3933C220.824 84.1931 220.459 83.3248 219.735 82.7503C219.011 82.1757 217.896 81.8884 216.389 81.8884H210.893V88.9811H216.389V88.9747Z" fill="#58595B"></path><path d="M258.118 98.5572V81.9331H251.453V80.1009H267.073V81.9331H260.375V98.5572H258.118Z" fill="#58595B"></path><path d="M309.718 80.1009H311.816V98.5572H310.103L298.539 83.7143V98.5572H296.441V80.1009H298.154L309.718 94.9438V80.1009Z" fill="#58595B"></path><path d="M343.223 98.5572V80.1009H355.364V81.882H345.433V88.2916H354.82V90.0728H345.433V96.776H355.364V98.5572H343.223Z" fill="#58595B"></path><path d="M400.845 98.5572H398.395L395.129 92.6392C394.731 91.9242 394.259 91.4326 393.728 91.1581C393.191 90.8899 392.46 90.7495 391.538 90.7495H387.946V98.5508H385.742V80.0945H393.635C395.72 80.0945 397.313 80.5414 398.415 81.4288C399.51 82.3161 400.061 83.6249 400.061 85.355C400.061 86.785 399.636 87.9405 398.793 88.8215C397.95 89.7025 396.749 90.2579 395.189 90.4814C395.68 90.6218 396.111 90.858 396.483 91.19C396.855 91.522 397.193 91.9688 397.506 92.5243L400.851 98.5444L400.845 98.5572ZM393.443 88.9747C394.93 88.9747 396.045 88.6811 396.775 88.0873C397.512 87.4936 397.877 86.5935 397.877 85.3933C397.877 84.1931 397.512 83.3248 396.789 82.7503C396.065 82.1757 394.95 81.8884 393.443 81.8884H387.946V88.9811H393.443V88.9747Z" fill="#58595B"></path><path d="M429.969 96.4313L430.838 94.7842C431.781 95.5503 432.75 96.0993 433.739 96.4313C434.729 96.7633 435.877 96.9293 437.185 96.9293C438.725 96.9293 439.913 96.642 440.75 96.0674C441.586 95.4929 442.004 94.6821 442.004 93.6351C442.004 93.0222 441.805 92.5243 441.407 92.1412C441.008 91.7582 440.484 91.4517 439.827 91.2219C439.176 90.9985 438.293 90.7623 437.185 90.5133C435.698 90.1813 434.476 89.8302 433.527 89.4663C432.571 89.1024 431.801 88.5789 431.21 87.8958C430.619 87.2127 430.327 86.3253 430.327 85.2273C430.327 84.1292 430.613 83.2482 431.184 82.4374C431.754 81.6267 432.571 81.001 433.633 80.5541C434.695 80.1073 435.923 79.8838 437.324 79.8838C438.645 79.8838 439.887 80.0881 441.042 80.4839C442.197 80.8861 443.173 81.4607 443.969 82.214L443.126 83.8611C442.217 83.1142 441.301 82.5651 440.365 82.2268C439.429 81.8884 438.419 81.716 437.331 81.716C435.844 81.716 434.675 82.0161 433.832 82.6226C432.989 83.2227 432.564 84.0654 432.564 85.1507C432.564 86.0764 432.936 86.7722 433.68 87.2446C434.423 87.7171 435.545 88.1193 437.052 88.4512C438.705 88.8343 439.999 89.1918 440.942 89.511C441.885 89.8366 442.668 90.3154 443.299 90.9666C443.923 91.6113 444.241 92.4732 444.241 93.5585C444.241 94.6438 443.956 95.5248 443.385 96.3036C442.814 97.0889 441.991 97.6954 440.922 98.1231C439.853 98.5508 438.599 98.7615 437.165 98.7615C434.171 98.7615 431.774 97.9826 429.982 96.4313H429.969Z" fill="#58595B"></path><path d="M97.8471 25.4916C95.2979 31.3585 93.1603 36.287 91.3613 40.4175L99.6262 46.7314L93.4192 61.0508L85.1411 54.7242C83.0522 59.5335 82.0055 61.9425 82.0011 61.951C79.4984 67.6902 75.2896 72.5294 69.8261 75.9257C64.6282 79.156 58.6536 80.8478 52.4799 80.8478C52.0085 80.8478 51.5439 80.835 51.0725 80.8159C42.5222 80.4584 34.6291 76.928 28.847 70.8631C23.0649 64.7983 20.0776 56.9331 20.4493 48.7104C20.8145 40.4877 24.4922 32.8971 30.7987 27.3366C37.1052 21.776 45.2838 18.9032 53.8341 19.2607C60.6186 19.5416 67.0181 21.8271 72.3289 25.8746L78.735 30.7584C81.7488 23.8253 84.7229 16.9688 86.7277 12.3596C77.5865 4.66037 65.624 0 52.5197 0C23.8084 0 0.527344 22.3889 0.527344 50C0.527344 77.6111 23.8084 100 52.5197 100C81.231 100 104.512 77.6111 104.512 50C104.512 41.0942 102.089 32.7311 97.8404 25.4852L97.8471 25.4916Z" fill="#1E6BB0"></path><path d="M53.1632 34.1675C52.9176 34.1548 52.6786 34.1548 52.433 34.1548C48.2906 34.1548 44.3606 35.6231 41.287 38.3363C38.0342 41.2028 36.1422 45.1162 35.9497 49.3552C35.7572 53.5942 37.2973 57.6481 40.278 60.7763C43.2586 63.9045 47.328 65.724 51.7359 65.9091C58.6134 66.19 65.0261 62.2829 67.6881 56.1798L72.5076 45.0907L62.4039 37.3723C59.7286 35.4188 56.5355 34.3207 53.1566 34.1803L53.1632 34.1675Z" fill="#165FAD"></path><path d="M175.006 71.3036L169.277 58.2546H140.897L135.168 71.3036H118.34L148.266 8.29291H161.543L191.562 71.3036H175.006ZM146.268 45.9206H163.913L155.09 25.7214L146.268 45.9206Z" fill="#165FAD"></path><path d="M195.379 71.3036V8.29291H212.114V57.9865H239.405V71.3036H195.379Z" fill="#165FAD"></path><path d="M247.41 8.29291H278.425C285.522 8.29291 291.038 10.0677 294.981 13.6108C298.925 17.154 300.896 22.0889 300.896 28.4027C300.896 34.7166 298.911 39.5748 294.941 43.1499C290.972 46.725 285.468 48.5125 278.432 48.5125H264.152V71.3036H247.417V8.29291H247.41ZM276.155 36.1785C279.248 36.1785 281.538 35.5529 283.019 34.3016C284.506 33.0503 285.249 31.1159 285.249 28.4921C285.249 25.8682 284.506 23.9211 283.019 22.6379C281.532 21.3547 279.242 20.7163 276.155 20.7163H264.146V36.1785H276.155Z" fill="#165FAD"></path><path d="M351.562 8.29291H367.932V71.3036H351.562V45.8312H325.367V71.3036H308.996V8.29291H325.367V32.7822H351.562V8.29291Z" fill="#165FAD"></path><path d="M428.416 71.3036L422.687 58.2546H394.307L388.578 71.3036H371.75L401.676 8.29291H414.953L444.972 71.3036H428.416ZM399.678 45.9206H417.323L408.5 25.7214L399.678 45.9206Z" fill="#165FAD"></path></g><defs><clipPath id="clip0_5353_32150"><rect width="444.444" height="100" fill="white" transform="translate(0.527344)"></rect></clipPath></defs></svg> 