<svg width="127" height="46" viewBox="0 0 127 46" fill="none" xmlns="http://www.w3.org/2000/svg">
<path d="M 23.9 1.4 C 24.2 1 24.5 0.8 25 0.8 C 25.5 0.8 25.7 0.9 26.1 1.4 L 38 17.4 H 32.7 C 31.4 17.4 30.5 17.8 29.8 18.7 L 18.8 33.6 H 0 L 23.9 1.4 Z" fill="#48206e"/>
<path d="M 48.8 45.1 H 46.7 C 46.2 45.1 45.8 44.7 45.8 44.3 V 27.8 C 45.8 27.4 46.2 27 46.6 27 H 54.8 C 55.8 27 56.7 27.2 57.6 27.5 C 58.4 27.8 59.1 28.2 59.7 28.8 C 60 29 60.3 29.3 60.5 29.7 C 60.8 30 61 30.4 61.1 30.7 C 61.5 31.5 61.6 32.4 61.6 33.2 C 61.6 34.6 61.3 35.8 60.5 36.8 C 59.9 37.6 59.2 38.3 58.3 38.7 C 58.1 38.8 58 38.9 57.9 39.1 C 57.8 39.3 57.9 39.5 58 39.6 C 58.7 40.4 59.3 41.2 59.9 41.9 C 60.5 42.7 61.2 43.5 61.8 44.3 C 61.9 44.4 62 44.6 61.9 44.8 C 61.9 45 61.7 45.1 61.5 45.1 H 58.7 C 58.5 45.1 58.2 45 58 44.9 C 57.8 44.8 57.6 44.7 57.4 44.5 C 57.1 44.1 56.8 43.8 56.5 43.4 L 55.6 42.3 L 53.8 40 C 53.7 39.8 53.5 39.6 53.2 39.5 C 53 39.4 52.8 39.4 52.5 39.3 H 50.4 C 50 39.3 49.6 39.7 49.6 40.1 C 49.6 40.1 49.6 40.1 49.6 40.1 V 44.3 C 49.6 44.5 49.5 44.7 49.3 44.9 C 49.2 45 49 45.1 48.8 45.1 L 48.8 45.1 Z M 50.4 36.3 H 54.8 C 55.2 36.3 55.5 36.2 55.9 36.1 C 56.2 35.9 56.6 35.8 56.9 35.5 C 57.2 35.2 57.4 34.9 57.6 34.6 C 57.8 34.1 57.9 33.7 57.8 33.2 C 57.8 32.9 57.8 32.6 57.7 32.3 C 57.7 32.1 57.6 31.9 57.6 31.8 C 57.5 31.6 57.4 31.4 57.3 31.3 C 57.1 30.9 56.8 30.6 56.4 30.4 C 55.9 30.2 55.4 30.1 54.8 30.1 H 50.4 C 50 30.1 49.6 30.4 49.6 30.8 C 49.6 30.8 49.6 30.8 49.6 30.8 V 35.5 C 49.6 35.9 50 36.3 50.4 36.3 C 50.4 36.3 50.4 36.3 50.4 36.3 Z" fill="#231f20"/>
<path d="M 102.4 42.1 L 103.5 40.6 C 103.6 40.4 103.8 40.3 104 40.2 C 104.3 40.2 104.5 40.2 104.7 40.4 C 105.4 40.8 106.2 41.2 107 41.5 C 108.1 42 109.2 42.2 110.4 42.2 C 110.9 42.2 111.5 42.2 112 42 C 112.4 41.9 112.8 41.7 113.2 41.5 C 113.5 41.3 113.7 41 113.9 40.7 C 114.1 40.4 114.2 40.2 114.2 39.9 C 114.2 39.5 114 39.2 113.8 38.9 C 113.5 38.7 113.2 38.5 112.8 38.3 C 112.6 38.2 112.4 38.1 112.2 38.1 C 111.9 38 111.7 38 111.4 37.9 C 111.1 37.8 110.8 37.8 110.5 37.7 C 110.3 37.7 110 37.6 109.7 37.6 L 109 37.5 C 108.8 37.4 108.5 37.4 108.3 37.3 C 107.3 37.1 105.9 36.7 105 36.3 C 104.5 36.1 104 35.7 103.6 35.4 C 103.1 35 102.8 34.5 102.5 34 C 102.3 33.4 102.1 32.7 102.1 32.1 C 102.1 31.1 102.4 30.2 102.8 29.5 C 103.3 28.8 103.9 28.2 104.6 27.8 C 105.4 27.4 106.2 27.1 107 27 C 107.9 26.8 108.8 26.7 109.7 26.7 C 110.4 26.7 111.1 26.8 111.9 26.9 C 112.2 26.9 112.5 27 112.8 27.1 C 113.3 27.2 114.1 27.4 114.5 27.6 C 114.8 27.8 115 27.9 115.3 28 C 115.5 28.1 116.1 28.5 116.3 28.6 C 116.6 28.7 116.7 28.9 116.7 29.1 C 116.7 29.3 116.7 29.5 116.5 29.7 L 115.4 31.1 C 115.3 31.3 115.1 31.4 114.8 31.5 C 114.6 31.5 114.4 31.4 114.2 31.3 C 113.6 31 112.9 30.6 112.2 30.4 C 111.3 30.1 110.4 29.9 109.5 29.9 C 109.3 29.9 109.2 29.9 109 30 C 108.8 30 108.6 30 108.4 30 C 108 30.1 107.6 30.2 107.2 30.4 C 107 30.5 106.8 30.6 106.7 30.7 C 106.5 30.8 106.4 30.9 106.3 31 C 106 31.3 105.9 31.6 105.9 32 C 105.9 32.3 106.1 32.6 106.3 32.9 C 106.7 33.1 107 33.3 107.5 33.5 C 107.7 33.6 107.9 33.6 108.2 33.7 C 108.4 33.8 108.7 33.8 109 33.9 C 109.2 34 109.5 34 109.7 34.1 C 110 34.1 112.3 34.6 112.6 34.6 C 112.9 34.7 113.2 34.8 113.4 34.9 C 113.6 34.9 113.7 34.9 113.9 35 L 114.3 35.1 C 114.6 35.2 114.8 35.3 115.1 35.4 C 115.3 35.6 115.6 35.7 115.8 35.8 C 115.9 35.9 116.1 36 116.2 36.1 C 116.3 36.2 116.4 36.3 116.5 36.4 C 117 36.8 117.3 37.3 117.6 37.8 C 117.8 38.5 118 39.2 118 39.9 C 118 40.7 117.8 41.5 117.4 42.3 C 117.1 43 116.5 43.6 115.9 44 C 115.2 44.5 114.4 44.9 113.5 45.1 C 112.5 45.3 111.5 45.4 110.5 45.4 C 109.5 45.4 108.6 45.4 107.7 45.2 C 107 45.1 106.3 44.9 105.6 44.6 C 105.3 44.5 104.9 44.4 104.6 44.3 C 104.3 44.1 104 44 103.7 43.8 C 103.5 43.7 103.4 43.6 103.2 43.5 C 103 43.4 102.8 43.3 102.6 43.1 C 102.4 43 102.3 42.9 102.3 42.7 C 102.2 42.5 102.3 42.3 102.4 42.1 L 102.4 42.1 Z" fill="#231f20"/>
<path d="M 121.6 43 C 121.6 42.8 121.7 42.6 121.7 42.4 C 121.8 42.2 121.9 42 122 41.8 C 122.1 41.6 122.2 41.5 122.4 41.3 C 122.5 41.2 122.7 41 122.9 40.9 C 123.1 40.8 123.3 40.8 123.5 40.7 C 123.7 40.6 124 40.6 124.2 40.6 C 124.4 40.6 124.7 40.6 124.9 40.7 C 125.3 40.8 125.7 41 126 41.3 C 126.2 41.5 126.3 41.6 126.4 41.8 C 126.5 42 126.6 42.2 126.7 42.4 C 126.7 42.6 126.8 42.8 126.8 43 C 126.8 43.3 126.7 43.6 126.6 43.9 C 126.3 44.5 125.8 45 125.2 45.2 C 124.9 45.3 124.5 45.4 124.2 45.4 C 124 45.4 123.7 45.4 123.5 45.3 C 123.3 45.2 123.1 45.2 122.9 45.1 C 122.7 45 122.5 44.8 122.4 44.7 C 122.2 44.5 122.1 44.4 122 44.2 C 121.9 44 121.8 43.8 121.7 43.6 C 121.7 43.4 121.6 43.2 121.6 43 L 121.6 43 Z M 122.3 43 C 122.3 43.2 122.3 43.5 122.4 43.7 C 122.5 43.9 122.6 44.1 122.8 44.3 C 123 44.5 123.2 44.6 123.4 44.7 C 123.7 44.8 123.9 44.9 124.2 44.9 C 124.4 44.9 124.7 44.8 125 44.7 C 125.4 44.5 125.8 44.2 126 43.7 C 126.2 43.3 126.2 42.7 126 42.3 C 125.9 42 125.7 41.8 125.6 41.7 C 125.4 41.5 125.2 41.4 125 41.3 C 124.7 41.2 124.5 41.1 124.2 41.1 C 123.9 41.1 123.7 41.2 123.4 41.3 C 123.2 41.4 123 41.5 122.8 41.7 C 122.7 41.8 122.5 42 122.4 42.3 C 122.3 42.5 122.3 42.7 122.3 43 Z M 123.3 41.8 H 124.4 C 124.5 41.8 124.6 41.8 124.7 41.8 C 124.8 41.9 124.9 41.9 125 42 C 125.1 42.1 125.1 42.1 125.2 42.2 C 125.2 42.3 125.2 42.4 125.2 42.5 C 125.2 42.6 125.2 42.7 125.2 42.8 C 125.2 42.9 125.1 42.9 125.1 43 C 125 43 125 43.1 124.9 43.1 C 124.9 43.1 124.8 43.1 124.8 43.2 V 43.2 L 124.8 43.2 C 124.8 43.2 124.8 43.3 124.8 43.3 L 125.3 44.2 H 124.6 L 124.2 43.3 H 123.8 V 44.2 H 123.2 L 123.3 41.8 L 123.3 41.8 Z M 124.3 42.9 C 124.3 42.9 124.5 42.9 124.5 42.8 C 124.6 42.7 124.6 42.6 124.6 42.5 C 124.6 42.4 124.6 42.3 124.5 42.3 C 124.5 42.2 124.4 42.2 124.3 42.2 H 123.9 V 42.9 H 124.3 L 124.3 42.9 Z" fill="#231f20"/>
<path d="M 29.7 42.2 C 29.5 42.2 29.2 42.3 29 42.4 C 28.8 42.5 28.6 42.7 28.5 42.9 L 27.7 44.4 C 27.5 44.8 26.9 45.1 26.5 45.1 H 24 C 23.6 45.1 23.4 44.7 23.6 44.4 L 33 27.3 C 33.1 27.1 33.3 27 33.5 27 C 33.7 27 34 27.1 34.1 27.3 L 43.5 44.4 C 43.7 44.7 43.5 45.1 43 45.1 H 40.6 C 40.2 45.1 39.6 44.8 39.4 44.4 L 38.6 42.9 C 38.5 42.7 38.3 42.5 38.1 42.4 C 37.9 42.3 37.6 42.2 37.4 42.2 H 29.7 H 29.7 Z M 33.2 34.5 L 31.1 38.5 C 31 38.7 31 38.9 31.1 39 C 31.2 39.2 31.4 39.2 31.5 39.2 H 35.5 C 35.7 39.2 35.9 39.2 36 39 C 36.1 38.9 36.1 38.7 36 38.5 L 33.9 34.5 C 33.8 34.3 33.7 34.2 33.6 34.2 C 33.4 34.2 33.3 34.3 33.2 34.5 H 33.2 Z" fill="#231f20"/>
<path d="M 86.8 27.4 V 44.3 C 86.8 44.5 86.7 44.7 86.5 44.8 C 86.4 45 86.2 45.1 85.9 45.1 H 83.8 C 83.6 45.1 83.4 45 83.2 44.8 C 83 44.7 83 44.5 83 44.3 V 36.7 C 83 36.5 82.9 36.4 82.8 36.3 C 82.7 36.3 82.6 36.3 82.5 36.5 L 77.3 42.1 C 77.2 42.3 77 42.4 76.8 42.4 C 76.6 42.4 76.4 42.3 76.3 42.1 L 71.2 36.5 C 71 36.4 70.9 36.3 70.8 36.3 C 70.7 36.4 70.6 36.5 70.6 36.7 V 44.3 C 70.6 44.5 70.5 44.7 70.4 44.8 C 70.2 45 70 45.1 69.8 45.1 H 67.7 C 67.2 45.1 66.8 44.7 66.8 44.3 V 27.4 C 66.8 27.3 66.8 27.2 66.9 27.2 C 67 27.1 67 27.1 67.2 27 C 67.4 27 67.6 27.1 67.7 27.2 L 76.2 36.9 C 76.4 37 76.6 37.1 76.8 37.1 C 77 37.1 77.2 37 77.3 36.9 L 85.9 27.3 C 86 27.1 86.2 27 86.4 27.1 C 86.6 27.1 86.7 27.2 86.7 27.4 H 86.8 Z" fill="#231f20"/>
<path d="M 95.9 45.1 H 93.7 C 93.5 45.1 93.3 45 93.1 44.8 C 93 44.7 92.9 44.5 92.9 44.3 V 27.8 C 92.9 27.6 93 27.4 93.1 27.3 C 93.3 27.1 93.5 27 93.7 27 H 95.9 C 96.1 27 96.3 27.1 96.4 27.3 C 96.6 27.4 96.7 27.6 96.7 27.8 V 44.3 C 96.7 44.5 96.6 44.7 96.4 44.8 C 96.3 45 96.1 45.1 95.9 45.1 Z" fill="#231f20"/>
</svg>
