<svg xmlns="http://www.w3.org/2000/svg" height="800" width="1200" viewBox="-108 -18.025 936 108.15"><g fill="none"><path fill="#e31837" d="M 608.1 -103.6 c 21 -18 50.5 -35.5 66.7 -41.8 c -2.5 -1.6 -6.4 -3.9 -10.8 -6.4 c -20.9 6.9 -45.3 22.2 -67.1 39.5 c 3.7 2.8 7.6 5.7 11.2 8.7 z"/><path fill="#012169" d="M 598.5 -152.5 c -3.1 -1.5 -6.5 -2.9 -9.1 -4.1 c -7.9 3.9 -18.2 9.8 -31.2 19.1 c 2.8 1.5 5.8 3.3 9 5.1 c 10 -7.4 20.1 -14.4 31.3 -20.1 z"/><path fill="#e31837" d="M 617.2 -161.1 c -3.8 -2.1 -17 -7 -26.1 -9.1 c -2.7 1 -6.5 2.5 -9.1 3.6 c 3.3 0.9 15.6 4.2 26.1 9.5 c 2.7 -1.3 6.5 -2.9 9.1 -4 z"/><path fill="#012169" d="M 572.5 -162.4 c -11.7 5.4 -24 12.8 -30.7 17.1 c 2.4 1.1 4.8 2 8.1 3.6 c 14.8 -10 26.4 -16.1 31 -18.1 c -3.3 -1.2 -6.4 -2 -8.4 -2.6 z"/><path fill="#e31837" d="M 626 -164.2 c 2.7 -0.9 5.8 -1.7 8.5 -2.5 c -7.8 -3.3 -17.6 -6.8 -26.4 -9 c -1.4 0.4 -5.6 1.5 -8.5 2.4 c 3 0.9 12.9 3.2 26.4 9.1 z m -49.3 37.6 c 3.2 1.9 6.6 4.5 9.9 6.7 c 21.9 -17 43.5 -30.1 67.2 -37.5 c -3.3 -1.7 -6.2 -3.2 -9.9 -5 c -14.2 3.6 -38.5 13.3 -67.2 35.8 z"/><path fill="#012169" d="M -45.2 -108.8 h 16 c 8.1 0 11.9 -4.2 11.9 -10.1 c 0 -4.8 -2.5 -8 -7.7 -9 c 4.6 -1.1 6.7 -3.9 6.7 -8 c 0 -5.2 -3.8 -9.4 -11.9 -9.4 H -45.1 v 36.5 z m 13.9 -15.5 c 3 0 5.1 1.5 5.1 4.5 c 0 3.2 -2 4.5 -5.1 4.5 H -36.5 v -9.1 h 5.2 z m -1 -14.6 c 3 0 5.1 1.3 5.1 4.3 s -2 4.3 -5.1 4.3 H -36.5 v -8.6 z m 47.3 -6.5 h -9 L -7.7 -108.8 h 9.1 l 2.5 -7.6 h 13.2 l 2.5 7.6 H 28.8 z m -4.5 8.8 L 14.8 -123.1 h -8.8 z m 63.9 -8.8 h -8.3 v 24.5 L 50.5 -145.4 h -9.3 v 36.6 h 8.3 V -133.2 l 15.6 24.4 h 9.3 z m 38.3 36.6 l -12 -18.6 v 18.6 H 91.8 V -145.4 h 8.9 v 17.6 l 11.4 -17.6 h 9.9 l -12 17.6 l 13.1 19 z m 41.9 -18.3 c 0 7.3 4.4 11.8 10.1 11.8 c 5.7 0 10.1 -4.5 10.1 -11.8 c 0 -7.3 -4.4 -11.8 -10.1 -11.8 c -5.7 0 -10.1 4.5 -10.1 11.8 z m -9.4 0 c 0.1 -10.7 7.6 -19.1 19.5 -19.1 s 19.4 8.4 19.5 19.1 c -0.1 10.7 -7.6 19.1 -19.5 19.1 s -19.4 -8.4 -19.5 -19.1 z m 51.2 18.3 h 8.9 V -123.2 h 11.6 v -7 h -11.6 v -8.2 h 14 l 1.6 -7 h -24.5 z m 66 -36.6 h -9 l -13.7 36.6 h 9.1 l 2.5 -7.6 h 13.2 l 2.5 7.6 h 9.2 z m -4.5 8.8 l 4.3 13.5 h -8.8 z m 71.1 -8.8 h -10.4 l -9.5 19.8 l -9.5 -19.8 h -10.4 v 36.6 h 8 V -133.3 l 11.8 24.5 L 320.8 -133.3 v 24.5 h 8.3 z m 17.3 36.6 h 25 v -7 h -16.1 v -8.2 h 12.7 v -6.8 h -12.7 v -7.6 h 14.7 l 1.6 -7 h -25.2 z m 58.9 0 h 9.7 L 405.8 -124.3 c 5 -1.4 7.4 -4.9 7.4 -10 c 0 -6.6 -4 -11 -13 -11 h -14.1 V -108.7 h 8.7 V -123.1 h 2.4 z m -6.7 -29.8 c 3.7 0 5.6 1.6 5.6 4.7 s -1.9 4.7 -5.6 4.7 h -3.8 v -9.4 z m 29.7 29.8 h 8.9 V -145.3 h -8.9 z m 52.7 -9.8 c -3.4 2.4 -6.4 3.2 -9.5 3.2 c -6.8 0 -11.6 -4.7 -11.6 -11.7 c 0 -7 4.7 -11.7 11.3 -11.7 c 3 0 6 0.8 9.3 3.2 v -8.3 c -3 -1.7 -6.5 -2.4 -10.4 -2.4 c -12.1 0 -19.7 8.4 -19.8 19.1 c 0.1 10.8 7.5 19.1 19.8 19.1 c 4.1 0 7.6 -0.7 10.8 -2.4 v -8.1 z m 32.6 -26.8 h -9 L 490.8 -108.8 h 9.1 l 2.5 -7.6 h 13.2 l 2.5 7.6 h 9.2 z m -4.5 8.8 l 4.3 13.5 h -8.8 z"/></g></svg>