<svg version="1.1" id="Layer_1" xmlns:x="ns_extend;" xmlns:i="ns_ai;" xmlns:graph="ns_graphs;" xmlns="http://www.w3.org/2000/svg" xmlns:xlink="http://www.w3.org/1999/xlink" x="0px" y="0px" viewBox="0 0 390.3 65" style="enable-background:new 0 0 390.3 65;" xml:space="preserve">
 <style type="text/css">
  .st0{fill:#0D1662;}
 </style>
 <metadata>
  <sfw xmlns="ns_sfw;">
   <slices>
   </slices>
   <sliceSourceBounds bottomLeftOrigin="true" height="65" width="390.3" x="-216.9" y="-229.6">
   </sliceSourceBounds>
  </sfw>
 </metadata>
 <g>
  <path class="st0" d="M55.8,39c5.1,5.2,5.8,13.2,1.9,19.2c-4.5,6.9-13.8,8.8-20.7,4.3c-0.9-0.6-1.7-1.3-2.5-2
		c-2.1-2.1-3.5-4.8-4.1-7.8c-0.6-3-0.3-6,0.8-8.8c1.1-2.8,3.1-5.1,5.5-6.8C42.8,33.1,50.8,33.9,55.8,39z M45.2,0
		c-6.1,0-11.6,3.7-13.9,9.4c-1.1,2.8-1.4,5.8-0.8,8.8c1.5,8.1,9.3,13.5,17.5,12c4-0.7,7.5-3.1,9.8-6.5c4-6,3.2-14-1.9-19.2
		C53,1.6,49.2,0,45.2,0z M104.8,49.7c-8.3,0-14.6-6.2-14.6-17.3s6.3-17.3,14.6-17.3c8.8,0,13.1,5.4,14.4,11.8h8.7
		c-1.2-9-8.1-18.9-22.9-18.9c-14.4,0-23.5,10.6-23.5,24.4l0,0c0,14.3,9.3,24.4,23.5,24.4c15,0,22.1-10,23-19h-8.6
		C117.9,44.4,113.6,49.7,104.8,49.7z M15.1,0c-3,0-5.9,0.9-8.4,2.6c-7,4.7-8.8,14.3-4.1,21.3c0.5,0.8,1.1,1.5,1.8,2.2
		c4.3,4.3,10.8,5.6,16.4,3.3c2.8-1.2,5.2-3.1,6.8-5.6c4-6.1,3.1-14.1-2-19.2C22.9,1.6,19.1,0,15.1,0z M285.3,28.7h-0.1L272.9,9.2
		h-9.4v0.3l17.4,26.7v19.6h8.3V36.2l17.4-26.7V9.1h-9L285.3,28.7z M390.3,15.9V9.1h-32.2v46.8h32.2v-6.8h-24V35.4h21.8v-6.6h-21.8
		V15.9H390.3z M343.6,44.8h-0.1L323.4,9.1h-11.8v46.9h8.3V17.8h0.1l21.3,38.2h10.5V9.1h-8.1L343.6,44.8z M157,9.1l18.9,46.5v0.3
		h-9.2l-4.4-11.8h-21.1l-4.3,11.8h-8.7v-0.3l18.7-46.5H157z M159.8,37.7l-8.2-21.6h-0.1l-8,21.6H159.8z M206,35.5l13.2,20.1v0.3
		h-9.8l-12.6-20.3H189v20.3h-8.3V9.1H203c8.7,0,15.1,5.1,15.1,13.3C218.1,29.8,212.8,34.4,206,35.5z M201.8,29.3
		c4.9,0,7.7-2.4,7.7-6.6s-2.7-6.6-7.7-6.6h-12.7v13.3H201.8z M262.7,43.3c0,7.2-5.6,12.7-15.9,12.7h-20.7V9.1h20.7
		c9.3,0,14.6,5.2,14.6,11.8c0,4.9-3.1,9.2-7.7,10.8v0.1C259,33.1,262.7,37.8,262.7,43.3L262.7,43.3z M234.2,28.8h11.6
		c4.6,0,7.5-2.5,7.5-6.5s-2.8-6.4-7.5-6.4h-11.6V28.8z M254,42.3c0-4.3-2.9-7.2-8.1-7.2h-11.7v14.1h11.7
		C251.1,49.2,254,46.6,254,42.3z">
  </path>
 </g>
</svg>