<?xml version="1.0" encoding="UTF-8" standalone="no"?>
<!-- Created with Inkscape (http://www.inkscape.org/) -->

<svg
   width="130.39742mm"
   height="16.8797mm"
   viewBox="0 0 130.39742 16.8797"
   version="1.1"
   id="svg1"
   inkscape:version="1.3.2 (091e20e, 2023-11-25, custom)"
   sodipodi:docname="Logo of Checkmarx.svg"
   xmlns:inkscape="http://www.inkscape.org/namespaces/inkscape"
   xmlns:sodipodi="http://sodipodi.sourceforge.net/DTD/sodipodi-0.dtd"
   xmlns="http://www.w3.org/2000/svg"
   xmlns:svg="http://www.w3.org/2000/svg">
  <sodipodi:namedview
     id="namedview1"
     pagecolor="#ffffff"
     bordercolor="#000000"
     borderopacity="0.25"
     inkscape:showpageshadow="2"
     inkscape:pageopacity="0.0"
     inkscape:pagecheckerboard="0"
     inkscape:deskcolor="#d1d1d1"
     inkscape:document-units="mm"
     inkscape:zoom="0.72426347"
     inkscape:cx="276.1426"
     inkscape:cy="203.65517"
     inkscape:window-width="1920"
     inkscape:window-height="1009"
     inkscape:window-x="-8"
     inkscape:window-y="-8"
     inkscape:window-maximized="1"
     inkscape:current-layer="layer1" />
  <defs
     id="defs1">
    <clipPath
       clipPathUnits="userSpaceOnUse"
       id="clipPath26">
      <path
         d="M 0,0 H 595.275 V 841.89 H 0 Z"
         transform="translate(-126.5485,-71.329202)"
         id="path26" />
    </clipPath>
    <clipPath
       clipPathUnits="userSpaceOnUse"
       id="clipPath30">
      <path
         d="M 0,0 H 595.275 V 841.89 H 0 Z"
         transform="translate(-162.7617,-72.712202)"
         id="path30" />
    </clipPath>
    <clipPath
       clipPathUnits="userSpaceOnUse"
       id="clipPath28">
      <path
         d="M 0,0 H 595.275 V 841.89 H 0 Z"
         transform="translate(-160.8597,-73.567877)"
         id="path28" />
    </clipPath>
  </defs>
  <g
     inkscape:label="Layer 1"
     inkscape:groupmode="layer"
     id="layer1"
     transform="translate(-31.784584,-94.543423)">
    <path
       id="path25"
       d="M 0,0 C -0.798,0 -1.429,-0.166 -1.844,-0.582 L -2.326,-1.063 H -2.471 -2.927 C -3.378,-0.354 -4.172,0 -5.319,0 -6.116,0 -6.748,-0.166 -7.163,-0.582 l -0.482,-0.481 h -0.482 l -0.232,0.897 h -1.662 v -8.741 h 2.243 v 5.351 c 0,1.03 0.532,1.562 1.596,1.562 0.997,0 1.462,-0.482 1.462,-1.562 v -5.351 h 2.243 v 5.384 l 0.018,-0.02 c 0.004,1.021 0.536,1.549 1.595,1.549 0.997,0 1.462,-0.482 1.462,-1.562 v -5.351 h 2.243 v 5.949 C 2.841,-0.98 1.911,0 0,0 m 14.382,-7.012 h 2.41 v 4.968 h -2.127 v 1.878 h 3.739 l 0.216,-0.897 h 0.498 L 19.6,-0.582 C 19.999,-0.166 20.631,0 21.444,0 h 1.413 v -2.011 h -2.21 c -1.063,0 -1.612,-0.515 -1.612,-1.462 v -3.539 h 2.792 V -8.907 H 14.382 Z M 8.18,-7.395 c 1.146,0 1.795,0.599 1.795,1.646 v 0.548 H 8.263 c -0.947,0 -1.429,-0.399 -1.429,-1.13 0,-0.648 0.382,-1.064 1.346,-1.064 m -3.622,0.848 c 0,1.728 1.146,2.642 3.14,2.642 h 2.277 v 0.648 c 0,1.08 -0.482,1.529 -1.479,1.529 -0.848,0 -1.446,-0.333 -1.512,-1.146 H 4.956 C 5.023,-1.063 6.286,0 8.678,0 c 2.393,0 3.54,-1.03 3.54,-3.157 v -5.75 H 10.49 l -0.216,0.898 H 9.792 L 9.31,-8.491 C 8.911,-8.89 8.28,-9.073 7.432,-9.073 c -1.877,0 -2.874,0.897 -2.874,2.526 m -21.514,1.313 h -0.98 v -3.673 h -2.243 V 3.39 h 2.243 v -6.63 h 1.014 l 2.292,3.074 h 2.56 l -2.975,-4.072 3.074,-4.669 h -2.642 z m -13.603,0.698 c 0,3.074 1.429,4.536 4.154,4.536 2.492,0 3.805,-1.23 3.872,-3.506 h -2.177 c -0.1,1.113 -0.665,1.612 -1.695,1.612 -1.28,0 -1.845,-0.765 -1.845,-2.642 0,-1.878 0.565,-2.643 1.845,-2.643 1.047,0 1.628,0.499 1.712,1.712 h 2.21 c -0.067,-2.359 -1.413,-3.606 -3.922,-3.606 -2.725,0 -4.154,1.479 -4.154,4.537 m -4.068,1.03 c -0.033,1.196 -0.615,1.845 -1.778,1.845 -1.113,0 -1.728,-0.582 -1.927,-1.845 z m -5.965,-1.03 c 0,3.074 1.446,4.536 4.187,4.536 2.842,0 4.155,-1.529 3.839,-4.919 h -5.816 c 0.083,-1.728 0.698,-2.459 1.994,-2.459 0.947,0 1.578,0.383 1.728,1.163 h 2.06 c -0.199,-1.811 -1.578,-2.858 -3.855,-2.858 -2.708,0 -4.137,1.479 -4.137,4.537 m -9.789,7.926 h 2.243 V 0.482 l -0.199,-1.429 0.465,-0.116 0.482,0.481 c 0.416,0.416 0.997,0.582 1.778,0.582 1.878,0 2.775,-0.98 2.775,-2.958 v -5.949 h -2.243 v 5.351 c 0,1.08 -0.465,1.562 -1.462,1.562 -1.064,0 -1.596,-0.532 -1.596,-1.562 v -5.351 h -2.243 z m -10.687,-6.564 c 0,4.171 1.345,5.999 4.42,5.999 2.758,0 4.087,-1.496 4.204,-4.62 h -2.277 c -0.083,1.728 -0.681,2.526 -1.927,2.526 -1.462,0 -2.044,-1.08 -2.044,-3.905 0,-2.908 0.548,-3.905 2.044,-3.905 1.279,0 1.861,0.715 1.961,2.559 h 2.309 c -0.133,-3.157 -1.512,-4.652 -4.27,-4.652 -3.075,0 -4.42,1.827 -4.42,5.998"
       style="fill:#29367a;fill-opacity:1;fill-rule:nonzero;stroke:none"
       transform="matrix(1.3403674,0,0,-1.3403674,113.63814,99.087268)"
       clip-path="url(#clipPath26)" />
    <path
       id="path27"
       d="m 0,0 -4.995,-5.404 c -0.103,-0.103 -0.291,-0.104 -0.387,-0.012 l -2.567,2.976 -0.013,0.014 c -0.221,0.222 -0.525,0.34 -0.838,0.326 -0.315,-0.015 -0.61,-0.162 -0.812,-0.406 -0.18,-0.218 -0.266,-0.496 -0.243,-0.784 0.022,-0.278 0.143,-0.539 0.348,-0.744 l 2.949,-2.541 0.08,-0.196 -0.071,-0.188 -2.95,-2.54 -0.013,-0.013 c -0.213,-0.213 -0.337,-0.508 -0.341,-0.812 -0.005,-0.318 0.117,-0.609 0.343,-0.819 0.105,-0.098 0.225,-0.173 0.358,-0.224 0.262,-0.101 0.561,-0.099 0.821,0.007 0.139,0.056 0.263,0.138 0.376,0.252 l 2.565,2.974 c 0.105,0.101 0.288,0.101 0.384,0.008 l 2.567,-2.976 0.013,-0.014 c 0.106,-0.106 0.231,-0.188 0.369,-0.245 0.134,-0.054 0.275,-0.081 0.419,-0.081 0.139,0 0.274,0.025 0.402,0.075 0.133,0.051 0.254,0.127 0.358,0.224 0.226,0.21 0.348,0.501 0.343,0.819 -0.004,0.304 -0.128,0.6 -0.348,0.819 l -2.947,2.538 -0.08,0.196 0.073,0.191 5.399,4.988 c 0.197,0.198 0.318,0.459 0.34,0.736 0.023,0.288 -0.064,0.567 -0.243,0.785 v 0 C 1.457,0.173 1.161,0.321 0.848,0.334 L 0.797,0.336 C 0.504,0.336 0.216,0.216 0,0"
       style="fill:#5295d6;fill-opacity:1;fill-rule:nonzero;stroke:none"
       transform="matrix(1.3403674,0,0,-1.3403674,159.62776,96.086638)"
       clip-path="url(#clipPath28)" />
    <path
       id="path29"
       d="M 0,0 C 0.023,0.288 -0.064,0.567 -0.243,0.784 V 0.785 C -0.445,1.028 -0.741,1.176 -1.054,1.19 l -0.051,0.001 c -0.293,0 -0.581,-0.119 -0.797,-0.335 L -6.897,-4.549 C -7,-4.651 -7.188,-4.653 -7.284,-4.56 l -2.567,2.976 -0.013,0.014 c -0.221,0.221 -0.525,0.34 -0.838,0.325 -0.315,-0.014 -0.61,-0.162 -0.812,-0.406 -0.18,-0.217 -0.266,-0.496 -0.243,-0.784 0.022,-0.277 0.143,-0.538 0.348,-0.743 l 2.253,-1.941 0.856,-0.738 c 0.713,-0.614 1.774,-0.596 2.465,0.043 l 0.662,0.612 4.833,4.466 C -0.143,-0.539 -0.022,-0.277 0,0"
       style="fill:#f0347e;fill-opacity:1;fill-rule:nonzero;stroke:none"
       transform="matrix(1.3403674,0,0,-1.3403674,162.17713,97.233548)"
       clip-path="url(#clipPath30)" />
  </g>
</svg>
