<svg width="132" height="35" viewBox="0 0 132 35" fill="none" xmlns="http://www.w3.org/2000/svg">
<path d="M24.5489 12.9144C24.007 12.1299 23.2483 11.5182 22.3645 11.1532C21.3943 10.7615 20.3545 10.5686 19.3076 10.586C18.2088 10.5713 17.122 10.8142 16.1352 11.295C15.1971 11.757 14.3669 12.4096 13.6984 13.2108C13.0072 14.0444 12.4756 14.997 12.1301 16.0214C11.7559 17.1259 11.5695 18.2848 11.5783 19.4503C11.5783 21.0347 12.0763 22.3757 13.0725 23.4733C14.0687 24.5709 15.5625 25.1192 17.5538 25.1182C18.6841 25.1259 19.8012 24.8756 20.8189 24.3865C21.7808 23.9323 22.6651 23.3308 23.4396 22.604L28.6808 30.3792C27.9703 30.9776 27.2257 31.5348 26.4509 32.0483C25.5484 32.644 24.5849 33.1426 23.5765 33.5358C22.4068 33.9909 21.1993 34.343 19.9677 34.588C18.507 34.8741 17.0208 35.0118 15.532 34.9992C13.0796 34.9992 10.8958 34.6641 8.98044 33.9938C7.17063 33.3851 5.51043 32.4032 4.10845 31.1124C2.76744 29.8464 1.72536 28.3005 1.05722 26.5859C0.352866 24.8209 0.000691258 22.8545 0.000691258 20.6868C-0.0210494 18.0273 0.470222 15.3884 1.44789 12.913C2.36872 10.5616 3.75162 8.41633 5.51574 6.60263C7.27987 4.78893 9.38983 3.34318 11.7223 2.3499C14.1119 1.30999 16.7321 0.790039 19.5828 0.790039C22.403 0.790039 24.8858 1.22491 27.0312 2.09465C29.1766 2.96439 30.8162 4.03881 31.9502 5.31789L24.5489 12.9144ZM60.964 34.0818H50.3432L52.5503 21.644H43.2626L41.0569 34.0818H30.436L36.1863 1.71319H46.7601L44.7797 12.8208H54.0674L56.0436 1.71319H66.71L60.964 34.0818ZM92.5913 10.542H81.3274L80.7757 13.6518H91.5334L90.062 21.8851H79.3042L78.7068 25.2657H91.3038L89.7354 34.0889H67.1264L72.8681 1.71319H94.154L92.5856 10.5349L92.5913 10.542ZM129.719 21.8539C129.29 22.7393 128.764 23.5748 128.151 24.3454C127.699 24.9374 127.165 25.4626 126.564 25.9052L126.518 26.0882L131.851 25.7691L130.38 34.0874H111.579C109.125 34.0874 106.909 33.775 104.933 33.1501C102.957 32.5252 101.263 31.6181 99.8516 30.4289C98.4497 29.2523 97.3335 27.7757 96.5865 26.1094C95.8194 24.4172 95.4358 22.5043 95.4358 20.3706C95.4203 17.7714 95.9123 15.1939 96.8845 12.7811C97.8072 10.4677 99.1832 8.3598 100.932 6.57997C102.712 4.79693 104.83 3.38319 107.163 2.4208C109.586 1.3998 112.269 0.88883 115.212 0.887885C117.696 0.887885 119.934 1.21593 121.926 1.87202C123.918 2.5281 125.613 3.45788 127.01 4.66133C128.403 5.8602 129.51 7.35146 130.253 9.02753C131.02 10.7349 131.403 12.6403 131.403 14.7437C131.412 16.0468 131.249 17.3453 130.92 18.6065C130.628 19.7256 130.226 20.8133 129.719 21.8539ZM119.924 13.961C119.674 13.2782 119.283 12.6554 118.775 12.1331C118.239 11.5958 117.596 11.1756 116.887 10.8994C116.075 10.5829 115.208 10.4273 114.335 10.4413C113.212 10.4265 112.101 10.6783 111.095 11.1759C110.15 11.6483 109.313 12.3097 108.636 13.1186C107.952 13.9403 107.421 14.8767 107.068 15.8838C106.701 16.9115 106.515 17.994 106.516 19.0844C106.512 19.8534 106.636 20.6176 106.884 21.3462C107.118 22.0449 107.502 22.6846 108.01 23.2209C108.544 23.7746 109.188 24.2121 109.901 24.5056C110.74 24.8416 111.639 25.0047 112.544 24.9849C113.686 25.0023 114.815 24.7403 115.832 24.222C116.78 23.7344 117.618 23.0587 118.293 22.2367C118.973 21.4036 119.488 20.4493 119.81 19.4247C120.146 18.3835 120.317 17.2965 120.316 16.2029C120.321 15.4389 120.189 14.6801 119.926 13.9624L119.924 13.961Z" fill="#FE0072"/>
</svg>
