<?xml version="1.0" encoding="UTF-8" standalone="no"?>
<!-- Created with Inkscape (http://www.inkscape.org/) -->

<svg
   xmlns:dc="http://purl.org/dc/elements/1.1/"
   xmlns:cc="http://creativecommons.org/ns#"
   xmlns:rdf="http://www.w3.org/1999/02/22-rdf-syntax-ns#"
   xmlns:svg="http://www.w3.org/2000/svg"
   xmlns="http://www.w3.org/2000/svg"
   version="1.1"
   width="1027.5587"
   height="531.49628"
   id="svg2985"
   xml:space="preserve"><metadata
     id="metadata2991"><rdf:RDF><cc:Work
         rdf:about=""><dc:format>image/svg+xml</dc:format><dc:type
           rdf:resource="http://purl.org/dc/dcmitype/StillImage" /><dc:title></dc:title></cc:Work></rdf:RDF></metadata><defs
     id="defs2989"><clipPath
       id="clipPath2999"><path
         d="m 0,425.197 822.047,0 L 822.047,0 0,0 0,425.197 z"
         id="path3001" /></clipPath></defs><g
     transform="matrix(1.25,0,0,-1.25,0,531.49625)"
     id="g2993"><g
       transform="matrix(2.795585,0,0,2.795585,-723.87546,-371.29042)"
       id="g2995"><g
         clip-path="url(#clipPath2999)"
         id="g2997"><g
           transform="translate(317.1768,151.9854)"
           id="g3003"><path
             d="m 0,0 c -4.597,-1.33 -9.192,-2.299 -13.916,-2.299 -18.879,0 -30.857,11.738 -30.857,30.737 0,17.908 12.346,30.132 30.254,30.132 4.596,0 8.953,-0.726 13.192,-1.937 L -2.54,44.168 c -3.148,1.211 -6.17,2.059 -9.562,2.059 -10.041,0 -16.573,-7.989 -16.573,-17.668 0,-10.649 6.654,-17.909 17.425,-17.909 3.748,0 7.136,0.965 10.405,2.42 L 0,0 z"
             id="path3005"
             style="fill:#0071bc;fill-opacity:1;fill-rule:nonzero;stroke:none" /></g><g
           transform="translate(364.0928,150.8955)"
           id="g3007"><path
             d="m 0,0 c -3.509,-0.725 -6.9,-1.209 -10.409,-1.209 -15.851,0 -20.085,9.197 -20.085,23.477 l 0,25.048 -11.256,0 0,11.497 40.658,0 0,-11.497 -13.672,0 0,-21.779 c 0,-6.902 0,-14.281 8.955,-14.281 1.811,0 3.507,0.361 5.323,0.848 L 0,0 z"
             id="path3009"
             style="fill:#404041;fill-opacity:1;fill-rule:nonzero;stroke:none" /></g><g
           transform="translate(399.1758,200.7529)"
           id="g3011"><path
             d="m 0,0 c -8.711,0 -13.069,-7.018 -13.796,-14.883 l 26.138,0 C 12.1,-7.383 8.717,0 0,0 m 23.113,-48.039 c -6.412,-2.787 -13.552,-4.115 -20.572,-4.115 -19.726,0 -31.341,11.615 -31.341,31.463 0,18.029 10.529,31.582 29.282,31.582 18.518,0 26.625,-14.28 26.625,-31.221 0,-1.815 -0.242,-3.508 -0.363,-5.326 l -40.298,0 c 0.845,-9.682 8.35,-15.002 17.788,-15.002 6.78,0 12.83,2.664 18.639,6.049 l 0.24,-13.43 z"
             id="path3013"
             style="fill:#404041;fill-opacity:1;fill-rule:nonzero;stroke:none" /></g><g
           transform="translate(435.1914,150.1709)"
           id="g3015"><path
             d="M 0,0 0,41.871 C -0.121,47.92 -0.121,53.85 -0.482,59.898 l 14.035,0 0.363,-15.123 c 2.297,8.35 7.26,15.61 16.822,15.61 1.573,0 3.02,-0.244 4.594,-0.608 l 0,-14.519 c -1.814,0.484 -3.631,0.846 -5.445,0.846 -11.86,0 -14.399,-10.649 -14.399,-20.208 l 0,-1.21 L 15.488,0 0,0 z"
             id="path3017"
             style="fill:#404041;fill-opacity:1;fill-rule:nonzero;stroke:none" /></g><g
           transform="translate(507.1465,177.5186)"
           id="g3019"><path
             d="m 0,0 -1.934,0 c -7.505,0 -19.845,-0.363 -19.845,-10.045 0,-4.961 4.595,-7.744 9.318,-7.744 10.043,0 14.277,8.957 14.277,17.668 C 1.211,0 0.609,0 0,0 m 2.543,-27.348 -0.24,8.955 c -3.871,-6.656 -11.135,-9.923 -18.635,-9.923 -11.619,0 -20.816,6.05 -20.816,18.634 0,16.702 17.062,19.483 30.253,19.483 2.78,0 5.69,-0.24 8.469,-0.363 0,8.957 -4.232,13.191 -13.312,13.191 -6.653,0 -13.432,-2.539 -18.51,-6.531 l -0.49,13.427 c 6.539,2.786 13.681,4.118 20.816,4.118 7.865,0 16.943,-1.938 21.906,-8.715 3.385,-4.717 3.746,-11.133 3.746,-17.061 0,-11.74 0,-23.478 0.61,-35.215 l -13.797,0 z"
             id="path3021"
             style="fill:#404041;fill-opacity:1;fill-rule:nonzero;stroke:none" /></g><g
           transform="translate(336.7256,222.4785)"
           id="g3023"><path
             d="M 0,0 C 0.133,-0.701 0.292,-1.486 0.459,-2.096 2.177,-8.402 10.686,-7.257 10.17,0.002 9.469,9.864 12.826,19.98 20.585,27.29 34.063,39.967 55.274,39.333 67.958,25.853 73.37,20.1 76.353,12.939 76.946,5.637 77.112,3.727 78.964,3.902 79.048,6.127 79.407,16.396 75.825,26.799 68.228,34.869 53.122,50.916 27.881,51.682 11.836,36.59 1.516,26.874 -2.477,12.966 0,0"
             id="path3025"
             style="fill:#0071bc;fill-opacity:1;fill-rule:nonzero;stroke:none" /></g><g
           transform="translate(412.6387,224.3389)"
           id="g3027"><path
             d="m 0,0 c 0.096,-3.721 4.584,-3.709 5.074,-0.021 0.658,5.005 3.52,9.671 8.192,12.462 8.113,4.841 18.619,2.194 23.463,-5.92 2.068,-3.463 2.765,-7.362 2.261,-11.068 -0.127,-0.972 0.815,-1.088 1.102,0.014 1.306,5.08 0.664,10.661 -2.238,15.519 C 32.086,20.648 19.584,23.803 9.926,18.041 3.375,14.129 -0.182,7.121 0,0"
             id="path3029"
             style="fill:#8ed8f8;fill-opacity:1;fill-rule:nonzero;stroke:none" /></g><g
           transform="translate(537.585,207.4512)"
           id="g3031"><path
             d="M 0,0 0,5.566 0,7.656 -0.781,5.636 -3.106,0 l -0.846,0 -2.282,5.724 -0.762,1.932 0.085,-2.147 0,-5.509 -1.015,0 0,8.971 1.396,0 2.218,-5.502 0.804,-2.201 c 0.196,0.64 0.352,1.116 0.465,1.428 0.112,0.312 0.253,0.617 0.423,0.913 l 2.198,5.362 1.416,0 L 0.994,0 0,0 z m -11.519,7.961 0,-7.961 -1.014,0 0,7.961 -2.536,0 0,0.963 6.065,0 0,-0.963 -2.515,0 z"
             id="path3033"
             style="fill:#231f20;fill-opacity:1;fill-rule:nonzero;stroke:none" /></g></g></g></g></svg>