<svg height="215.387448" viewBox="0 0 25.654693 11.906327" width="464.279609" xmlns="http://www.w3.org/2000/svg"><g stroke-width=".264583" transform="translate(-124.13233 -216.83121)"><path d="m143.0666 222.96126c.42334 0 .87313.10583 1.24355.29104l-.47625.9525c-.23813-.13229-.50271-.18521-.7673-.18521-.9525 0-1.74625.79375-1.74625 1.74625v2.75167h-1.05833v-5.47687h1.05833v.52916c.50271-.39687 1.11125-.60854 1.74625-.60854zm5.5298.0794h1.05833v5.47687h-1.05833v-.52917c-1.13771.92605-2.80459.79375-3.81-.29104-1.00542-1.08479-1.00542-2.75166 0-3.83646 1.00541-1.08479 2.64583-1.21708 3.81-.29104zm-1.74625 4.49791c.9525 0 1.74625-.79375 1.74625-1.74625 0-.97896-.7673-1.74625-1.74625-1.74625-.97896 0-1.74625.79375-1.74625 1.74625s.79375 1.74625 1.74625 1.74625zm-10.23938-4.57729c1.56104 0 2.80458 1.27 2.80458 2.80458v.52917h-4.47145c.1852.635.71437 1.08479 1.37583 1.19063.635.10583 1.29646-.15875 1.69333-.68792l.84667.635c-.79375 1.05833-2.2225 1.42875-3.41313.87312-1.19062-.55562-1.85208-1.87854-1.56104-3.175.29104-1.29645 1.40229-2.16958 2.72521-2.16958zm-1.66687 2.27542h3.33375c-.23813-.71438-.89959-1.21709-1.66688-1.21709s-1.42875.50271-1.66687 1.21709zm-2.54 2.30187c.26458 0 .52916-.0529.76729-.18521l.47625.9525c-.39688.18521-.82021.29105-1.24354.29105-1.56105 0-2.80459-1.27-2.80459-2.80459v-3.54541h1.05834v.71437h2.11666v1.05833h-2.11666v1.74625c0 .97896.79375 1.77271 1.74625 1.77271zm-5.34459-3.51896c-.79375 0-1.48166.52917-1.69333 1.29646s.13229 1.56104.82021 1.95792c.68791.39687 1.53458.29104 2.11666-.29104l.74084.74083c-1.08479 1.13771-2.8575 1.13771-3.94229.0529-1.11125-1.11125-1.11125-2.88396-.0265-3.99521 1.08479-1.08479 2.8575-1.11125 3.94229-.0265l-.74083.74083c-.3175-.29104-.7673-.47625-1.21709-.47625z"/><path d="m144.4689 221.71772h-1.05834c-.0265-1.11125-.9525-2.01083-2.09021-2.01083-1.1377 0-2.06375.89958-2.0902 2.01083h-1.05834c-.0265-2.03729-1.69333-3.65125-3.75708-3.65125s-3.73063 1.64042-3.75708 3.65125h-1.05834c0-2.24896 1.5875-4.20688 3.83646-4.65667s4.49792.68792 5.3975 2.75167c.82021-1.05833 2.2225-1.48167 3.4925-1.03188 1.27.42334 2.14313 1.61396 2.14313 2.93688z" fill="#4f5ce5"/></g></svg>