<svg  width="120" height="55" viewBox="0 0 160 74" fill="none" xmlns="http://www.w3.org/2000/svg">
<path d="M 122.2 43.5 C 125.8 43.5 128.7 40.6 128.7 37 C 128.7 33.4 125.8 30.5 122.2 30.5 C 118.6 30.5 115.7 33.4 115.7 37 C 115.7 40.6 118.6 43.5 122.2 43.5 Z" fill="#4a87a2"/>
<path d="M 122.2 55.6 C 125 55.6 127.2 53.3 127.2 50.5 C 127.2 47.8 125 45.5 122.2 45.5 C 119.4 45.5 117.2 47.8 117.2 50.5 C 117.2 53.3 119.4 55.6 122.2 55.6 Z" fill="#0076ba"/>
<path d="M 114.6 51.1 C 117.2 50 118.3 47 117.2 44.5 C 116 42 113 40.9 110.5 42 C 108 43.1 106.9 46.1 108 48.6 C 109.1 51.1 112.1 52.3 114.6 51.1 Z" fill="#66c4ea"/>
<path d="M 108.6 42 C 111.4 42 113.6 39.7 113.6 37 C 113.6 34.2 111.4 32 108.6 32 C 105.8 32 103.6 34.2 103.6 37 C 103.6 39.7 105.8 42 108.6 42 Z" fill="#0076ba"/>
<path d="M 117.2 29.4 C 118.3 26.9 117.2 24 114.6 22.8 C 112.1 21.7 109.1 22.8 108 25.3 C 106.9 27.9 108 30.8 110.5 32 C 113.1 33.1 116 32 117.2 29.4 Z" fill="#66c4ea"/>
<path d="M 122.2 28.4 C 125 28.4 127.2 26.2 127.2 23.4 C 127.2 20.6 125 18.4 122.2 18.4 C 119.4 18.4 117.2 20.6 117.2 23.4 C 117.2 26.2 119.4 28.4 122.2 28.4 Z" fill="#0076ba"/>
<path d="M 133.9 31.9 C 136.4 30.8 137.5 27.8 136.4 25.3 C 135.2 22.8 132.3 21.7 129.7 22.8 C 127.2 23.9 126.1 26.9 127.2 29.4 C 128.4 32 131.3 33.1 133.9 31.9 Z" fill="#66c4ea"/>
<path d="M 135.8 42 C 138.5 42 140.8 39.7 140.8 37 C 140.8 34.2 138.5 32 135.8 32 C 133 32 130.8 34.2 130.8 37 C 130.8 39.7 133 42 135.8 42 Z" fill="#0076ba"/>
<path d="M 136.4 48.6 C 137.5 46.1 136.4 43.1 133.9 42 C 131.3 40.9 128.4 42 127.2 44.5 C 126.1 47 127.2 50 129.7 51.2 C 132.3 52.3 135.2 51.2 136.4 48.6 Z" fill="#66c4ea"/>
<path d="M 122.2 65 C 124.2 65 125.8 63.4 125.8 61.4 C 125.8 59.4 124.2 57.7 122.2 57.7 C 120.2 57.7 118.5 59.4 118.5 61.4 C 118.5 63.4 120.2 65 122.2 65 Z" fill="#0076ba"/>
<path d="M 112.8 63.2 C 114.8 63.2 116.5 61.5 116.5 59.5 C 116.5 57.5 114.8 55.9 112.8 55.9 C 110.8 55.9 109.2 57.5 109.2 59.5 C 109.2 61.5 110.8 63.2 112.8 63.2 Z" fill="#7fbc42"/>
<path d="M 104.9 57.9 C 106.9 57.9 108.5 56.2 108.5 54.2 C 108.5 52.2 106.9 50.6 104.9 50.6 C 102.9 50.6 101.3 52.2 101.3 54.2 C 101.3 56.2 102.9 57.9 104.9 57.9 Z" fill="#66c4ea"/>
<path d="M 99.6 50 C 101.6 50 103.2 48.3 103.2 46.3 C 103.2 44.3 101.6 42.7 99.6 42.7 C 97.6 42.7 96 44.3 96 46.3 C 96 48.3 97.6 50 99.6 50 Z" fill="#7fbc42"/>
<path d="M 97.7 40.6 C 99.8 40.6 101.4 39 101.4 37 C 101.4 35 99.8 33.3 97.7 33.3 C 95.7 33.3 94.1 35 94.1 37 C 94.1 39 95.7 40.6 97.7 40.6 Z" fill="#0076ba"/>
<path d="M 99.6 31.3 C 101.6 31.3 103.2 29.6 103.2 27.6 C 103.2 25.6 101.6 24 99.6 24 C 97.6 24 96 25.6 96 27.6 C 96 29.6 97.6 31.3 99.6 31.3 Z" fill="#7fbc42"/>
<path d="M 104.9 23.4 C 106.9 23.4 108.5 21.7 108.5 19.7 C 108.5 17.7 106.9 16.1 104.9 16.1 C 102.9 16.1 101.3 17.7 101.3 19.7 C 101.3 21.7 102.9 23.4 104.9 23.4 Z" fill="#66c4ea"/>
<path d="M 112.8 18.1 C 114.8 18.1 116.5 16.4 116.5 14.4 C 116.5 12.4 114.8 10.8 112.8 10.8 C 110.8 10.8 109.2 12.4 109.2 14.4 C 109.2 16.4 110.8 18.1 112.8 18.1 Z" fill="#7fbc42"/>
<path d="M 122.2 16.2 C 124.2 16.2 125.8 14.6 125.8 12.6 C 125.8 10.6 124.2 8.9 122.2 8.9 C 120.2 8.9 118.5 10.6 118.5 12.6 C 118.5 14.6 120.2 16.2 122.2 16.2 Z" fill="#0076ba"/>
<path d="M 131.5 18.1 C 133.6 18.1 135.2 16.4 135.2 14.4 C 135.2 12.4 133.6 10.8 131.5 10.8 C 129.5 10.8 127.9 12.4 127.9 14.4 C 127.9 16.4 129.5 18.1 131.5 18.1 Z" fill="#7fbc42"/>
<path d="M 139.5 23.4 C 141.5 23.4 143.1 21.7 143.1 19.7 C 143.1 17.7 141.5 16.1 139.5 16.1 C 137.5 16.1 135.8 17.7 135.8 19.7 C 135.8 21.7 137.5 23.4 139.5 23.4 Z" fill="#66c4ea"/>
<path d="M 144.8 31.3 C 146.8 31.3 148.4 29.6 148.4 27.6 C 148.4 25.6 146.8 24 144.8 24 C 142.8 24 141.1 25.6 141.1 27.6 C 141.1 29.6 142.8 31.3 144.8 31.3 Z" fill="#7fbc42"/>
<path d="M 146.6 40.6 C 148.6 40.6 150.3 39 150.3 37 C 150.3 35 148.6 33.3 146.6 33.3 C 144.6 33.3 143 35 143 37 C 143 39 144.6 40.6 146.6 40.6 Z" fill="#0076ba"/>
<path d="M 144.8 50 C 146.8 50 148.4 48.3 148.4 46.3 C 148.4 44.3 146.8 42.7 144.8 42.7 C 142.8 42.7 141.1 44.3 141.1 46.3 C 141.1 48.3 142.8 50 144.8 50 Z" fill="#7fbc42"/>
<path d="M 139.5 57.9 C 141.5 57.9 143.1 56.2 143.1 54.2 C 143.1 52.2 141.5 50.6 139.5 50.6 C 137.5 50.6 135.8 52.2 135.8 54.2 C 135.8 56.2 137.5 57.9 139.5 57.9 Z" fill="#66c4ea"/>
<path d="M 131.5 63.2 C 133.6 63.2 135.2 61.5 135.2 59.5 C 135.2 57.5 133.6 55.9 131.5 55.9 C 129.5 55.9 127.9 57.5 127.9 59.5 C 127.9 61.5 129.5 63.2 131.5 63.2 Z" fill="#7fbc42"/>
<path d="M 122.2 74 C 123.6 74 124.7 72.8 124.7 71.4 C 124.7 70 123.6 68.9 122.2 68.9 C 120.8 68.9 119.6 70 119.6 71.4 C 119.6 72.8 120.8 74 122.2 74 Z" fill="#0076ba"/>
<path d="M 109 71.3 C 110.4 71.3 111.5 70.2 111.5 68.8 C 111.5 67.4 110.4 66.2 109 66.2 C 107.6 66.2 106.4 67.4 106.4 68.8 C 106.4 70.2 107.6 71.3 109 71.3 Z" fill="#7fbc42"/>
<path d="M 97.8 63.9 C 99.2 63.9 100.3 62.7 100.3 61.3 C 100.3 59.9 99.2 58.8 97.8 58.8 C 96.4 58.8 95.3 59.9 95.3 61.3 C 95.3 62.7 96.4 63.9 97.8 63.9 Z" fill="#66c4ea"/>
<path d="M 90.3 52.7 C 91.7 52.7 92.9 51.6 92.9 50.2 C 92.9 48.8 91.7 47.6 90.3 47.6 C 88.9 47.6 87.8 48.8 87.8 50.2 C 87.8 51.6 88.9 52.7 90.3 52.7 Z" fill="#7fbc42"/>
<path d="M 87.7 39.5 C 89.1 39.5 90.2 38.4 90.2 37 C 90.2 35.6 89.1 34.4 87.7 34.4 C 86.3 34.4 85.2 35.6 85.2 37 C 85.2 38.4 86.3 39.5 87.7 39.5 Z" fill="#0076ba"/>
<path d="M 90.3 26.3 C 91.7 26.3 92.9 25.2 92.9 23.8 C 92.9 22.4 91.7 21.3 90.3 21.3 C 88.9 21.3 87.8 22.4 87.8 23.8 C 87.8 25.2 88.9 26.3 90.3 26.3 Z" fill="#7fbc42"/>
<path d="M 97.8 15.2 C 99.2 15.2 100.3 14 100.3 12.6 C 100.3 11.2 99.2 10.1 97.8 10.1 C 96.4 10.1 95.3 11.2 95.3 12.6 C 95.3 14 96.4 15.2 97.8 15.2 Z" fill="#66c4ea"/>
<path d="M 109 7.7 C 110.4 7.7 111.5 6.6 111.5 5.2 C 111.5 3.8 110.4 2.6 109 2.6 C 107.6 2.6 106.4 3.8 106.4 5.2 C 106.4 6.6 107.6 7.7 109 7.7 Z" fill="#7fbc42"/>
<path d="M 122.2 5.1 C 123.6 5.1 124.7 3.9 124.7 2.5 C 124.7 1.1 123.6 0 122.2 0 C 120.8 0 119.6 1.1 119.6 2.5 C 119.6 3.9 120.8 5.1 122.2 5.1 Z" fill="#0076ba"/>
<path d="M 135.4 7.7 C 136.8 7.7 137.9 6.6 137.9 5.2 C 137.9 3.8 136.8 2.6 135.4 2.6 C 134 2.6 132.8 3.8 132.8 5.2 C 132.8 6.6 134 7.7 135.4 7.7 Z" fill="#7fbc42"/>
<path d="M 146.6 15.2 C 148 15.2 149.1 14 149.1 12.6 C 149.1 11.2 148 10.1 146.6 10.1 C 145.2 10.1 144 11.2 144 12.6 C 144 14 145.2 15.2 146.6 15.2 Z" fill="#66c4ea"/>
<path d="M 154 26.3 C 155.5 26.3 156.6 25.2 156.6 23.8 C 156.6 22.4 155.5 21.3 154 21.3 C 152.6 21.3 151.5 22.4 151.5 23.8 C 151.5 25.2 152.6 26.3 154 26.3 Z" fill="#7fbc42"/>
<path d="M 156.7 39.5 C 158.1 39.5 159.2 38.4 159.2 37 C 159.2 35.6 158.1 34.4 156.7 34.4 C 155.3 34.4 154.1 35.6 154.1 37 C 154.1 38.4 155.3 39.5 156.7 39.5 Z" fill="#0076ba"/>
<path d="M 154 52.7 C 155.5 52.7 156.6 51.6 156.6 50.2 C 156.6 48.8 155.5 47.6 154 47.6 C 152.6 47.6 151.5 48.8 151.5 50.2 C 151.5 51.6 152.6 52.7 154 52.7 Z" fill="#7fbc42"/>
<path d="M 146.6 63.9 C 148 63.9 149.1 62.7 149.1 61.3 C 149.1 59.9 148 58.8 146.6 58.8 C 145.2 58.8 144 59.9 144 61.3 C 144 62.7 145.2 63.9 146.6 63.9 Z" fill="#66c4ea"/>
<path d="M 135.4 71.3 C 136.8 71.3 137.9 70.2 137.9 68.8 C 137.9 67.4 136.8 66.2 135.4 66.2 C 134 66.2 132.8 67.4 132.8 68.8 C 132.8 70.2 134 71.3 135.4 71.3 Z" fill="#7fbc42"/>
<path d="M 1.3 42.7 V 13.2 H 10 C 13.6 13.2 17.2 14.1 19.8 15.8 C 23.8 18.5 26.2 23.1 26.2 28.1 C 26.2 31.8 24.8 35.3 21.9 38.3 C 19 41.2 14.9 42.7 9.9 42.7 H 1.3 Z M 9.7 40.1 C 14.6 40.1 17.8 38.8 20 36.5 C 22.1 34.2 23.3 31.1 23.3 28 C 23.3 26.1 22.9 24.3 22.1 22.6 C 21.2 21 20 19.5 18.6 18.4 C 16.5 16.8 13.3 15.9 9.5 15.9 H 4.2 V 40 L 9.7 40.1 Z" fill="#042b48" stroke="#042b48" stroke-width="1.5" stroke-miterlimit="10"/>
<path d="M 47.5 42.7 V 28.9 H 32.2 V 42.7 H 29.3 V 13.2 H 32.2 V 26.2 H 47.5 V 13.2 H 50.5 V 42.7 H 47.5 Z" fill="#042b48" stroke="#042b48" stroke-width="1.5" stroke-miterlimit="10"/>
<path d="M 69.6 42.7 L 59.6 29.4 H 62.5 C 67.7 29.4 70.8 26.7 70.8 22.7 C 70.8 19.9 69.1 15.9 62.3 15.9 H 56.7 V 42.7 H 53.8 V 13.2 H 62.7 C 70.4 13.2 73.8 17.8 73.8 22.8 C 73.8 27.5 70.2 31.3 65 31.7 L 73.3 42.7 H 69.6 Z" fill="#042b48" stroke="#042b48" stroke-width="1.5" stroke-miterlimit="10"/>
<path d="M 5.2 55.6 V 54.6 H 12.4 C 12.3 56 11.7 57.3 10.6 58.3 C 9.6 59.2 8.2 59.8 6.8 59.7 C 3.8 59.7 1 57.4 1 54.2 C 1 51.1 3.6 48.6 6.8 48.6 C 9.2 48.6 11.2 50.1 11.8 51.7 H 10.6 C 10.2 51 9.6 50.5 8.9 50.1 C 8.3 49.8 7.5 49.6 6.8 49.6 C 5.5 49.6 4.4 50.1 3.5 50.9 C 2.6 51.8 2.1 53 2.1 54.2 C 2.1 56.8 4.3 58.8 6.8 58.8 C 8.8 58.8 10.7 57.4 11.2 55.6 L 5.2 55.6 Z" fill="#999999"/>
<path d="M 17.4 59.5 V 48.8 H 18.5 V 58.6 H 22.9 V 59.5 L 17.4 59.5 Z" fill="#999999"/>
<path d="M 32.4 59.7 C 29.4 59.7 26.7 57.3 26.7 54.2 C 26.7 52.8 27.3 51.3 28.4 50.3 C 29.4 49.2 30.9 48.7 32.3 48.7 C 33.8 48.6 35.3 49.2 36.3 50.3 C 37.4 51.3 38 52.7 38.1 54.2 C 38.1 57.2 35.5 59.7 32.4 59.7 Z M 32.4 49.6 C 31.5 49.6 30.6 49.9 29.8 50.4 C 29.1 50.9 28.5 51.6 28.2 52.4 C 27.8 53.3 27.7 54.2 27.9 55.1 C 28.1 56 28.5 56.8 29.2 57.4 C 29.8 58 30.6 58.5 31.5 58.6 C 32.4 58.8 33.3 58.7 34.2 58.4 C 35 58 35.7 57.5 36.2 56.7 C 36.7 56 37 55.1 37 54.2 C 37 53 36.5 51.8 35.6 50.9 C 34.7 50.1 33.6 49.6 32.3 49.6 H 32.4 Z" fill="#999999"/>
<path d="M 42.9 59.5 V 48.8 H 45.6 C 47.9 48.8 49.1 50 49.1 51.7 C 49.1 52.5 48.8 53.1 47.9 53.8 C 48.4 54 48.9 54.4 49.2 54.9 C 49.5 55.3 49.7 55.9 49.7 56.5 C 49.7 57.9 48.9 59.5 46.1 59.5 H 42.9 Z M 45.7 53.4 C 47.7 53.4 48 52.2 48 51.6 C 48 50.8 47.6 49.8 45.6 49.8 H 43.9 V 53.5 L 45.7 53.4 Z M 46 58.6 C 47.4 58.6 48.6 58 48.6 56.5 C 48.6 55.3 47.6 54.4 46 54.4 H 43.9 V 58.6 H 46 Z" fill="#999999"/>
<path d="M 62.7 59.5 L 61.1 55.9 H 56.1 L 54.6 59.5 H 53.4 L 58 48.8 H 59.2 L 63.9 59.5 H 62.7 Z M 58.6 50 L 56.5 55 H 60.7 L 58.6 50 Z" fill="#999999"/>
<path d="M 68.3 59.5 V 48.8 H 69.4 V 58.6 H 73.9 V 59.5 L 68.3 59.5 Z" fill="#999999"/>
</svg>
