<svg  width="120" height="55" viewBox="0 0 160 74" fill="none" xmlns="http://www.w3.org/2000/svg">
<path d="M122.187 43.4882C125.788 43.4882 128.708 40.5733 128.708 36.9776C128.708 33.3819 125.788 30.467 122.187 30.467C118.586 30.467 115.667 33.3819 115.667 36.9776C115.667 40.5733 118.586 43.4882 122.187 43.4882Z" fill="#4A87A2"/>
<path d="M122.187 55.561C124.96 55.561 127.208 53.3165 127.208 50.5477C127.208 47.779 124.96 45.5344 122.187 45.5344C119.414 45.5344 117.167 47.779 117.167 50.5477C117.167 53.3165 119.414 55.561 122.187 55.561Z" fill="#0076BA"/>
<path d="M114.64 51.1302C117.168 49.9943 118.296 47.0266 117.159 44.5015C116.021 41.9765 113.049 40.8503 110.52 41.9862C107.991 43.122 106.864 46.0898 108.001 48.6149C109.139 51.1399 112.111 52.2661 114.64 51.1302Z" fill="#66C4EA"/>
<path d="M108.597 41.991C111.37 41.991 113.618 39.7464 113.618 36.9777C113.618 34.2089 111.37 31.9644 108.597 31.9644C105.824 31.9644 103.576 34.2089 103.576 36.9777C103.576 39.7464 105.824 41.991 108.597 41.991Z" fill="#0076BA"/>
<path d="M117.165 29.4462C118.303 26.9212 117.175 23.9534 114.646 22.8175C112.117 21.6817 109.145 22.8078 108.008 25.3329C106.87 27.8579 107.998 30.8257 110.527 31.9616C113.056 33.0974 116.028 31.9713 117.165 29.4462Z" fill="#66C4EA"/>
<path d="M122.187 28.4239C124.96 28.4239 127.208 26.1794 127.208 23.4106C127.208 20.6419 124.96 18.3973 122.187 18.3973C119.414 18.3973 117.167 20.6419 117.167 23.4106C117.167 26.1794 119.414 28.4239 122.187 28.4239Z" fill="#0076BA"/>
<path d="M133.854 31.9418C136.383 30.806 137.511 27.8382 136.374 25.3132C135.236 22.7881 132.264 21.662 129.735 22.7978C127.206 23.9337 126.078 26.9015 127.216 29.4265C128.354 31.9516 131.326 33.0777 133.854 31.9418Z" fill="#66C4EA"/>
<path d="M135.775 41.991C138.548 41.991 140.796 39.7464 140.796 36.9777C140.796 34.2089 138.548 31.9644 135.775 31.9644C133.002 31.9644 130.754 34.2089 130.754 36.9777C130.754 39.7464 133.002 41.991 135.775 41.991Z" fill="#0076BA"/>
<path d="M136.382 48.6367C137.52 46.1116 136.392 43.1438 133.863 42.008C131.334 40.8721 128.362 41.9983 127.225 44.5233C126.087 47.0484 127.215 50.0161 129.744 51.152C132.273 52.2879 135.245 51.1617 136.382 48.6367Z" fill="#66C4EA"/>
<path d="M122.188 65.0234C124.2 65.0234 125.831 63.3946 125.831 61.3854C125.831 59.3762 124.2 57.7474 122.188 57.7474C120.175 57.7474 118.544 59.3762 118.544 61.3854C118.544 63.3946 120.175 65.0234 122.188 65.0234Z" fill="#0076BA"/>
<path d="M112.833 63.1664C114.845 63.1664 116.477 61.5376 116.477 59.5284C116.477 57.5192 114.845 55.8904 112.833 55.8904C110.821 55.8904 109.19 57.5192 109.19 59.5284C109.19 61.5376 110.821 63.1664 112.833 63.1664Z" fill="#7FBC42"/>
<path d="M104.902 57.8755C106.915 57.8755 108.546 56.2467 108.546 54.2375C108.546 52.2283 106.915 50.5995 104.902 50.5995C102.89 50.5995 101.259 52.2283 101.259 54.2375C101.259 56.2467 102.89 57.8755 104.902 57.8755Z" fill="#66C4EA"/>
<path d="M99.6034 49.956C101.616 49.956 103.247 48.3273 103.247 46.3181C103.247 44.3088 101.616 42.6801 99.6034 42.6801C97.5912 42.6801 95.96 44.3088 95.96 46.3181C95.96 48.3273 97.5912 49.956 99.6034 49.956Z" fill="#7FBC42"/>
<path d="M97.7435 40.6156C99.7557 40.6156 101.387 38.9868 101.387 36.9776C101.387 34.9684 99.7557 33.3396 97.7435 33.3396C95.7313 33.3396 94.1001 34.9684 94.1001 36.9776C94.1001 38.9868 95.7313 40.6156 97.7435 40.6156Z" fill="#0076BA"/>
<path d="M99.6034 31.2751C101.616 31.2751 103.247 29.6463 103.247 27.6371C103.247 25.6279 101.616 23.9991 99.6034 23.9991C97.5912 23.9991 95.96 25.6279 95.96 27.6371C95.96 29.6463 97.5912 31.2751 99.6034 31.2751Z" fill="#7FBC42"/>
<path d="M104.902 23.3557C106.915 23.3557 108.546 21.7269 108.546 19.7177C108.546 17.7085 106.915 16.0797 104.902 16.0797C102.89 16.0797 101.259 17.7085 101.259 19.7177C101.259 21.7269 102.89 23.3557 104.902 23.3557Z" fill="#66C4EA"/>
<path d="M112.833 18.0649C114.845 18.0649 116.477 16.4361 116.477 14.4269C116.477 12.4177 114.845 10.7889 112.833 10.7889C110.821 10.7889 109.19 12.4177 109.19 14.4269C109.19 16.4361 110.821 18.0649 112.833 18.0649Z" fill="#7FBC42"/>
<path d="M122.188 16.2079C124.2 16.2079 125.831 14.5791 125.831 12.5699C125.831 10.5607 124.2 8.93188 122.188 8.93188C120.175 8.93188 118.544 10.5607 118.544 12.5699C118.544 14.5791 120.175 16.2079 122.188 16.2079Z" fill="#0076BA"/>
<path d="M131.542 18.0649C133.554 18.0649 135.185 16.4361 135.185 14.4269C135.185 12.4177 133.554 10.7889 131.542 10.7889C129.53 10.7889 127.898 12.4177 127.898 14.4269C127.898 16.4361 129.53 18.0649 131.542 18.0649Z" fill="#7FBC42"/>
<path d="M139.47 23.3557C141.482 23.3557 143.113 21.7269 143.113 19.7177C143.113 17.7085 141.482 16.0797 139.47 16.0797C137.458 16.0797 135.827 17.7085 135.827 19.7177C135.827 21.7269 137.458 23.3557 139.47 23.3557Z" fill="#66C4EA"/>
<path d="M144.772 31.2751C146.784 31.2751 148.415 29.6463 148.415 27.6371C148.415 25.6279 146.784 23.9991 144.772 23.9991C142.759 23.9991 141.128 25.6279 141.128 27.6371C141.128 29.6463 142.759 31.2751 144.772 31.2751Z" fill="#7FBC42"/>
<path d="M146.631 40.6156C148.644 40.6156 150.275 38.9868 150.275 36.9776C150.275 34.9684 148.644 33.3396 146.631 33.3396C144.619 33.3396 142.988 34.9684 142.988 36.9776C142.988 38.9868 144.619 40.6156 146.631 40.6156Z" fill="#0076BA"/>
<path d="M144.772 49.956C146.784 49.956 148.415 48.3273 148.415 46.3181C148.415 44.3088 146.784 42.6801 144.772 42.6801C142.759 42.6801 141.128 44.3088 141.128 46.3181C141.128 48.3273 142.759 49.956 144.772 49.956Z" fill="#7FBC42"/>
<path d="M139.473 57.8755C141.485 57.8755 143.117 56.2467 143.117 54.2375C143.117 52.2283 141.485 50.5995 139.473 50.5995C137.461 50.5995 135.83 52.2283 135.83 54.2375C135.83 56.2467 137.461 57.8755 139.473 57.8755Z" fill="#66C4EA"/>
<path d="M131.542 63.1664C133.554 63.1664 135.185 61.5376 135.185 59.5284C135.185 57.5192 133.554 55.8904 131.542 55.8904C129.53 55.8904 127.898 57.5192 127.898 59.5284C127.898 61.5376 129.53 63.1664 131.542 63.1664Z" fill="#7FBC42"/>
<path d="M122.188 73.9552C123.594 73.9552 124.735 72.8166 124.735 71.412C124.735 70.0074 123.594 68.8688 122.188 68.8688C120.781 68.8688 119.641 70.0074 119.641 71.412C119.641 72.8166 120.781 73.9552 122.188 73.9552Z" fill="#0076BA"/>
<path d="M108.988 71.3358C110.395 71.3358 111.535 70.1971 111.535 68.7925C111.535 67.3879 110.395 66.2493 108.988 66.2493C107.581 66.2493 106.441 67.3879 106.441 68.7925C106.441 70.1971 107.581 71.3358 108.988 71.3358Z" fill="#7FBC42"/>
<path d="M97.8014 63.8708C99.2081 63.8708 100.348 62.7321 100.348 61.3275C100.348 59.9229 99.2081 58.7843 97.8014 58.7843C96.3947 58.7843 95.2544 59.9229 95.2544 61.3275C95.2544 62.7321 96.3947 63.8708 97.8014 63.8708Z" fill="#66C4EA"/>
<path d="M90.3256 52.7006C91.7323 52.7006 92.8726 51.562 92.8726 50.1574C92.8726 48.7528 91.7323 47.6141 90.3256 47.6141C88.9189 47.6141 87.7786 48.7528 87.7786 50.1574C87.7786 51.562 88.9189 52.7006 90.3256 52.7006Z" fill="#7FBC42"/>
<path d="M87.702 39.5209C89.1087 39.5209 90.2491 38.3823 90.2491 36.9777C90.2491 35.5731 89.1087 34.4344 87.702 34.4344C86.2954 34.4344 85.155 35.5731 85.155 36.9777C85.155 38.3823 86.2954 39.5209 87.702 39.5209Z" fill="#0076BA"/>
<path d="M90.3256 26.3442C91.7323 26.3442 92.8726 25.2055 92.8726 23.8009C92.8726 22.3963 91.7323 21.2577 90.3256 21.2577C88.9189 21.2577 87.7786 22.3963 87.7786 23.8009C87.7786 25.2055 88.9189 26.3442 90.3256 26.3442Z" fill="#7FBC42"/>
<path d="M97.8014 15.171C99.2081 15.171 100.348 14.0323 100.348 12.6277C100.348 11.2231 99.2081 10.0845 97.8014 10.0845C96.3947 10.0845 95.2544 11.2231 95.2544 12.6277C95.2544 14.0323 96.3947 15.171 97.8014 15.171Z" fill="#66C4EA"/>
<path d="M108.988 7.70904C110.395 7.70904 111.535 6.57039 111.535 5.1658C111.535 3.76121 110.395 2.62256 108.988 2.62256C107.581 2.62256 106.441 3.76121 106.441 5.1658C106.441 6.57039 107.581 7.70904 108.988 7.70904Z" fill="#7FBC42"/>
<path d="M122.188 5.08648C123.594 5.08648 124.735 3.94784 124.735 2.54324C124.735 1.13865 123.594 0 122.188 0C120.781 0 119.641 1.13865 119.641 2.54324C119.641 3.94784 120.781 5.08648 122.188 5.08648Z" fill="#0076BA"/>
<path d="M135.384 7.70904C136.791 7.70904 137.931 6.57039 137.931 5.1658C137.931 3.76121 136.791 2.62256 135.384 2.62256C133.977 2.62256 132.837 3.76121 132.837 5.1658C132.837 6.57039 133.977 7.70904 135.384 7.70904Z" fill="#7FBC42"/>
<path d="M146.571 15.171C147.977 15.171 149.118 14.0323 149.118 12.6277C149.118 11.2231 147.977 10.0845 146.571 10.0845C145.164 10.0845 144.024 11.2231 144.024 12.6277C144.024 14.0323 145.164 15.171 146.571 15.171Z" fill="#66C4EA"/>
<path d="M154.047 26.3442C155.453 26.3442 156.594 25.2055 156.594 23.8009C156.594 22.3963 155.453 21.2577 154.047 21.2577C152.64 21.2577 151.5 22.3963 151.5 23.8009C151.5 25.2055 152.64 26.3442 154.047 26.3442Z" fill="#7FBC42"/>
<path d="M156.673 39.5209C158.08 39.5209 159.22 38.3823 159.22 36.9777C159.22 35.5731 158.08 34.4344 156.673 34.4344C155.267 34.4344 154.126 35.5731 154.126 36.9777C154.126 38.3823 155.267 39.5209 156.673 39.5209Z" fill="#0076BA"/>
<path d="M154.047 52.7006C155.453 52.7006 156.594 51.562 156.594 50.1574C156.594 48.7528 155.453 47.6141 154.047 47.6141C152.64 47.6141 151.5 48.7528 151.5 50.1574C151.5 51.562 152.64 52.7006 154.047 52.7006Z" fill="#7FBC42"/>
<path d="M146.571 63.8708C147.977 63.8708 149.118 62.7321 149.118 61.3275C149.118 59.9229 147.977 58.7843 146.571 58.7843C145.164 58.7843 144.024 59.9229 144.024 61.3275C144.024 62.7321 145.164 63.8708 146.571 63.8708Z" fill="#66C4EA"/>
<path d="M135.384 71.3358C136.791 71.3358 137.931 70.1971 137.931 68.7925C137.931 67.3879 136.791 66.2493 135.384 66.2493C133.977 66.2493 132.837 67.3879 132.837 68.7925C132.837 70.1971 133.977 71.3358 135.384 71.3358Z" fill="#7FBC42"/>
<path d="M1.27466 42.7198V13.2316H10.0121C13.5639 13.2316 17.1553 14.1068 19.7848 15.8206C23.7764 18.4522 26.1982 23.1392 26.1982 28.1342C26.1982 31.7936 24.7994 35.3462 21.9226 38.2981C19.0457 41.2499 14.8832 42.7198 9.89298 42.7198H1.27466ZM9.65477 40.0515C14.5625 40.0515 17.8364 38.7738 19.9894 36.5019C22.1318 34.1771 23.303 31.1225 23.2633 27.9635C23.2921 26.1111 22.8803 24.2783 22.0616 22.6159C21.2429 20.9534 20.0408 19.5086 18.5541 18.4004C16.4774 16.8055 13.3257 15.8876 9.53567 15.8876H4.24007V40.0393L9.65477 40.0515Z" fill="#042B48" stroke="#042B48" stroke-width="1.5" stroke-miterlimit="10"/>
<path d="M47.5272 42.7198V28.9057H32.242V42.7198H29.2827V13.2316H32.2359V26.2222H47.5211V13.2316H50.4743V42.7198H47.5272Z" fill="#042B48" stroke="#042B48" stroke-width="1.5" stroke-miterlimit="10"/>
<path d="M69.6379 42.7198L59.6208 29.3693H62.4946C67.72 29.3693 70.835 26.701 70.835 22.6757C70.835 19.8855 69.1187 15.8998 62.3328 15.8998H56.7073V42.7198H53.7542V13.2316H62.6534C70.3556 13.2316 73.7882 17.7752 73.7882 22.755C73.7882 27.5365 70.1968 31.324 65.0081 31.7204L73.3485 42.7198H69.6379Z" fill="#042B48" stroke="#042B48" stroke-width="1.5" stroke-miterlimit="10"/>
<path d="M5.15646 55.5763V54.6126H12.4494C12.3225 56.0236 11.667 57.3348 10.6139 58.284C9.56074 59.2333 8.18759 59.7506 6.76896 59.7327C3.81882 59.7327 1 57.3846 1 54.1766C1 51.1027 3.60199 48.6205 6.75369 48.6205C9.16634 48.6205 11.2156 50.1452 11.8386 51.6699H10.5895C10.1799 51.0302 9.61469 50.5045 8.94661 50.1419C8.27853 49.7793 7.52935 49.5916 6.76896 49.5963C5.53757 49.5906 4.35369 50.0704 3.4747 50.9315C2.59572 51.7926 2.09269 52.9654 2.075 54.1949C2.075 56.7899 4.25554 58.769 6.81172 58.769C8.76016 58.769 10.6628 57.4486 11.1575 55.5915L5.15646 55.5763Z" fill="#999999"/>
<path d="M17.4062 59.5345V48.8004H18.4813V58.5586H22.9278V59.5284L17.4062 59.5345Z" fill="#999999"/>
<path d="M32.3581 59.7234C29.4233 59.7234 26.6777 57.3449 26.6777 54.2344C26.7038 52.7502 27.3106 51.335 28.3683 50.2918C29.4261 49.2487 30.8507 48.6604 32.3374 48.6528C33.8241 48.6452 35.2547 49.219 36.323 50.2513C37.3914 51.2837 38.0126 52.6926 38.0538 54.1765C38.0538 57.1985 35.4824 59.7234 32.3581 59.7234ZM32.3581 49.584C31.4556 49.5948 30.5763 49.8717 29.8308 50.3798C29.0852 50.8878 28.5066 51.6045 28.1676 52.4398C27.8286 53.2751 27.7442 54.1918 27.9252 55.0748C28.1061 55.9578 28.5443 56.7678 29.1847 57.403C29.825 58.0382 30.6391 58.4703 31.5245 58.6452C32.41 58.82 33.3275 58.7297 34.1618 58.3857C34.9961 58.0417 35.71 57.4592 36.2139 56.7114C36.7178 55.9636 36.9892 55.0839 36.9941 54.1826C36.9796 52.9585 36.4826 51.7894 35.6109 50.9286C34.7391 50.0678 33.5628 49.5847 32.3368 49.584H32.3581Z" fill="#999999"/>
<path d="M42.8794 59.5345V48.8004H45.628C47.8818 48.8004 49.0851 50.0202 49.0851 51.6577C49.0851 52.5421 48.7797 53.1367 47.9093 53.8198C48.4402 54.027 48.8955 54.3906 49.2146 54.8623C49.5337 55.334 49.7015 55.8914 49.6959 56.4606C49.6959 57.9244 48.8682 59.5345 46.0647 59.5345H42.8794ZM45.6555 53.4356C47.7169 53.4356 48.0223 52.2463 48.0223 51.6242C48.0223 50.8252 47.5581 49.7945 45.5791 49.7945H43.9422V53.4539L45.6555 53.4356ZM45.9883 58.5769C47.3687 58.5769 48.6331 58.025 48.6331 56.4728C48.6331 55.253 47.5733 54.4114 45.9883 54.4114H43.9422V58.5769H45.9883Z" fill="#999999"/>
<path d="M62.6845 59.5345L61.13 55.9239H56.1306L54.5639 59.5345H53.4431L58.0241 48.8004H59.2457L63.8663 59.5345H62.6845ZM58.6471 50.0171L56.5399 54.9511H60.7085L58.6471 50.0171Z" fill="#999999"/>
<path d="M68.3369 59.5345V48.8004H69.4119V58.5586H73.8707V59.5284L68.3369 59.5345Z" fill="#999999"/>
</svg>
