<?xml version="1.0" encoding="UTF-8"?>
<svg width="189px" height="40px" viewBox="0 0 189 40" version="1.1" xmlns="http://www.w3.org/2000/svg" xmlns:xlink="http://www.w3.org/1999/xlink">
    <!-- Generator: Sketch 59 (86127) - https://sketch.com -->
    <title>elements/brand/logo/colour</title>
    <desc>Created with Sketch.</desc>
    <g id="Components" stroke="none" stroke-width="1" fill="none" fill-rule="evenodd">
        <g id="component/nav-header" transform="translate(-75.000000, -25.000000)">
            <g id="elements/brand/logo/colour" transform="translate(75.000000, 25.000000)">
                <path d="M180.614408,34 C180.162217,34 179.910517,33.7200747 179.910517,33.3378845 C179.910517,32.9558948 180.162217,32.675769 180.614408,32.675769 C181.743994,32.675769 182.246406,32.3190448 182.974023,30.3844324 L183.451127,29.1618648 L179.207813,18.1360981 C179.183295,18.0597001 179.157987,17.9325708 179.157987,17.8050403 C179.157987,17.4743836 179.433414,17.1685914 179.835778,17.1685914 C180.137107,17.1685914 180.363301,17.3213872 180.488854,17.6781115 L184.12872,27.2777833 L184.154029,27.2777833 L187.694639,17.6781115 C187.819797,17.3213872 188.046386,17.1685914 188.347517,17.1685914 C188.748497,17.1685914 189,17.4743836 189,17.8050403 C189,17.9325708 188.974692,18.0597001 188.949581,18.1360981 L184.229756,30.5877592 C183.174909,33.4142825 182.32075,34 180.8147,34 L180.614408,34 Z M172.837404,28.7802762 L172.837404,15.8192954 C172.837404,12.9163742 173.765907,12.1014629 176.176733,12.1014629 L176.528678,12.1014629 C176.97988,12.1014629 177.23158,12.3813881 177.23158,12.7635784 C177.23158,13.1455681 176.97988,13.4256938 176.528678,13.4256938 C174.544735,13.4256938 174.193382,13.7310851 174.193382,15.6408331 L174.193382,17.1178599 C174.193382,17.2197238 174.243208,17.2704553 174.344244,17.2704553 L176.604406,17.2704553 C177.030299,17.2704553 177.23158,17.5253156 177.23158,17.8818393 C177.23158,18.2381625 177.030299,18.4930228 176.604406,18.4930228 L174.344244,18.4930228 C174.243208,18.4930228 174.193382,18.5437543 174.193382,18.6454177 L174.193382,28.7802762 C174.193382,29.2639293 173.916769,29.5185891 173.515987,29.5185891 C173.113424,29.5185891 172.837404,29.2639293 172.837404,28.7802762 L172.837404,28.7802762 Z M168.70521,28.7802762 L168.70521,17.9071048 C168.70521,17.4234517 168.98123,17.1685914 169.382804,17.1685914 C169.78497,17.1685914 170.060397,17.4234517 170.060397,17.9071048 L170.060397,28.7802762 C170.060397,29.2639293 169.78497,29.5185891 169.382804,29.5185891 C168.98123,29.5185891 168.70521,29.2639293 168.70521,28.7802762 L168.70521,28.7802762 Z M168.328747,13.0695712 C168.328747,12.4834526 168.805257,12 169.382804,12 C169.960943,12 170.437453,12.4834526 170.437453,13.0695712 C170.437453,13.6548877 169.960943,14.1387413 169.382804,14.1387413 C168.805257,14.1387413 168.328747,13.6548877 168.328747,13.0695712 L168.328747,13.0695712 Z M159.799411,28.7802762 L159.799411,17.9071048 C159.799411,17.4234517 160.07464,17.1685914 160.476214,17.1685914 C160.878578,17.1685914 161.154796,17.4234517 161.154796,17.9071048 L161.154796,19.0785399 L161.179907,19.0785399 C161.631306,17.8561728 162.761684,17.0161965 164.318943,17.0161965 C165.272557,17.0161965 165.900522,17.2704553 166.377032,17.5509821 C166.678558,17.7288429 166.778408,17.9325708 166.778408,18.1617646 C166.778408,18.5437543 166.502586,18.849346 166.101012,18.849346 C166.000767,18.849346 165.875411,18.8236795 165.749858,18.7729481 C165.196829,18.5184888 164.669109,18.340227 164.06744,18.340227 C161.957943,18.340227 161.154796,20.1733765 161.154796,22.4400492 L161.154796,28.7802762 C161.154796,29.2639293 160.878578,29.5185891 160.476214,29.5185891 C160.07464,29.5185891 159.799411,29.2639293 159.799411,28.7802762 L159.799411,28.7802762 Z M155.95075,22.4653147 C156.051588,22.4653147 156.101414,22.4143827 156.101414,22.3123183 C156.101414,21.5994714 156.026478,21.0642847 155.875813,20.5806316 C155.39871,19.0785399 154.218507,18.289295 152.662038,18.289295 C151.104779,18.289295 149.950675,19.0785399 149.473374,20.5806316 C149.32271,21.0642847 149.246784,21.5994714 149.246784,22.3123183 C149.246784,22.4143827 149.297401,22.4653147 149.397646,22.4653147 L155.95075,22.4653147 Z M148.242554,26.4885385 C147.991842,25.7243586 147.866486,24.8843823 147.866486,23.331158 C147.866486,21.8027982 147.991842,20.9630224 148.242554,20.1733765 C148.895037,18.1360981 150.527431,17.0161965 152.662038,17.0161965 C154.820373,17.0161965 156.452569,18.1360981 157.105843,20.1733765 C157.357345,20.9373559 157.482701,21.8539306 157.482701,23.0762977 C157.482701,23.4580869 157.231001,23.7127467 156.854933,23.7127467 L149.397646,23.7127467 C149.297401,23.7127467 149.246784,23.7634781 149.246784,23.8655425 C149.246784,24.8587158 149.297401,25.3680354 149.497892,25.9788178 C150.024821,27.5829741 151.256234,28.347154 152.887639,28.347154 C154.243617,28.347154 155.22254,27.9140318 156.126723,26.9719911 C156.251288,26.8448617 156.42726,26.7175318 156.628344,26.7175318 C156.980289,26.7175318 157.231001,26.9719911 157.231001,27.3034498 C157.231001,27.4813107 157.181373,27.6341065 157.080534,27.7614364 C156.226968,28.8566741 154.795855,29.671385 152.812703,29.671385 C150.502122,29.671385 148.920345,28.5761473 148.242554,26.4885385 L148.242554,26.4885385 Z M134.35653,22.4653147 C134.457566,22.4653147 134.507195,22.4143827 134.507195,22.3123183 C134.507195,21.5994714 134.432258,21.0642847 134.281396,20.5806316 C133.804293,19.0785399 132.624089,18.289295 131.067621,18.289295 C129.510362,18.289295 128.355467,19.0785399 127.878957,20.5806316 C127.728292,21.0642847 127.652762,21.5994714 127.652762,22.3123183 C127.652762,22.4143827 127.703182,22.4653147 127.803229,22.4653147 L134.35653,22.4653147 Z M126.648532,26.4885385 C126.397623,25.7243586 126.272069,24.8843823 126.272069,23.331158 C126.272069,21.8027982 126.397623,20.9630224 126.648532,20.1733765 C127.300817,18.1360981 128.933013,17.0161965 131.067621,17.0161965 C133.226153,17.0161965 134.858151,18.1360981 135.511425,20.1733765 C135.762928,20.9373559 135.888481,21.8539306 135.888481,23.0762977 C135.888481,23.4580869 135.636781,23.7127467 135.260516,23.7127467 L127.803229,23.7127467 C127.703182,23.7127467 127.652762,23.7634781 127.652762,23.8655425 C127.652762,24.8587158 127.703182,25.3680354 127.903474,25.9788178 C128.430404,27.5829741 129.661817,28.347154 131.29342,28.347154 C132.649398,28.347154 133.62832,27.9140318 134.532503,26.9719911 C134.657068,26.8448617 134.833041,26.7175318 135.034124,26.7175318 C135.385872,26.7175318 135.636781,26.9719911 135.636781,27.3034498 C135.636781,27.4813107 135.587153,27.6341065 135.486117,27.7614364 C134.632551,28.8566741 133.200845,29.671385 131.218285,29.671385 C128.907705,29.671385 127.326126,28.5761473 126.648532,26.4885385 L126.648532,26.4885385 Z M140.941467,28.7289432 L135.592887,13.0184387 C135.567578,12.9163742 135.54227,12.7890443 135.54227,12.6871804 C135.54227,12.2795242 135.843598,12 136.246161,12 C136.547291,12 136.798398,12.2035273 136.923557,12.560051 L141.819354,26.9976576 L141.86997,26.9976576 L146.690633,12.560051 C146.816187,12.2035273 147.067689,12 147.369018,12 C147.769998,12 148.071129,12.2795242 148.071129,12.6871804 C148.071129,12.7890443 148.046809,12.9420407 148.021501,13.0184387 L142.673711,28.7289432 C142.497936,29.2639293 142.271346,29.5185891 141.794243,29.5185891 C141.342843,29.5185891 141.117242,29.2639293 140.941467,28.7289432 L140.941467,28.7289432 Z M123.974538,29.5185891 C122.142247,29.5185891 121.488974,28.6529463 121.488974,26.6665998 L121.488974,12.7639794 C121.488974,12.2803263 121.764994,12.025466 122.16716,12.025466 C122.568141,12.025466 122.844161,12.2803263 122.844161,12.7639794 L122.844161,26.6156679 C122.844161,27.8125689 123.170798,28.1941576 124.225645,28.1941576 C124.67744,28.1941576 124.92835,28.4744839 124.92835,28.8566741 C124.92835,29.2382628 124.67744,29.5185891 124.225645,29.5185891 L123.974538,29.5185891 Z M117.571703,26.1572802 C117.822613,25.3680354 117.89834,24.5533245 117.89834,23.331158 C117.89834,22.1338559 117.822613,21.3191451 117.571703,20.5299002 C117.120304,19.1549378 116.040346,18.340227 114.508395,18.340227 C113.001752,18.340227 111.897277,19.0278084 111.419975,20.4535023 C111.220276,21.1154172 111.119438,22.1338559 111.119438,23.331158 C111.119438,24.5533245 111.220276,25.5717632 111.419975,26.2338787 C111.897277,27.659773 113.001752,28.347154 114.508395,28.347154 C116.040346,28.347154 117.120304,27.5322426 117.571703,26.1572802 L117.571703,26.1572802 Z M111.144548,27.8889669 L111.119438,27.8889669 L111.119438,28.7802762 C111.119438,29.2639293 110.843418,29.5185891 110.441251,29.5185891 C110.039677,29.5185891 109.76346,29.2639293 109.76346,28.7802762 L109.76346,12.7383129 C109.76346,12.2546598 110.039677,12 110.441251,12 C110.843418,12 111.119438,12.2546598 111.119438,12.7383129 L111.119438,18.7982136 L111.144548,18.7982136 C111.721304,17.7545094 112.776744,17.0161965 114.734984,17.0161965 C116.768556,17.0161965 118.224779,18.1110331 118.852745,20.0207811 C119.153282,21.0137538 119.278836,21.9559951 119.278836,23.331158 C119.278836,24.7315864 119.153282,25.6736271 118.852745,26.6665998 C118.224779,28.5761473 116.768556,29.671385 114.734984,29.671385 C112.776744,29.671385 111.721304,28.9328715 111.144548,27.8889669 L111.144548,27.8889669 Z M105.77145,28.7802762 L105.77145,27.9396983 L105.746933,27.9396983 C105.069141,29.0345349 103.939555,29.671385 102.25694,29.671385 C99.6205133,29.671385 98.1138709,27.9908308 98.1138709,25.0369776 L98.1138709,17.9071048 C98.1138709,17.4234517 98.3898909,17.1685914 98.7922554,17.1685914 C99.193829,17.1685914 99.4690582,17.4234517 99.4690582,17.9071048 L99.4690582,24.7059199 C99.4690582,27.1249875 100.47408,28.347154 102.558268,28.347154 C104.365646,28.347154 105.77145,27.0485895 105.77145,24.9607802 L105.77145,17.9071048 C105.77145,17.4234517 106.048261,17.1685914 106.449637,17.1685914 C106.851408,17.1685914 107.128219,17.4234517 107.128219,17.9071048 L107.128219,28.7802762 C107.128219,29.2639293 106.851408,29.5185891 106.449637,29.5185891 C106.048261,29.5185891 105.77145,29.2639293 105.77145,28.7802762 L105.77145,28.7802762 Z M94.4844839,26.0808823 C94.710678,25.3933008 94.8109231,24.6549879 94.8109231,23.331158 C94.8109231,22.0321925 94.710678,21.2938796 94.4844839,20.6062981 C94.0079737,19.1549378 92.8528811,18.340227 91.2958195,18.340227 C89.7644618,18.340227 88.609567,19.1549378 88.1324636,20.6062981 C87.9066649,21.2938796 87.8066176,22.0321925 87.8066176,23.331158 C87.8066176,24.6549879 87.9066649,25.3933008 88.1324636,26.0808823 C88.609567,27.5322426 89.7644618,28.347154 91.2958195,28.347154 C92.8528811,28.347154 94.0079737,27.5322426 94.4844839,26.0808823 L94.4844839,26.0808823 Z M86.8267068,26.514205 C86.5759952,25.6992936 86.4259241,24.8079843 86.4259241,23.331158 C86.4259241,21.8791961 86.5759952,20.9882878 86.8267068,20.1733765 C87.4799806,18.1617646 89.1121766,17.0161965 91.2958195,17.0161965 C93.506155,17.0161965 95.13756,18.1617646 95.7906362,20.1733765 C96.0415455,20.9882878 96.1922097,21.8791961 96.1922097,23.331158 C96.1922097,24.8079843 96.0415455,25.6992936 95.7906362,26.514205 C95.13756,28.5254159 93.506155,29.671385 91.2958195,29.671385 C89.1121766,29.671385 87.4799806,28.5254159 86.8267068,26.514205 L86.8267068,26.514205 Z M74.5817768,28.1438272 L77.9966353,28.1438272 C80.557532,28.1438272 81.9135102,27.2781844 82.6164123,25.1133756 C82.9422583,24.0696714 83.068405,23.0762977 83.068405,20.8611585 C83.068405,18.6458187 82.9422583,17.6530465 82.6164123,16.6085403 C81.9135102,14.4445336 80.557532,13.5786902 77.9966353,13.5786902 L74.5817768,13.5786902 C74.4815317,13.5786902 74.4311126,13.6296222 74.4311126,13.7314861 L74.4311126,27.9908308 C74.4311126,28.0928952 74.4815317,28.1438272 74.5817768,28.1438272 L74.5817768,28.1438272 Z M73,12.8911088 C73,12.4579866 73.2770087,12.2035273 73.7029021,12.2035273 L78.1971255,12.2035273 C81.3353708,12.2035273 83.1939586,13.6039557 83.9976989,16.1248872 C84.374755,17.3217883 84.4995176,18.3656929 84.4995176,20.8611585 C84.4995176,23.3568245 84.374755,24.4005286 83.9976989,25.5972292 C83.1939586,28.1181607 81.3353708,29.5185891 78.1971255,29.5185891 L73.7029021,29.5185891 C73.2770087,29.5185891 73,29.2637288 73,28.8310076 L73,12.8911088 Z" id="wordmark" fill="#14113B"></path>
                <path d="M2,34 C0.895351026,34 0,33.0663264 0,31.913958 L0,8.08604201 C0,6.93386993 0.895351026,6 2,6 C3.10464897,6 4,6.93386993 4,8.08604201 L4,31.913958 C4,33.0663264 3.10464897,34 2,34" id="D-1" fill="#00B2A9"></path>
                <path d="M10.850511,34 L8.10780537,34 C6.9437224,34 6,33.0666078 6,31.9145867 C6,30.7627619 6.9437224,29.8293697 8.10780537,29.8293697 L10.850511,29.8293697 C16.3281868,29.8293697 20.7845876,25.4198961 20.7845876,20.0004906 C20.7845876,14.5804964 16.3281868,10.1710228 10.850511,10.1710228 L8.10780537,10.1710228 C6.9437224,10.1710228 6,9.23723812 6,8.08541329 C6,6.93358847 6.9437224,6 8.10780537,6 L10.850511,6 C18.6525842,6 25,12.2805756 25,20.0004906 C25,27.7198169 18.6525842,34 10.850511,34" id="D-2" fill="#34B233"></path>
                <path d="M39.9532775,34 C39.1819671,34 38.4436056,33.5542045 38.0960053,32.7947228 L27.1922627,8.96772722 C26.7144086,7.92361167 27.1579651,6.682608 28.183039,6.19578594 C29.2077276,5.70916017 30.4258701,6.16084468 30.9039168,7.20515652 L41.8078521,31.0321521 C42.2855134,32.0762676 41.841957,33.317075 40.8170757,33.8042897 C40.5374926,33.936988 40.2428801,34 39.9532775,34" id="V-1" fill="#C70099"></path>
                <path d="M43.8251259,26 C43.5435326,26 43.2580101,25.9368863 42.9861462,25.8035806 C41.9909337,25.3157763 41.5604047,24.0725733 42.0246127,23.0267728 L49.0472319,7.20685252 C49.5118141,6.16105199 50.694506,5.70824534 51.6895314,6.19663949 C52.6847439,6.68424718 53.1150859,7.92745017 52.6508779,8.97325069 L45.6282587,24.7933676 C45.290908,25.5532884 44.5739209,26 43.8251259,26" id="V-2" fill="#6E2CA9"></path>
                <polygon id="line-break" fill="#14113B" points="63 40 63.5 40 63.5 0 63 0"></polygon>
            </g>
        </g>
    </g>
</svg>