<?xml version="1.0" encoding="UTF-8"?><svg id="Layer_2" xmlns="http://www.w3.org/2000/svg" viewBox="0 0 600 122.33"><defs><style>.cls-1{fill:#0066f8;}</style></defs><g id="Warstwa_1"><g><path class="cls-1" d="M6.62,97.9c-1.82,0-3.45-.66-4.7-1.92-1.25-1.25-1.92-2.88-1.92-4.7V34.92c0-1.89,.67-3.54,1.95-4.77,1.26-1.21,2.87-1.85,4.67-1.85h15.07c6.64,0,12.66,1.5,17.87,4.46,5.23,2.98,9.36,7.15,12.28,12.41,2.9,5.23,4.37,11.25,4.37,17.88s-1.47,12.66-4.36,17.92c-2.91,5.29-7.05,9.48-12.28,12.46-5.21,2.96-11.22,4.46-17.87,4.46H6.62Zm15.07-12.24c4.18,0,7.95-.96,11.21-2.85,3.29-1.91,5.78-4.52,7.62-7.97,1.84-3.45,2.77-7.41,2.77-11.79s-.93-8.32-2.77-11.74c-1.81-3.38-4.38-6.04-7.62-7.93-3.26-1.89-7.04-2.86-11.21-2.86H13.24v45.13h8.45Z"/><path class="cls-1" d="M117.44,97.9c-2.4,0-4.36-1.09-5.68-3.14l-13.66-21.92h-8.6v18.44c0,1.8-.64,3.42-1.85,4.67-1.23,1.27-2.88,1.95-4.77,1.95s-3.45-.66-4.7-1.92c-1.25-1.25-1.92-2.88-1.92-4.7V34.92c0-1.89,.67-3.54,1.95-4.77,1.26-1.21,2.87-1.85,4.67-1.85h14.99c4.46,0,8.54,.96,12.1,2.85,3.62,1.92,6.47,4.65,8.48,8.12,2,3.45,3.01,7.42,3.01,11.8s-1.13,8.33-3.37,11.75c-1.76,2.7-4.05,4.89-6.83,6.54l11.44,18.39c.78,1.25,1.18,2.59,1.18,3.96,0,1.71-.62,3.24-1.8,4.41-1.17,1.17-2.78,1.79-4.66,1.79Zm-19.57-37.63c3.23,0,5.79-.86,7.82-2.64,1.94-1.7,2.88-3.84,2.88-6.56,0-3.04-.97-5.44-2.96-7.33-2.02-1.93-4.55-2.86-7.74-2.86h-8.37v19.4h8.37Z"/><path class="cls-1" d="M151.62,97.9c-1.82,0-3.45-.66-4.7-1.92-1.25-1.25-1.92-2.88-1.92-4.7V34.92c0-1.89,.67-3.54,1.95-4.77,1.26-1.21,2.87-1.85,4.67-1.85s3.51,.65,4.74,1.87c1.23,1.23,1.88,2.87,1.88,4.74v56.37c0,1.8-.64,3.42-1.85,4.67-1.23,1.27-2.88,1.95-4.77,1.95Z"/><path class="cls-1" d="M207.4,97.9c-2.67,0-4.8-1.45-6-4.09l-24.43-55.86-.02-.05c-.55-1.44-.82-2.66-.82-3.73,0-2.21,.97-3.56,1.78-4.31,1.13-1.04,2.62-1.56,4.42-1.56,2.86,0,5.03,1.42,6.11,3.99l18.89,45.27,19.18-45.25c.57-1.46,1.4-2.52,2.45-3.15,.97-.57,2.17-.86,3.58-.86,1.82,0,3.32,.55,4.46,1.64,1.14,1.1,1.75,2.56,1.75,4.23,0,.98-.23,2.01-.68,3.07l-24.64,56.51c-1.07,2.68-3.21,4.16-6.03,4.16Z"/><path class="cls-1" d="M392.13,27.59c.52-.52,1.17-.78,1.96-.78,.73,0,1.37,.26,1.92,.78,.55,.52,.82,1.17,.82,1.96V95.38c0,.79-.27,1.45-.82,1.96-.55,.52-1.19,.78-1.92,.78-.85,0-1.52-.27-2.01-.82l-46.47-60.44v58.52c0,.79-.26,1.45-.78,1.96-.52,.52-1.17,.78-1.96,.78s-1.45-.26-1.96-.78c-.52-.51-.78-1.17-.78-1.96V29.55c0-.79,.26-1.45,.78-1.96,.52-.52,1.17-.78,1.96-.78,.85,0,1.55,.31,2.1,.91l46.38,60.35V29.55c0-.79,.26-1.45,.78-1.96Z"/><path class="cls-1" d="M469.58,93.46c.55,.55,.82,1.19,.82,1.92,0,.79-.27,1.45-.82,1.96-.55,.52-1.19,.78-1.92,.78h-43.91c-.79,0-1.45-.26-1.96-.78-.52-.51-.78-1.17-.78-1.96V29.55c0-.79,.26-1.45,.78-1.96,.52-.52,1.17-.78,1.96-.78h43.91c.73,0,1.37,.26,1.92,.78,.55,.52,.82,1.17,.82,1.96,0,.73-.27,1.37-.82,1.92-.55,.55-1.19,.82-1.92,.82h-41.17v27.39h30.22c.79,0,1.44,.26,1.96,.78,.52,.52,.78,1.17,.78,1.96s-.26,1.46-.78,2.01c-.52,.55-1.17,.82-1.96,.82h-30.22v27.39h41.17c.73,0,1.37,.27,1.92,.82Z"/><path class="cls-1" d="M543.49,27.5c.46,.46,.69,1.05,.69,1.78s-.23,1.32-.69,1.78c-.46,.46-1.05,.69-1.78,.69h-23.1v63.63c0,.79-.26,1.45-.78,1.96-.52,.52-1.17,.78-1.96,.78s-1.45-.26-1.96-.78c-.52-.51-.78-1.17-.78-1.96V31.74h-23.1c-.73,0-1.32-.23-1.78-.69-.46-.46-.69-1.05-.69-1.78s.23-1.32,.69-1.78c.46-.46,1.05-.68,1.78-.68h51.67c.73,0,1.32,.23,1.78,.68Z"/><path class="cls-1" d="M589.04,29.09c3.71,2.13,6.45,4.69,8.22,7.67,.24,.43,.37,.91,.37,1.46,0,.49-.14,.93-.41,1.32-.27,.4-.66,.72-1.14,.96-.25,.12-.61,.18-1.1,.18-1.1,0-1.95-.46-2.56-1.37-3.59-5.29-8.8-7.94-15.61-7.94-5.05,0-8.99,1.14-11.82,3.42-2.83,2.28-4.25,5.47-4.25,9.54,0,3.41,1.4,6.27,4.2,8.58,2.8,2.32,7.12,3.96,12.96,4.93,7.67,1.28,13.27,3.64,16.8,7.08,3.53,3.44,5.3,7.96,5.3,13.56,0,4.2-.93,7.85-2.78,10.96-1.86,3.11-4.47,5.48-7.85,7.12-3.38,1.64-7.29,2.46-11.73,2.46-5.72,0-10.68-1.17-14.88-3.51-4.2-2.34-7.33-5.55-9.4-9.63-.18-.37-.27-.73-.27-1.1,0-.73,.26-1.34,.78-1.83,.52-.49,1.2-.73,2.05-.73,1.22,0,2.1,.58,2.65,1.73,1.64,3.04,4.09,5.4,7.35,7.08,3.25,1.67,7.17,2.51,11.73,2.51,5.23,0,9.36-1.31,12.37-3.93,3.01-2.62,4.52-6.33,4.52-11.14,0-4.14-1.48-7.56-4.43-10.27-2.95-2.71-7.32-4.46-13.1-5.25-6.76-.97-12.07-3.18-15.93-6.62-3.87-3.44-5.8-7.62-5.8-12.55,0-3.53,.9-6.65,2.69-9.36,1.8-2.71,4.32-4.81,7.58-6.3,3.25-1.49,7.01-2.24,11.27-2.24s8.52,1.06,12.23,3.19Z"/><path class="cls-1" d="M318.58,93.54c-.49-.54-1.13-.81-1.91-.81h-33.87l-2.44,5.58h36.31c.78,0,1.41-.26,1.91-.78,.49-.52,.74-1.19,.74-2.01s-.25-1.45-.74-1.99Z"/><path class="cls-1" d="M318.58,60.92c-.49-.54-1.13-.81-1.91-.81h-19.56l-2.44,5.58h21.99c.78,0,1.41-.26,1.91-.78,.49-.52,.74-1.19,.74-2.01s-.25-1.45-.74-1.99Z"/><path class="cls-1" d="M318.31,27.62c-.49-.54-1.13-.81-1.91-.81h-5.43l-2.44,5.58h7.87c.78,0,1.41-.26,1.91-.78,.49-.52,.74-1.19,.74-2.01s-.25-1.45-.74-1.99Z"/><path class="cls-1" d="M265.32,97.83h2.19l5.36-12.45h-7.55c-1.71,0-3.24,.62-4.42,1.8-1.18,1.18-1.81,2.71-1.81,4.42s.63,3.32,1.83,4.49c1.18,1.14,2.7,1.74,4.39,1.74Z"/><path class="cls-1" d="M265.32,68.83h14.67l5.36-12.45h-20.02c-1.71,0-3.24,.62-4.42,1.8-1.18,1.18-1.81,2.71-1.81,4.42s.63,3.33,1.83,4.48c1.18,1.14,2.7,1.74,4.39,1.74Z"/><path class="cls-1" d="M265.32,39.84c-1.69,0-3.21-.6-4.39-1.74-1.2-1.16-1.83-2.71-1.83-4.48s.63-3.24,1.81-4.42c1.18-1.18,2.71-1.8,4.42-1.8h34.99l-5.36,12.45h-29.63Z"/><path class="cls-1" d="M288.23,62.43c-14.49,33.78-29.19,59.9-29.19,59.9,0,0,8.81-28.65,23.3-62.43C296.83,26.12,311.53,0,311.53,0c0,0-8.81,28.65-23.3,62.43Z"/></g></g></svg>