<svg width="114" height="24" viewBox="0 0 114 24" fill="none" xmlns="http://www.w3.org/2000/svg">
<path d="M18.0929 0H11.8175C10.1517 0 8.80176 1.34858 8.80176 3.01266C8.80176 4.67673 10.1517 6.02531 11.8175 6.02531H18.0944C19.7602 6.02531 21.1101 4.67673 21.1101 3.01266C21.1101 1.34858 19.7587 0 18.0929 0Z" fill="#002580"/>
<path d="M4.99444 5.49811L6.23571 4.25813C6.92465 3.5699 6.92465 2.45611 6.23571 1.76788L4.99444 0.527891C4.3055 -0.160339 3.19057 -0.160339 2.50163 0.527891L1.26036 1.76788C0.571417 2.45611 0.571417 3.5699 1.26036 4.25813L2.50163 5.49811C3.19057 6.18634 4.3055 6.18634 4.99444 5.49811Z" fill="#0050FF"/>
<path d="M5.8303 18.4402L7.19496 20.8013C7.90153 22.0237 7.01868 23.5513 5.60555 23.5513H2.87623C1.46309 23.5513 0.58025 22.0237 1.28682 20.8013L2.65148 18.4402C3.35805 17.2178 5.12373 17.2178 5.8303 18.4402L7.19496 20.8013C7.90153 22.0237 7.01868 23.5513 5.60555 23.5513H2.87623C1.46309 23.5513 0.58025 22.0237 1.28682 20.8013L2.65148 18.4402C3.35805 17.2178 5.12373 17.2178 5.8303 18.4402Z" fill="#FFB836"/>
<path d="M18.2783 14.6374C19.9155 14.6374 21.2427 13.3116 21.2427 11.6761C21.2427 10.0407 19.9155 8.71484 18.2783 8.71484C16.6412 8.71484 15.314 10.0407 15.314 11.6761C15.314 13.3116 16.6412 14.6374 18.2783 14.6374Z" fill="#FF7D64"/>
<path d="M10.3297 8.61328H4.05435C2.38855 8.61328 1.03711 9.96186 1.03711 11.6259C1.03711 13.29 2.38708 14.6386 4.05288 14.6386H10.3297C11.9955 14.6386 13.3455 13.29 13.3455 11.6259C13.3455 9.96186 11.9955 8.61328 10.3297 8.61328Z" fill="#002580"/>
<path d="M18.4513 17.5781H12.1745C10.5087 17.5781 9.15869 18.9267 9.15869 20.5908C9.15869 22.2549 10.5087 23.6034 12.1745 23.6034H18.4513C20.1171 23.6034 21.4671 22.2549 21.4671 20.5908C21.4671 18.9282 20.1171 17.5781 18.4513 17.5781Z" fill="#002580"/>
<path d="M29.3408 4.25391H37.8079V6.85128H32.0584V10.0547H37.8079V12.6521H32.0584V15.9142H37.8079V18.5116H29.3408V4.25391Z" fill="#002580"/>
<path d="M38.8242 13.6296C38.8242 10.1723 41.367 8.55078 43.5763 8.55078C44.8469 8.55078 45.8444 9.0189 46.4892 9.70272V8.74595H49.1686V18.5132H46.4892V17.42C45.8444 18.1816 44.8073 18.7099 43.5366 18.7099C41.4639 18.7084 38.8242 17.0678 38.8242 13.6296ZM46.5671 13.6091C46.5671 12.1636 45.5109 10.9911 44.064 10.9911C42.5774 10.9911 41.4434 12.1049 41.4434 13.6091C41.4434 15.1132 42.5774 16.246 44.064 16.246C45.5109 16.246 46.5671 15.0545 46.5671 13.6091Z" fill="#002580"/>
<path d="M49.9502 16.0722L52.5121 15.0758C52.8646 15.9739 53.6064 16.4038 54.5657 16.4038C55.4456 16.4038 55.9156 15.993 55.9156 15.5248C55.9156 14.998 54.9579 14.841 53.8238 14.6268C52.064 14.3142 50.3042 13.7082 50.3042 11.6185C50.3042 9.97792 51.8877 8.51195 54.313 8.55157C56.5032 8.55157 57.7548 9.44964 58.4584 10.8173L56.0919 11.8137C55.8378 11.1695 55.1723 10.7395 54.2924 10.7395C53.4125 10.7395 53.0218 11.1108 53.0218 11.5407C53.0218 11.9707 53.5888 12.1263 55.0548 12.4197C56.6971 12.7514 58.5935 13.3384 58.5935 15.4471C58.5935 16.8734 57.2641 18.7488 54.4481 18.7092C52.0816 18.7092 50.6538 17.7906 49.9502 16.0722Z" fill="#002580"/>
<path d="M63.109 18.0834L59.2178 8.74609H62.0338L64.4384 14.7626L66.6874 8.74609H69.4637L63.7936 23.0258H61.1142L63.109 18.0834Z" fill="#002580"/>
<path d="M69.7959 16.1488L72.2799 14.1957C72.9835 15.4063 74.0985 16.1107 75.3691 16.1107C76.7573 16.1107 77.5006 15.2126 77.5006 14.2353C77.5006 13.0628 76.0728 12.6916 74.548 12.2234C72.631 11.6379 70.4995 10.8954 70.4995 8.16009C70.4995 5.87529 72.4944 4.05859 75.2516 4.05859C77.5784 4.05859 78.9078 4.93759 80.0624 6.12915L77.8135 7.82845C77.2273 6.94945 76.3856 6.47987 75.2707 6.47987C74.0001 6.47987 73.3155 7.1637 73.3155 8.06177C73.3155 9.15502 74.6846 9.52628 76.2094 10.034C78.1454 10.6591 80.3357 11.5191 80.3357 14.2529C80.3357 16.5186 78.5362 18.7066 75.3882 18.7066C72.8073 18.7081 71.0871 17.6133 69.7959 16.1488Z" fill="#002580"/>
<path d="M81.1567 13.6296C81.1567 10.8165 83.4248 8.55078 86.2408 8.55078C89.2331 8.55078 91.2852 10.7974 91.2852 13.6105V14.5878H83.7377C84.0506 15.662 84.9305 16.3649 86.3378 16.3649C87.413 16.3649 88.312 15.7794 88.7424 14.8417L90.8739 16.111C90.0337 17.6342 88.4883 18.7084 86.3172 18.7084C83.2676 18.7084 81.1567 16.4427 81.1567 13.6296ZM83.8552 12.438H88.5867C88.2342 11.4226 87.3939 10.8943 86.2599 10.8943C85.1259 10.8943 84.2651 11.5194 83.8552 12.438Z" fill="#002580"/>
<path d="M92.3794 8.74742H95.0382V9.84066C95.664 9.03944 96.6217 8.55078 97.7367 8.55078C100.044 8.55078 101.433 10.0358 101.433 12.5554V18.5132H98.715V12.9076C98.715 11.5987 98.1083 10.8371 96.9155 10.8371C95.899 10.8371 95.0573 11.54 95.0573 13.1806V18.5132H92.3779V8.74742H92.3794Z" fill="#002580"/>
<path d="M102.508 13.6309C102.508 10.1736 105.051 8.55204 107.26 8.55204C108.531 8.55204 109.528 9.02015 110.173 9.70398V4.25391H112.852V18.5145H110.173V17.4213C109.528 18.1829 108.491 18.7111 107.22 18.7111C105.148 18.7097 102.508 17.0691 102.508 13.6309ZM110.252 13.6103C110.252 12.1649 109.196 10.9924 107.749 10.9924C106.262 10.9924 105.128 12.1062 105.128 13.6103C105.128 15.1144 106.262 16.2473 107.749 16.2473C109.196 16.2473 110.252 15.0557 110.252 13.6103Z" fill="#002580"/>
</svg>
