<svg id="logo" xmlns="http://www.w3.org/2000/svg" xmlns:xlink="http://www.w3.org/1999/xlink" width="241.6" height="26.1" viewBox="0 0 241.6 26.14">
						<defs>
							<clipPath id="clip-path">
								<path id="Clip_32" data-name="Clip 32" d="M 0 0 H 10.4 V 14.9 H 0 Z" fill="none"></path>
							</clipPath>
						</defs>
						<path id="Fill_1" data-name="Fill 1" d="M 9.7 0 H 0 V 5.3 H 13.2 V 3.5 A 3.5 3.5 0 0 0 9.7 0" transform="translate(15.6)" fill="black"></path>
						<path id="Fill_3" data-name="Fill 3" d="M 2.6 5.3 H 7.7 v 5.2 H 0 v 5.2 H 9.7 a 3.5 3.5 0 0 0 3.5 -3.5 V 0 H 2.6 Z" transform="translate(15.6,10.5)" fill="black"></path>
						<path id="Fill_5" data-name="Fill 5" d="M 5.4 20.9 V 15.8 H 15.6 V 10.5 H 5.4 V 5.3 H 15.6 V 0 H 3.5 A 3.5 3.5 0 0 0 0 3.5 V 22.7 a 3.5 3.5 0 0 0 3.5 3.5 H 15.6 V 20.9 Z" fill="black"></path>
						<path id="Fill_7" data-name="Fill 7" d="M 0 14.9 V 0 H 9.4 V 2.2 H 2.3 V 6.1 H 8.2 V 8.4 H 2.3 v 4.3 H 9.4 v 2.2 Z" transform="translate(41.6,5.6)" fill="black"></path>
						<path id="Fill_9" data-name="Fill 9" d="M 0 14.9 V 0 H 9.7 V 2.2 H 2.3 V 6.4 h 6.4 V 8.6 H 2.3 v 6.3 Z" transform="translate(55.7,5.6)" fill="black"></path>
						<path id="Fill_11" data-name="Fill 11" d="M 0 14.9 V 0 H 9.7 V 2.2 H 2.3 V 6.4 H 8.7 V 8.6 H 2.3 v 6.3 Z" transform="translate(69.5,5.6)" fill="black"></path>
						<path id="Fill_13" data-name="Fill 13" d="M 0 14.9 V 0 H 9.4 V 2.2 H 2.3 V 6.1 H 8.2 V 8.4 H 2.3 v 4.3 H 9.4 v 2.2 Z" transform="translate(83.4,5.6)" fill="black"></path>
						<path id="Fill_15" data-name="Fill 15" d="M 7.1 15.3 a 6.8 6.8 0 0 1 -6.2 -3.7 a 8.4 8.4 0 0 1 -0.9 -4 A 7.6 7.6 0 0 1 2.1 2.2 A 7.1 7.1 0 0 1 9.4 0.3 a 7.1 7.1 0 0 1 1.9 0.9 a 5.7 5.7 0 0 1 1.4 1.3 l -1.5 1.6 a 5.4 5.4 0 0 0 -3.8 -1.9 a 4.7 4.7 0 0 0 -2.5 0.7 a 5 5 0 0 0 -1.8 1.9 a 5.6 5.6 0 0 0 -0.7 2.7 a 5.9 5.9 0 0 0 0.6 2.8 a 4.7 4.7 0 0 0 1.8 1.9 a 5.3 5.3 0 0 0 2.7 0.7 a 5 5 0 0 0 2 -0.4 a 5.2 5.2 0 0 0 1.7 -1.2 l 1.1 1.9 a 4.7 4.7 0 0 1 -1.3 1 a 7.6 7.6 0 0 1 -1.9 0.7 a 8.2 8.2 0 0 1 -2.1 0.3" transform="translate(96.5,5.4)" fill="black"></path>
						<path id="Fill_17" data-name="Fill 17" d="M 4.2 14.9 V 2.2 H 0 V 0 H 10.8 V 2.2 H 6.5 V 14.9 Z" transform="translate(111.7,5.6)" fill="black"></path>
						<path id="Fill_19" data-name="Fill 19" d="M 6 15.1 a 6.1 6.1 0 0 1 -3.1 -0.8 a 5.5 5.5 0 0 1 -2.1 -2.1 a 5.8 5.8 0 0 1 -0.8 -3 V 0.1 h 2.3 v 9 a 3.8 3.8 0 0 0 0.5 2 a 3.9 3.9 0 0 0 1.4 1.4 a 3.5 3.5 0 0 0 1.8 0.5 a 3.7 3.7 0 0 0 1.9 -0.6 A 3.9 3.9 0 0 0 9.3 11 a 3.8 3.8 0 0 0 0.5 -2 V 0 h 2.2 V 9.2 a 5.8 5.8 0 0 1 -0.8 3 a 5.5 5.5 0 0 1 -2.1 2.1 a 6.1 6.1 0 0 1 -3 0.8" transform="translate(126.1,5.5)" fill="black"></path>
						<path id="Fill_21" data-name="Fill 21" d="M 5.6 15.3 A 6.4 6.4 0 0 1 0 12.5 l 1.6 -1.8 a 7.2 7.2 0 0 0 2 2.1 a 4.4 4.4 0 0 0 2.3 0.6 a 3.7 3.7 0 0 0 2 -0.6 a 1.6 1.6 0 0 0 0.8 -1.4 a 1.9 1.9 0 0 0 -0.8 -1.6 a 6.4 6.4 0 0 0 -2.6 -1 Q 0.7 7.8 0.7 4.2 a 3.6 3.6 0 0 1 0.7 -2.1 A 4.7 4.7 0 0 1 3.3 0.6 A 6.1 6.1 0 0 1 5.9 0 a 5.4 5.4 0 0 1 5 2.6 l -1.6 1.6 a 4.8 4.8 0 0 0 -1.5 -1.6 a 3.6 3.6 0 0 0 -2 -0.6 a 3.3 3.3 0 0 0 -2 0.6 A 1.8 1.8 0 0 0 3 4.1 a 1.8 1.8 0 0 0 0.7 1.5 a 5.8 5.8 0 0 0 2.4 0.9 A 8.4 8.4 0 0 1 9.7 8.1 a 3.3 3.3 0 0 1 1.3 2.6 a 4.2 4.2 0 0 1 -1.4 3.4 a 5.9 5.9 0 0 1 -3.9 1.3" transform="translate(141.9,5.4)" fill="black"></path>
						<path id="Fill_23" data-name="Fill 23" d="M 7.7 15.2 a 7.7 7.7 0 0 1 -3 -0.6 a 7.6 7.6 0 0 1 -2.5 -1.6 a 7.3 7.3 0 0 1 -1.6 -2.4 a 7.9 7.9 0 0 1 0 -6 a 7.4 7.4 0 0 1 4.1 -4 A 8 8 0 0 1 9.9 0.3 a 7.3 7.3 0 0 1 1.9 0.9 a 5.9 5.9 0 0 1 1.4 1.3 l -1.5 1.6 a 5.9 5.9 0 0 0 -4.1 -1.9 a 5.3 5.3 0 0 0 -2.7 0.7 a 5.2 5.2 0 0 0 -1.9 1.9 a 5.3 5.3 0 0 0 -0.7 2.7 a 5.2 5.2 0 0 0 0.4 2.1 a 5.6 5.6 0 0 0 1.2 1.7 a 6 6 0 0 0 1.8 1.2 a 5.3 5.3 0 0 0 2.1 0.4 a 4.9 4.9 0 0 0 2 -0.4 a 3.9 3.9 0 0 0 1.5 -1.1 a 2.6 2.6 0 0 0 0.6 -1.6 v -0.1 H 7.6 V 7.4 h 6.6 a 5.8 5.8 0 0 1 0.1 0.7 v 0.6 a 6.6 6.6 0 0 1 -0.9 3.4 a 6.3 6.3 0 0 1 -2.4 2.3 a 6.8 6.8 0 0 1 -3.4 0.8" transform="translate(162.7,5.5)" fill="black"></path>
						<path id="Fill_25" data-name="Fill 25" d="M 2.3 14.9 h 0 L 0 14.9 V 0 H 6.4 A 4.6 4.6 0 0 1 8.7 0.6 a 4.8 4.8 0 0 1 1.7 1.7 a 4.7 4.7 0 0 1 0.6 2.4 a 4.2 4.2 0 0 1 -0.8 2.5 A 4.9 4.9 0 0 1 8.2 8.9 l 3.5 6 l -2.8 0 L 5.7 9.3 H 2.3 v 5.6 Z M 2.3 2.2 L 2.3 7.1 H 6.6 A 2 2 0 0 0 8.1 6.4 A 2.4 2.4 0 0 0 8.7 4.7 A 2.3 2.3 0 0 0 7.9 2.9 a 2.8 2.8 0 0 0 -1.9 -0.7 c 0 0 -0.1 0 -0.1 0 Z" transform="translate(181.1,5.6)" fill="black"></path>
						<path id="Fill_27" data-name="Fill 27" d="M 7.2 15.3 A 7.2 7.2 0 0 1 4.4 14.7 a 7 7 0 0 1 -2.3 -1.6 A 7.2 7.2 0 0 1 0.6 10.7 a 8.7 8.7 0 0 1 0 -6.1 A 7.1 7.1 0 0 1 2.1 2.1 A 7 7 0 0 1 4.4 0.6 a 7.7 7.7 0 0 1 5.8 0 a 6.9 6.9 0 0 1 2.3 1.6 A 7.2 7.2 0 0 1 14.1 4.6 a 8.3 8.3 0 0 1 0.5 3 a 8.3 8.3 0 0 1 -0.5 3 A 7.2 7.2 0 0 1 12.5 13 a 6.9 6.9 0 0 1 -2.3 1.6 a 7.2 7.2 0 0 1 -2.9 0.7 Z M 7.3 2.2 a 5 5 0 0 0 -2.6 0.7 A 4.9 4.9 0 0 0 3 4.8 a 6 6 0 0 0 -0.6 2.8 a 6 6 0 0 0 0.6 2.8 a 4.9 4.9 0 0 0 1.8 1.9 a 4.7 4.7 0 0 0 2.5 0.7 h 0.2 a 4.7 4.7 0 0 0 2.5 -0.7 a 4.8 4.8 0 0 0 1.8 -1.9 a 6 6 0 0 0 0.6 -2.8 a 5.9 5.9 0 0 0 -0.6 -2.8 A 4.8 4.8 0 0 0 9.8 2.9 A 5 5 0 0 0 7.3 2.2 Z" transform="translate(195.6,5.4)" fill="black"></path>
						<path id="Fill_29" data-name="Fill 29" d="M 6 15 a 6.1 6.1 0 0 1 -3.1 -0.8 a 5.5 5.5 0 0 1 -2.1 -2.1 a 5.8 5.8 0 0 1 -0.8 -3 V 0 H 2.3 V 9 a 3.8 3.8 0 0 0 0.5 2 a 3.9 3.9 0 0 0 1.4 1.4 A 3.5 3.5 0 0 0 6 12.9 a 3.7 3.7 0 0 0 1.9 -0.5 A 3.8 3.8 0 0 0 9.3 11 A 3.8 3.8 0 0 0 9.8 9 V 0 h 2.2 V 9.2 a 5.8 5.8 0 0 1 -0.8 3 a 5.5 5.5 0 0 1 -2.1 2.1 a 6.2 6.2 0 0 1 -3.1 0.8" transform="translate(214.2,5.6)" fill="black"></path>
						<g id="Group_33" data-name="Group 33" transform="translate(231.2,5.6)">
							<path id="Clip_32-2" data-name="Clip 32" d="M 0 0 H 10.4 V 14.9 H 0 Z" fill="none"></path>
							<g id="Group_33-2" data-name="Group 33" clip-path="url(#clip-path)">
								<path id="Fill_31" data-name="Fill 31" d="M 2.3 14.9 H 0 V 0 H 6.1 A 4.1 4.1 0 0 1 8.3 0.6 A 4.5 4.5 0 0 1 9.8 2.3 a 4.6 4.6 0 0 1 0.6 2.3 a 4.6 4.6 0 0 1 -0.6 2.3 a 4.7 4.7 0 0 1 -1.6 1.7 a 4.1 4.1 0 0 1 -2.2 0.6 H 2.3 v 5.7 Z M 2.2 2.2 L 2.3 7 H 6 a 1.8 1.8 0 0 0 1 -0.3 a 2.5 2.5 0 0 0 1 -2.1 A 2.4 2.4 0 0 0 7.4 2.9 a 1.9 1.9 0 0 0 -1.5 -0.7 Z" fill="black"></path>
							</g>
						</g>
					</svg>