<svg width="66" height="21" viewBox="0 0 66 21" fill="none" xmlns="http://www.w3.org/2000/svg">
<path d="M45.0195 6.23566C45.0195 2.55675 47.6337 0 51.2255 0C54.8172 0 57.4314 2.55675 57.4314 6.23566V14.7622C57.4314 15.4288 57.6491 16.0031 58.0329 16.4136C58.4173 16.8249 58.9516 17.0531 59.544 17.0531C60.1365 17.0531 60.6707 16.8249 61.0552 16.4136C61.439 16.0031 61.6567 15.4288 61.6567 14.7622V0.297091H65.75V14.5542C65.75 18.0866 63.1635 20.7305 59.544 20.7305C55.9533 20.7305 53.3381 18.0856 53.3381 14.5542V5.93856C53.3381 5.27193 53.1204 4.69767 52.7367 4.28713C52.3522 3.87581 51.8179 3.6477 51.2255 3.6477C50.6331 3.6477 50.0988 3.87581 49.7143 4.28713C49.3305 4.69767 49.1129 5.27193 49.1129 5.93856V20.4334H45.0195V6.23566Z" fill="black"/>
<path fill-rule="evenodd" clip-rule="evenodd" d="M20.375 10.3652C20.375 4.63599 24.8315 0 30.9482 0C37.0648 0 41.5214 4.63599 41.5214 10.3652C41.5214 16.0945 37.0648 20.7305 30.9482 20.7305C24.8315 20.7305 20.375 16.0945 20.375 10.3652ZM30.9482 4.09333C27.5751 4.09333 24.8843 6.92712 24.8843 10.3652C24.8843 13.8033 27.5751 16.6371 30.9482 16.6371C34.3213 16.6371 37.0121 13.8033 37.0121 10.3652C37.0121 6.92712 34.3213 4.09333 30.9482 4.09333Z" fill="black"/>
<path d="M0 4.12609C0 2.01127 1.7144 0.296875 3.82922 0.296875H17.7188V4.09312H6.02769C4.83529 4.09312 3.94479 4.98362 3.94479 6.17602V6.23544C3.94479 7.42784 4.83529 8.31835 6.02769 8.31835H16.2334V12.1146H6.17624C4.89471 12.1146 3.94479 13.0645 3.94479 14.346V14.4055C3.94479 15.687 4.89471 16.6369 6.17624 16.6369H17.7188V20.4331H3.82922C1.7144 20.4331 0 18.7187 0 16.6039V4.12609Z" fill="black"/>
</svg>
