<?xml version="1.0" encoding="UTF-8"?>
<svg width="151px" height="40px" viewBox="0 0 151 40" version="1.1" xmlns="http://www.w3.org/2000/svg" xmlns:xlink="http://www.w3.org/1999/xlink">
    <title>small logo HORZ Copy</title>
    <g id="Symbols" stroke="none" stroke-width="1" fill="none" fill-rule="evenodd">
        <g id="Footer/1200" transform="translate(-125.000000, -35.000000)">
            <g id="Group-10" transform="translate(104.000000, 0.000000)">
                <g id="Group-4" transform="translate(0.000000, 5.000000)">
                    <g id="small-logo-HORZ-Copy" transform="translate(21.000000, 30.000000)">
                        <path d="M16.39413,17.8840671 L5.66168763,6.10681342 C2.22300839,9.65450734 0.0825471698,14.4634696 3.75381068e-14,19.7742662 L15.9169287,19.0360587 C16.4997379,19.008805 16.7869497,18.3151468 16.39413,17.8840671" id="Fill-2" fill="black"></path>
                        <path d="M15.9168501,21.14337 L0.000183438155,20.4051625 C0.0829926625,25.7159591 2.22266771,30.5251834 5.66134696,34.0728774 L16.3935273,22.2953616 C16.7871331,21.864544 16.4993973,21.1706237 15.9168501,21.14337" id="Fill-4" fill="black"></path>
                        <path d="M19.7747379,0.000104821803 C14.4639413,0.0818658281 9.65471698,2.22232704 6.10702306,5.66126834 L17.8842767,16.3942348 C18.3153564,16.7867925 19.0090147,16.4990566 19.0362683,15.9165094 L19.7747379,0.000104821803 Z" id="Fill-6" fill="black"></path>
                        <path d="M23.7859015,22.2954927 L34.5186059,34.0727463 C37.9575472,30.5250524 40.0977463,25.7160901 40.1800314,20.4050314 L24.2631027,21.143501 C23.6808176,21.1707547 23.3930818,21.864413 23.7859015,22.2954927" id="Fill-8" fill="black"></path>
                        <path d="M24.2631813,19.0359277 L40.179848,19.7741352 C40.0975629,14.4636006 37.9573637,9.65437631 34.5189465,6.10668239 L23.7865042,17.8839361 C23.3928983,18.3150157 23.6806342,19.008674 24.2631813,19.0359277" id="Fill-10" fill="black"></path>
                        <path d="M34.073087,5.66090147 C30.5253931,2.22248428 25.7161688,0.0820230608 20.4051101,-1.07251734e-14 L21.1441038,15.9164046 C21.1710954,16.4989518 21.8644916,16.7869497 22.2960954,16.3938679 L34.073087,5.66090147 Z" id="Fill-12" fill="black"></path>
                        <path d="M21.9958071,24.4776468 L24.2874738,39.7428459 C28.0448113,38.9443658 31.4137841,37.0963574 34.0731132,34.5182652 L22.6643082,24.1212526 C22.384434,23.8665356 21.9402516,24.103957 21.9958071,24.4776468" id="Fill-14" fill="black"></path>
                        <path d="M17.5395964,24.0993973 L6.1072065,34.5181604 C8.7875,37.1169549 12.1887055,38.9717767 15.9827306,39.7595126 L18.2078354,24.4542191 C18.2626048,24.0807914 17.8184224,23.8449423 17.5395964,24.0993973" id="Fill-16" fill="black"></path>
                        <path d="M22.2425052,20.0895178 C22.2425052,21.2781971 21.2789308,22.2420335 20.0902516,22.2420335 C18.9015723,22.2420335 17.9377358,21.2781971 17.9377358,20.0895178 C17.9377358,18.9008386 18.9015723,17.9375262 20.0902516,17.9375262 C21.2789308,17.9375262 22.2425052,18.9008386 22.2425052,20.0895178" id="Fill-18" fill="#FFAB21"></path>
                        <path d="M59.4588574,16.1284853 L53.3388365,16.1284853 L53.3388365,18.5312631 L58.6040356,18.5312631 C58.8825996,18.5312631 59.1087526,18.756892 59.1087526,19.0351939 L59.1087526,22.0262841 C59.1087526,22.3043239 58.8825996,22.5304769 58.6040356,22.5304769 L53.3388365,22.5304769 L53.3388365,27.3965671 C53.3388365,27.6753931 53.1129455,27.90076 52.8349057,27.90076 L49.7046646,27.90076 C49.4263627,27.90076 49.2004717,27.6753931 49.2004717,27.3965671 L49.2004717,12.6334644 C49.2004717,12.3549004 49.4263627,12.1292715 49.7046646,12.1292715 L59.4588574,12.1292715 C59.7371593,12.1292715 59.9633124,12.3549004 59.9633124,12.6334644 L59.9633124,15.6240304 C59.9633124,15.9028564 59.7371593,16.1284853 59.4588574,16.1284853" id="Fill-20" fill="black"></path>
                        <path d="M66.8741614,24.6376048 C67.5869497,24.6376048 68.1849581,24.407521 68.6218029,23.9473532 C69.0583857,23.4874476 69.2882075,22.8899633 69.2882075,22.1313155 C69.2882075,21.3721436 69.0583857,20.7746593 68.6218029,20.3150157 C68.1849581,19.8553721 67.5869497,19.6255503 66.8741614,19.6255503 C66.1613732,19.6255503 65.5638889,19.8553721 65.126782,20.3150157 C64.6899371,20.7746593 64.4595912,21.3721436 64.4595912,22.1313155 C64.4595912,22.8899633 64.6899371,23.4874476 65.126782,23.9473532 C65.5638889,24.407521 66.1613732,24.6376048 66.8741614,24.6376048 M69.7174528,16.383674 L72.6760482,16.383674 C72.9129455,16.383674 73.1047694,16.57576 73.1047694,16.8129193 L73.1047694,27.4502358 C73.1047694,27.6871331 72.9129455,27.8792191 72.6760482,27.8792191 L69.7174528,27.8792191 C69.4802935,27.8792191 69.2882075,27.6871331 69.2882075,27.4502358 L69.2882075,26.6716719 L69.2053983,26.657521 C68.4726939,27.5985587 67.4257862,28.201022 66.0230084,28.201022 C64.482914,28.201022 63.1957023,27.6265985 62.1611111,26.4767034 C61.1259958,25.3040094 60.6204927,23.8558962 60.6204927,22.1313155 C60.6204927,20.4067348 61.1259958,18.9580975 62.1611111,17.8087264 C63.1957023,16.6362945 64.482914,16.061609 66.0230084,16.061609 C67.4257862,16.061609 68.4996855,16.6659067 69.2067086,17.6053721 L69.2882075,17.5838836 L69.2882075,16.8129193 C69.2882075,16.57576 69.4802935,16.383674 69.7174528,16.383674" id="Fill-22" fill="black"></path>
                        <path d="M79.1157495,18.6809748 C79.4553721,17.2781971 80.6660639,16.3059748 82.0877096,16.172327 C82.3002358,16.1521488 82.4868187,16.3146226 82.4868187,16.527935 L82.4868187,19.9888889 C82.4868187,20.1904088 82.3198899,20.3560273 82.1191562,20.3434486 C81.3867138,20.2975891 80.7072065,20.4723795 80.0958333,20.8667715 C79.3830451,21.3269392 79.0379193,22.085587 79.0379193,23.1199161 L79.0379193,27.4503669 C79.0379193,27.6870021 78.8458333,27.8790881 78.6089361,27.8790881 L75.6506027,27.8790881 C75.4137055,27.8790881 75.2216195,27.6870021 75.2216195,27.4503669 L75.2216195,16.8125262 C75.2216195,16.5756289 75.4137055,16.3832809 75.6506027,16.3832809 L78.6089361,16.3832809 C78.8458333,16.3832809 79.0379193,16.5756289 79.0379193,16.8125262 L79.0379193,18.6691824 L79.1157495,18.6809748 Z" id="Fill-24" fill="black"></path>
                        <path d="M91.7839361,22.1311845 C91.7839361,20.7289308 90.8185273,19.7401992 89.4623952,19.7401992 C88.1515985,19.7401992 87.1626048,20.7289308 87.1626048,22.1311845 C87.1626048,23.5337002 88.1515985,24.5226939 89.4623952,24.5226939 C90.8185273,24.5226939 91.7839361,23.5337002 91.7839361,22.1311845 M85.1167453,26.4537736 C83.9209906,25.2813417 83.3237683,23.8327044 83.3237683,22.1311845 C83.3237683,20.4299266 83.9209906,19.0043501 85.1167453,17.8321803 C86.3119759,16.6592243 87.7606132,16.06174 89.4623952,16.06174 C91.1864518,16.06174 92.634827,16.6592243 93.8072589,17.8321803 C95.0030136,19.0043501 95.60076,20.4299266 95.60076,22.1311845 C95.60076,23.8327044 95.0030136,25.2813417 93.8072589,26.4537736 C92.634827,27.6267296 91.1864518,28.200891 89.4623952,28.200891 C87.7606132,28.200891 86.3119759,27.6267296 85.1167453,26.4537736" id="Fill-26" fill="black"></path>
                        <path d="M103.010823,24.6376048 C103.723611,24.6376048 104.321357,24.407521 104.758464,23.9473532 C105.194785,23.4874476 105.425131,22.8899633 105.425131,22.1313155 C105.425131,21.3721436 105.194785,20.7746593 104.758464,20.3150157 C104.321357,19.8553721 103.723611,19.6255503 103.010823,19.6255503 C102.298297,19.6255503 101.700288,19.8553721 101.263443,20.3150157 C100.826861,20.7746593 100.596777,21.3721436 100.596777,22.1313155 C100.596777,22.8899633 100.826861,23.4874476 101.263443,23.9473532 C101.700288,24.407521 102.298297,24.6376048 103.010823,24.6376048 M107.701336,17.8087264 C108.73619,18.9580975 109.264754,20.4067348 109.264754,22.1313155 C109.264754,23.8558962 108.73619,25.3040094 107.701336,26.4767034 C106.666221,27.6265985 105.401546,28.201022 103.861714,28.201022 C102.459198,28.201022 101.405215,27.600131 100.679062,26.657521 L100.596777,26.6685273 L100.596777,31.6399633 C100.596777,31.8768606 100.404691,32.0689465 100.167269,32.0689465 L97.2091981,32.0689465 C96.9720388,32.0689465 96.7799528,31.8768606 96.7799528,31.6399633 L96.7799528,16.8129193 C96.7799528,16.57576 96.9720388,16.383674 97.2091981,16.383674 L100.167269,16.383674 C100.404691,16.383674 100.596777,16.57576 100.596777,16.8129193 L100.596777,17.5893868 L100.66989,17.6053721 C101.388705,16.6493973 102.459198,16.061609 103.861714,16.061609 C105.401546,16.061609 106.666221,16.6362945 107.701336,17.8087264" id="Fill-28" fill="black"></path>
                        <path d="M124.56098,13.7648847 C123.710351,12.867348 123.710351,11.5109539 124.56098,10.660587 C125.457993,9.81022013 126.814387,9.81022013 127.665278,10.660587 C128.561504,11.5109539 128.561504,12.867348 127.665278,13.7648847 C126.814387,14.6152516 125.457993,14.6152516 124.56098,13.7648847" id="Fill-30" fill="#FFAB21"></path>
                        <path d="M141.397196,21.0046646 L141.397196,27.4504193 C141.397196,27.6870545 141.20511,27.8791405 140.967689,27.8791405 L138.009355,27.8791405 C137.77272,27.8791405 137.580372,27.6870545 137.580372,27.4504193 L137.580372,21.487631 C137.580372,20.2918763 136.890645,19.6713312 135.856053,19.6713312 C134.660823,19.6713312 133.970571,20.4074423 133.970571,21.7635744 L133.970571,27.4504193 C133.970571,27.6870545 133.778223,27.8791405 133.541326,27.8791405 L130.582731,27.8791405 C130.346357,27.8791405 130.154271,27.6870545 130.154271,27.4504193 L130.154271,16.8128407 C130.154271,16.5756813 130.346357,16.3833333 130.582731,16.3833333 L133.541326,16.3833333 C133.778223,16.3833333 133.970571,16.5756813 133.970571,16.8128407 L133.970571,17.6831237 L134.048664,17.6970126 C134.678643,16.6708071 135.717951,16.0615304 137.166326,16.0615304 C139.649555,16.0615304 141.397196,17.8091719 141.397196,21.0046646" id="Fill-32" fill="black"></path>
                        <path d="M150.045519,20.0393606 L148.112081,20.0393606 L148.112081,23.3726939 C148.112081,24.3847484 148.779009,24.522327 150.503328,24.430608 L150.503328,27.8792453 C148.226861,28.1554507 146.617584,27.9484277 145.675236,27.2581761 C144.755425,26.5453878 144.295519,25.281499 144.295519,23.4649371 L144.295519,20.0393606 L142.999397,20.0393606 C142.763024,20.0393606 142.571462,19.8475367 142.571462,19.6109015 L142.571462,16.8121593 C142.571462,16.5755241 142.763024,16.3834382 142.999397,16.3834382 L144.295519,16.3834382 L144.295519,14.5377883 C144.295519,14.4049266 144.382783,14.2883124 144.509355,14.2500524 L147.724764,13.2812369 C147.917636,13.2230608 148.112081,13.3677149 148.112081,13.5692348 L148.112081,16.3834382 L150.045519,16.3834382 C150.282154,16.3834382 150.473978,16.5755241 150.473978,16.8121593 L150.473978,19.6109015 C150.473978,19.8475367 150.282154,20.0393606 150.045519,20.0393606" id="Fill-34" fill="black"></path>
                        <path d="M118.817269,22.1311845 C118.817269,20.7289308 117.851599,19.7401992 116.495466,19.7401992 C115.18467,19.7401992 114.195938,20.7289308 114.195938,22.1311845 C114.195938,23.5337002 115.18467,24.5226939 116.495466,24.5226939 C117.851599,24.5226939 118.817269,23.5337002 118.817269,22.1311845 M112.150079,26.4537736 C110.954324,25.2813417 110.35684,23.8327044 110.35684,22.1311845 C110.35684,20.4299266 110.954324,19.0043501 112.150079,17.8321803 C113.345047,16.6592243 114.793947,16.06174 116.495466,16.06174 C118.219785,16.06174 119.66816,16.6592243 120.840592,17.8321803 C122.036347,19.0043501 122.634093,20.4299266 122.634093,22.1311845 C122.634093,23.8327044 122.036347,25.2813417 120.840592,26.4537736 C119.66816,27.6267296 118.219785,28.200891 116.495466,28.200891 C114.793947,28.200891 113.345047,27.6267296 112.150079,26.4537736" id="Fill-36" fill="black"></path>
                        <path d="M124.221882,27.4503145 L124.221882,16.8127358 C124.221882,16.5755765 124.413968,16.3834906 124.650865,16.3834906 L127.609198,16.3834906 C127.846095,16.3834906 128.038181,16.5755765 128.038181,16.8127358 L128.038181,27.4503145 C128.038181,27.6869497 127.846095,27.8792977 127.609198,27.8792977 L124.650865,27.8792977 C124.413968,27.8792977 124.221882,27.6869497 124.221882,27.4503145" id="Fill-38" fill="black"></path>
                    </g>
                </g>
            </g>
        </g>
    </g>
</svg>