<?xml version="1.0" encoding="utf-8"?>
<!-- Generator: Adobe Illustrator 19.2.1, SVG Export Plug-In . SVG Version: 6.00 Build 0)  -->
<svg version="1.1" id="layer" xmlns="http://www.w3.org/2000/svg" xmlns:xlink="http://www.w3.org/1999/xlink" x="0px" y="0px"
	  style="enable-background: new 0 0 652 652" xml:space="preserve">
<style type="text/css">
	.st0{fill:#1B334D;}
</style>
<g>
	<path class="st0" d="M 54.5 292.2 L 42.9 359 H 25.9 c -1.9 0 -3.4 -0.6 -4.5 -1.9 s -1.4 -2.9 -1.1 -4.7 l 13.8 -80 c 0.4 -1.9 1.3 -3.5 2.8 -4.8 c 1.5 -1.3 3.2 -2 5.1 -2 H 105 l -9.4 23.7 H 57.9 c -0.8 0 -1.6 0.3 -2.2 0.8 C 55 290.6 54.6 291.3 54.5 292.2"/>
</g>
<g>
	<path class="st0" d="M 85.8 321.9 c -0.2 0.8 -0.6 1.5 -1.2 2.1 c -0.7 0.6 -1.4 0.8 -2.3 0.8 H 62.9 c -0.8 0 -1.5 -0.3 -2 -0.8 c -0.5 -0.6 -0.7 -1.3 -0.5 -2.1 l 3.5 -19.5 c 0.2 -0.8 0.5 -1.5 1.2 -2.1 c 0.6 -0.6 1.4 -0.9 2.2 -0.9 h 19.4 c 0.8 0 1.5 0.3 1.9 0.9 c 0.4 0.6 0.6 1.3 0.5 2.1 L 85.8 321.9 z"/>
	<path class="st0" d="M 127.4 267.5 c 1.1 1.3 1.5 2.9 1.2 4.8 l -14 80 c -0.4 1.9 -1.3 3.5 -2.8 4.7 c -1.5 1.3 -3.1 1.9 -5 1.9 H 71.2 l 11.5 18.4 H 55.3 L 44.1 359 H 44 l 9.8 -23.5 h 37.1 c 0.8 0 1.6 -0.3 2.3 -0.9 c 0.7 -0.6 1.1 -1.3 1.2 -2.1 l 11.6 -66.8 h 16.9 C 124.8 265.6 126.3 266.2 127.4 267.5"/>
	<path class="st0" d="M 145.1 277.1 h 49.1 l -6.9 16.3 h -25.1 l -2.1 13.9 h 20.6 l -6.8 15.1 h -16.6 l -4.6 27 h -20.2 L 145.1 277.1 z M 186.8 297.3 h 18.9 l -9.1 52.1 h -18.7 L 186.8 297.3 z M 209.5 276.1 l -2.9 17.2 l -19.3 -0.1 L 209.5 276.1 z M 227.1 292.1 h 12.7 l -7.4 13.4 h -2 c -1.7 0 -2.8 0.9 -3.4 2.8 l -7.2 41 H 201 l 7 -38.8 c 0.2 -1.4 0.7 -3.2 1.4 -5.2 c 0.7 -2.1 1.7 -4.1 3.2 -6 c 1.5 -1.9 3.4 -3.6 5.7 -5 C 220.5 293 223.5 292.3 227.1 292.1 M 232.8 334.7 l 18.7 -1.1 l -0.9 5.4 c -0.2 1 -0.1 1.7 0.3 2.2 c 0.2 0.2 0.5 0.3 0.9 0.4 c 0.4 0.1 0.9 0.2 1.6 0.2 c 0.3 0 0.7 0 1.1 -0.1 c 0.4 -0.1 0.8 -0.1 1.1 -0.2 c 0.8 -0.7 1.2 -1.5 1.2 -2.4 l 1.7 -9.9 c 0.2 -0.5 0 -1 -0.5 -1.5 c -0.5 -0.5 -1.4 -0.7 -2.6 -0.7 l -13.2 0.6 c -0.8 0.1 -1.6 0.1 -2.6 0 c -1 -0.1 -1.9 -0.4 -2.7 -0.9 c -0.8 -0.5 -1.5 -1.3 -1.9 -2.4 c -0.5 -1.1 -0.5 -2.6 -0.1 -4.7 l 2.9 -15.2 c 1.1 -5.6 4 -9.1 8.8 -10.5 c 1.2 -0.4 3.2 -0.7 5.9 -1 c 2.7 -0.3 6.2 -0.4 10.4 -0.4 c 8.6 0 14.2 0.7 16.6 2.1 c 1.3 0.7 2.1 1.6 2.5 2.8 c 0.4 1.2 0.4 3.1 -0.1 5.8 l -0.8 3.2 l -18.9 2.4 l 1 -5.7 c 0.1 -1.1 0 -1.8 -0.3 -2.1 c -0.3 -0.1 -1.1 -0.2 -2.4 -0.2 h -1.5 c -0.5 0 -0.8 0.1 -1.1 0.2 c -0.2 0.2 -0.3 0.4 -0.6 0.7 c -0.2 0.3 -0.3 0.8 -0.3 1.4 l -1.6 8.3 c -0.2 1 0 1.9 0.4 2.5 c 0.4 0.6 1.7 0.8 3.9 0.7 l 11.4 -0.8 c 2.1 0 3.7 0.3 4.8 1 c 1.1 0.7 1.8 1.5 2.3 2.4 c 0.4 0.9 0.6 1.8 0.6 2.7 c 0 0.9 -0.1 1.5 -0.3 1.9 l -2.3 15.2 c -1.1 6 -3.8 9.8 -7.9 11.4 c -1.3 0.6 -3.3 1 -6 1.1 c -2.7 0.1 -6.3 0.2 -10.7 0.2 c -9.1 0 -14.9 -0.7 -17.4 -2.2 c -2.3 -1.3 -2.9 -4.8 -1.8 -10.7 L 232.8 334.7 z M 279.6 349.4 h 19.1 l 7.9 -45.8 h 5.5 l 1.8 -10.6 h -5.4 l 2.5 -13 l -27.6 20.3 h 5.3 L 279.6 349.4 z"/>
	<path class="st0" d="M 324.7 295.7 c 1.2 -7.1 3.4 -11.9 6.5 -14.5 c 2.8 -2.3 7.6 -3.5 14.4 -3.5 h 22.9 c 3.6 0 6.5 0.3 8.7 0.9 s 3.8 1.5 4.7 2.6 c 2 2.5 2.4 7.3 1.2 14.5 l -6.5 39 c -1.4 7.1 -3.5 11.8 -6.3 14 c -1.5 1.3 -3.3 2.2 -5.5 2.7 c -2.1 0.5 -4.3 0.8 -6.6 0.8 l -0.8 0.1 l 12.1 12 l -21.7 0.2 l -11 -12.2 h -4.1 c -3.5 0 -6.3 -0.3 -8.6 -0.8 c -2.3 -0.6 -3.8 -1.5 -4.7 -2.8 c -1.1 -1.2 -1.7 -3 -1.9 -5.3 c -0.2 -2.3 0 -5.2 0.7 -8.7 L 324.7 295.7 z M 335.3 352.2 l 7.4 -14 h 0.8 h 9.9 h 2.1 l 8.1 -47.2 h -17.8 L 335.3 352.2 z M 389.5 293 h 18.7 l -8 45.6 c 0 1.1 0 1.8 0.1 2 c 0.4 0.3 0.8 0.5 1.1 0.6 c 0.4 0.1 0.9 0.1 1.5 0.1 c 2 0 3.1 -0.9 3.3 -2.7 l 8 -45.6 h 18.9 l -9.8 56.4 h -19.1 h -10.7 c -2.9 0 -5.2 -0.2 -7 -0.7 c -1.8 -0.5 -3.1 -1.2 -3.9 -2.1 c -1.5 -2.1 -1.8 -5.5 -0.9 -10.1 L 389.5 293 z M 481.1 303.7 l -7.8 45.7 h -19.1 h -11.7 c -5.4 0 -8.9 -0.9 -10.5 -2.8 c -1.3 -1.8 -1.5 -4.9 -0.7 -9.4 l 1.6 -9.7 c 0.1 -1.3 0.5 -2.3 1 -3.1 c 0.5 -0.8 1.2 -1.5 2 -2.1 c 0.8 -0.7 1.9 -1.3 3.2 -1.8 c 1.3 -0.5 2.7 -1.1 4.4 -1.6 l 16.8 -4.8 l 1.8 -10.5 c 0.1 -0.6 0.2 -1.1 0.1 -1.5 c -0.1 -0.4 -0.2 -0.7 -0.2 -0.8 c -0.5 -0.5 -1.2 -0.8 -2.3 -0.8 c -0.8 0 -1.4 0 -1.7 0.1 c -0.3 0.1 -0.7 0.3 -1 0.7 c -0.5 0.4 -0.8 1.2 -0.8 2.4 l -1.6 6.9 l -20 5.4 l 2.4 -12.2 c 0.7 -5 3.4 -8.2 8.1 -9.8 c 2.8 -0.8 8.1 -1.1 15.9 -1.1 c 8.8 0 14.5 0.7 17.3 2 c 1.3 0.8 2.2 2 2.8 3.4 C 481.7 299.6 481.7 301.4 481.1 303.7 M 458.8 323.5 l -3.6 1.1 c -0.7 0.1 -1.4 0.4 -2.1 1 c -0.8 0.4 -1.1 0.9 -1.1 1.6 l -2 11.6 c -0.4 2.2 0.6 3.3 2.8 3.3 c 0.8 0 1.5 -0.3 2.1 -0.8 c 0.6 -0.6 0.9 -1.4 1 -2.4 L 458.8 323.5 z M 490.8 280.2 h 19.1 l -12.1 69.1 H 479 L 490.8 280.2 z M 512 297.9 h 19.2 l -8.9 51.4 h -18.7 L 512 297.9 z M 534.9 276.1 l -3 17.4 h -18.9 L 534.9 276.1 z M 592.6 292.7 l -10.5 37.5 H 581 l 2.4 -37.5 l -24 0.1 l 2.4 -13.3 L 534 300.2 h 4.9 l -8.5 49.2 h 19.2 l 7.9 -45.7 h 8 l 2 47.2 v 0.6 v 0.7 c -0.2 1.7 -2.3 2.5 -6.2 2.5 h -7.4 l -5.9 11 h 17.3 c 3.4 0 6.3 -0.2 8.8 -0.4 c 2.5 -0.3 4.5 -0.8 6 -1.5 c 1.4 -0.7 2.8 -1.9 4.2 -3.8 c 1.4 -1.8 2.4 -3.7 3.1 -5.7 l 23.8 -61.5 H 592.6 z"/>
	<path class="st0" d="M 613.2 335.9 c 1.2 0 2.3 0.3 3.5 0.9 c 1.1 0.6 2 1.5 2.6 2.6 c 0.6 1.1 0.9 2.3 0.9 3.6 c 0 1.2 -0.3 2.4 -0.9 3.5 c -0.6 1.1 -1.5 2 -2.6 2.6 c -1.1 0.6 -2.3 0.9 -3.5 0.9 c -1.2 0 -2.4 -0.3 -3.5 -0.9 c -1.1 -0.6 -2 -1.5 -2.6 -2.6 c -0.6 -1.1 -0.9 -2.3 -0.9 -3.5 c 0 -1.3 0.3 -2.4 1 -3.6 c 0.6 -1.1 1.5 -2 2.6 -2.6 C 610.9 336.2 612 335.9 613.2 335.9 M 613.2 337 c -1 0 -2 0.3 -2.9 0.8 c -0.9 0.5 -1.7 1.2 -2.2 2.2 c -0.5 1 -0.8 1.9 -0.8 3 c 0 1 0.3 2 0.8 2.9 c 0.5 0.9 1.3 1.7 2.2 2.2 c 0.9 0.5 1.9 0.8 2.9 0.8 c 1 0 2 -0.3 2.9 -0.8 c 0.9 -0.5 1.7 -1.3 2.2 -2.2 c 0.5 -0.9 0.8 -1.9 0.8 -2.9 c 0 -1 -0.3 -2 -0.8 -3 s -1.3 -1.7 -2.2 -2.2 C 615.2 337.3 614.2 337 613.2 337 M 610.1 346.9 v -7.7 h 2.6 c 0.9 0 1.5 0.1 1.9 0.2 c 0.4 0.1 0.7 0.4 1 0.7 c 0.2 0.4 0.4 0.7 0.4 1.1 c 0 0.6 -0.2 1 -0.6 1.5 c -0.4 0.4 -0.9 0.7 -1.6 0.7 c 0.3 0.1 0.5 0.3 0.7 0.4 c 0.3 0.3 0.7 0.8 1.1 1.5 l 0.9 1.5 H 615 l -0.7 -1.2 c -0.5 -1 -1 -1.5 -1.3 -1.8 c -0.2 -0.2 -0.5 -0.3 -1 -0.3 h -0.7 v 3.2 H 610.1 z M 611.4 342.6 h 1.5 c 0.7 0 1.2 -0.1 1.5 -0.3 c 0.3 -0.2 0.4 -0.5 0.4 -0.9 c 0 -0.2 -0.1 -0.4 -0.2 -0.6 c -0.1 -0.2 -0.3 -0.3 -0.5 -0.4 c -0.2 -0.1 -0.6 -0.1 -1.2 -0.1 h -1.4 V 342.6 z"/>
</g>
</svg>
