<?xml version="1.0" encoding="utf-8"?>
<!-- Generator: Adobe Illustrator 19.2.1, SVG Export Plug-In . SVG Version: 6.00 Build 0)  -->
<svg version="1.1" id="layer" xmlns="http://www.w3.org/2000/svg" xmlns:xlink="http://www.w3.org/1999/xlink" >
<style type="text/css">
	.st0{fill:#1B334D;}
</style>
<g>
	<path class="st0" d="M54.5,292.2L42.9,359H25.9c-1.9,0-3.4-0.6-4.5-1.9s-1.4-2.9-1.1-4.7l13.8-80c0.4-1.9,1.3-3.5,2.8-4.8
		c1.5-1.3,3.2-2,5.1-2H105l-9.4,23.7H57.9c-0.8,0-1.6,0.3-2.2,0.8C55,290.6,54.6,291.3,54.5,292.2"/>
</g>
<g>
	<path class="st0" d="M85.8,321.9c-0.2,0.8-0.6,1.5-1.2,2.1c-0.7,0.6-1.4,0.8-2.3,0.8H62.9c-0.8,0-1.5-0.3-2-0.8
		c-0.5-0.6-0.7-1.3-0.5-2.1l3.5-19.5c0.2-0.8,0.5-1.5,1.2-2.1c0.6-0.6,1.4-0.9,2.2-0.9h19.4c0.8,0,1.5,0.3,1.9,0.9
		c0.4,0.6,0.6,1.3,0.5,2.1L85.8,321.9z"/>
	<path class="st0" d="M127.4,267.5c1.1,1.3,1.5,2.9,1.2,4.8l-14,80c-0.4,1.9-1.3,3.5-2.8,4.7c-1.5,1.3-3.1,1.9-5,1.9H71.2l11.5,18.4
		H55.3L44.1,359H44l9.8-23.5h37.1c0.8,0,1.6-0.3,2.3-0.9c0.7-0.6,1.1-1.3,1.2-2.1l11.6-66.8h16.9
		C124.8,265.6,126.3,266.2,127.4,267.5"/>
	<path class="st0" d="M145.1,277.1h49.1l-6.9,16.3h-25.1l-2.1,13.9h20.6l-6.8,15.1h-16.6l-4.6,27h-20.2L145.1,277.1z M186.8,297.3
		h18.9l-9.1,52.1h-18.7L186.8,297.3z M209.5,276.1l-2.9,17.2l-19.3-0.1L209.5,276.1z M227.1,292.1h12.7l-7.4,13.4h-2
		c-1.7,0-2.8,0.9-3.4,2.8l-7.2,41H201l7-38.8c0.2-1.4,0.7-3.2,1.4-5.2c0.7-2.1,1.7-4.1,3.2-6c1.5-1.9,3.4-3.6,5.7-5
		C220.5,293,223.5,292.3,227.1,292.1 M232.8,334.7l18.7-1.1l-0.9,5.4c-0.2,1-0.1,1.7,0.3,2.2c0.2,0.2,0.5,0.3,0.9,0.4
		c0.4,0.1,0.9,0.2,1.6,0.2c0.3,0,0.7,0,1.1-0.1c0.4-0.1,0.8-0.1,1.1-0.2c0.8-0.7,1.2-1.5,1.2-2.4l1.7-9.9c0.2-0.5,0-1-0.5-1.5
		c-0.5-0.5-1.4-0.7-2.6-0.7l-13.2,0.6c-0.8,0.1-1.6,0.1-2.6,0c-1-0.1-1.9-0.4-2.7-0.9c-0.8-0.5-1.5-1.3-1.9-2.4
		c-0.5-1.1-0.5-2.6-0.1-4.7l2.9-15.2c1.1-5.6,4-9.1,8.8-10.5c1.2-0.4,3.2-0.7,5.9-1c2.7-0.3,6.2-0.4,10.4-0.4
		c8.6,0,14.2,0.7,16.6,2.1c1.3,0.7,2.1,1.6,2.5,2.8c0.4,1.2,0.4,3.1-0.1,5.8l-0.8,3.2l-18.9,2.4l1-5.7c0.1-1.1,0-1.8-0.3-2.1
		c-0.3-0.1-1.1-0.2-2.4-0.2h-1.5c-0.5,0-0.8,0.1-1.1,0.2c-0.2,0.2-0.3,0.4-0.6,0.7c-0.2,0.3-0.3,0.8-0.3,1.4l-1.6,8.3
		c-0.2,1,0,1.9,0.4,2.5c0.4,0.6,1.7,0.8,3.9,0.7l11.4-0.8c2.1,0,3.7,0.3,4.8,1c1.1,0.7,1.8,1.5,2.3,2.4c0.4,0.9,0.6,1.8,0.6,2.7
		c0,0.9-0.1,1.5-0.3,1.9l-2.3,15.2c-1.1,6-3.8,9.8-7.9,11.4c-1.3,0.6-3.3,1-6,1.1c-2.7,0.1-6.3,0.2-10.7,0.2
		c-9.1,0-14.9-0.7-17.4-2.2c-2.3-1.3-2.9-4.8-1.8-10.7L232.8,334.7z M279.6,349.4h19.1l7.9-45.8h5.5l1.8-10.6h-5.4l2.5-13
		l-27.6,20.3h5.3L279.6,349.4z"/>
	<path class="st0" d="M324.7,295.7c1.2-7.1,3.4-11.9,6.5-14.5c2.8-2.3,7.6-3.5,14.4-3.5h22.9c3.6,0,6.5,0.3,8.7,0.9s3.8,1.5,4.7,2.6
		c2,2.5,2.4,7.3,1.2,14.5l-6.5,39c-1.4,7.1-3.5,11.8-6.3,14c-1.5,1.3-3.3,2.2-5.5,2.7c-2.1,0.5-4.3,0.8-6.6,0.8l-0.8,0.1l12.1,12
		l-21.7,0.2l-11-12.2h-4.1c-3.5,0-6.3-0.3-8.6-0.8c-2.3-0.6-3.8-1.5-4.7-2.8c-1.1-1.2-1.7-3-1.9-5.3c-0.2-2.3,0-5.2,0.7-8.7
		L324.7,295.7z M335.3,352.2l7.4-14h0.8h9.9h2.1l8.1-47.2h-17.8L335.3,352.2z M389.5,293h18.7l-8,45.6c0,1.1,0,1.8,0.1,2
		c0.4,0.3,0.8,0.5,1.1,0.6c0.4,0.1,0.9,0.1,1.5,0.1c2,0,3.1-0.9,3.3-2.7l8-45.6h18.9l-9.8,56.4h-19.1h-10.7c-2.9,0-5.2-0.2-7-0.7
		c-1.8-0.5-3.1-1.2-3.9-2.1c-1.5-2.1-1.8-5.5-0.9-10.1L389.5,293z M481.1,303.7l-7.8,45.7h-19.1h-11.7c-5.4,0-8.9-0.9-10.5-2.8
		c-1.3-1.8-1.5-4.9-0.7-9.4l1.6-9.7c0.1-1.3,0.5-2.3,1-3.1c0.5-0.8,1.2-1.5,2-2.1c0.8-0.7,1.9-1.3,3.2-1.8c1.3-0.5,2.7-1.1,4.4-1.6
		l16.8-4.8l1.8-10.5c0.1-0.6,0.2-1.1,0.1-1.5c-0.1-0.4-0.2-0.7-0.2-0.8c-0.5-0.5-1.2-0.8-2.3-0.8c-0.8,0-1.4,0-1.7,0.1
		c-0.3,0.1-0.7,0.3-1,0.7c-0.5,0.4-0.8,1.2-0.8,2.4l-1.6,6.9l-20,5.4l2.4-12.2c0.7-5,3.4-8.2,8.1-9.8c2.8-0.8,8.1-1.1,15.9-1.1
		c8.8,0,14.5,0.7,17.3,2c1.3,0.8,2.2,2,2.8,3.4C481.7,299.6,481.7,301.4,481.1,303.7 M458.8,323.5l-3.6,1.1c-0.7,0.1-1.4,0.4-2.1,1
		c-0.8,0.4-1.1,0.9-1.1,1.6l-2,11.6c-0.4,2.2,0.6,3.3,2.8,3.3c0.8,0,1.5-0.3,2.1-0.8c0.6-0.6,0.9-1.4,1-2.4L458.8,323.5z
		 M490.8,280.2h19.1l-12.1,69.1H479L490.8,280.2z M512,297.9h19.2l-8.9,51.4h-18.7L512,297.9z M534.9,276.1l-3,17.4h-18.9
		L534.9,276.1z M592.6,292.7l-10.5,37.5H581l2.4-37.5l-24,0.1l2.4-13.3L534,300.2h4.9l-8.5,49.2h19.2l7.9-45.7h8l2,47.2v0.6v0.7
		c-0.2,1.7-2.3,2.5-6.2,2.5h-7.4l-5.9,11h17.3c3.4,0,6.3-0.2,8.8-0.4c2.5-0.3,4.5-0.8,6-1.5c1.4-0.7,2.8-1.9,4.2-3.8
		c1.4-1.8,2.4-3.7,3.1-5.7l23.8-61.5H592.6z"/>
	<path class="st0" d="M613.2,335.9c1.2,0,2.3,0.3,3.5,0.9c1.1,0.6,2,1.5,2.6,2.6c0.6,1.1,0.9,2.3,0.9,3.6c0,1.2-0.3,2.4-0.9,3.5
		c-0.6,1.1-1.5,2-2.6,2.6c-1.1,0.6-2.3,0.9-3.5,0.9c-1.2,0-2.4-0.3-3.5-0.9c-1.1-0.6-2-1.5-2.6-2.6c-0.6-1.1-0.9-2.3-0.9-3.5
		c0-1.3,0.3-2.4,1-3.6c0.6-1.1,1.5-2,2.6-2.6C610.9,336.2,612,335.9,613.2,335.9 M613.2,337c-1,0-2,0.3-2.9,0.8
		c-0.9,0.5-1.7,1.2-2.2,2.2c-0.5,1-0.8,1.9-0.8,3c0,1,0.3,2,0.8,2.9c0.5,0.9,1.3,1.7,2.2,2.2c0.9,0.5,1.9,0.8,2.9,0.8
		c1,0,2-0.3,2.9-0.8c0.9-0.5,1.7-1.3,2.2-2.2c0.5-0.9,0.8-1.9,0.8-2.9c0-1-0.3-2-0.8-3s-1.3-1.7-2.2-2.2
		C615.2,337.3,614.2,337,613.2,337 M610.1,346.9v-7.7h2.6c0.9,0,1.5,0.1,1.9,0.2c0.4,0.1,0.7,0.4,1,0.7c0.2,0.4,0.4,0.7,0.4,1.1
		c0,0.6-0.2,1-0.6,1.5c-0.4,0.4-0.9,0.7-1.6,0.7c0.3,0.1,0.5,0.3,0.7,0.4c0.3,0.3,0.7,0.8,1.1,1.5l0.9,1.5H615l-0.7-1.2
		c-0.5-1-1-1.5-1.3-1.8c-0.2-0.2-0.5-0.3-1-0.3h-0.7v3.2H610.1z M611.4,342.6h1.5c0.7,0,1.2-0.1,1.5-0.3c0.3-0.2,0.4-0.5,0.4-0.9
		c0-0.2-0.1-0.4-0.2-0.6c-0.1-0.2-0.3-0.3-0.5-0.4c-0.2-0.1-0.6-0.1-1.2-0.1h-1.4V342.6z"/>
</g>
</svg>
