<?xml version="1.0" encoding="UTF-8"?><svg id="_레이어_1" xmlns="http://www.w3.org/2000/svg" viewBox="0 0 180.35 141.48"><defs><style>.cls-1{fill:#f7995b;}.cls-2{fill:#f27320;}.cls-3{fill:#fab382;}.cls-4{fill:#000500;}</style></defs><path class="cls-3" d="M 82.6 39.2 c -1.1 -9.9 9.3 -17.9 23.3 -17.8 c 14 0.1 26.2 8.3 27.3 18.2 c 1.1 10 -9.3 17.9 -23.3 17.8 c -14 -0.1 -26.2 -8.3 -27.3 -18.2 m 53.2 3.1 c -1.3 -12.3 -15.3 -22.4 -31.4 -22.6 c -16.1 -0.1 -28.1 9.8 -26.8 22.1 c 1.3 12.3 15.3 22.5 31.4 22.6 c 16.1 0.1 28.1 -9.8 26.8 -22.1"/><path class="cls-1" d="M 111.5 64.7 c -7.9 8.3 -20.6 8.9 -28.4 1.5 c -7.8 -7.4 -7.6 -20.1 0.3 -28.4 c 7.9 -8.3 20.6 -9 28.4 -1.5 c 7.8 7.4 7.6 20.1 -0.3 28.4 m -29.4 -27.1 c -9.2 9.6 -9.4 24.4 -0.3 33 c 9 8.6 23.8 7.8 33 -1.8 c 9.2 -9.6 9.4 -24.4 0.3 -33 c -9 -8.6 -23.8 -7.8 -33 1.8"/><path class="cls-2" d="M 83 6.6 c 16.5 -6.2 32.8 0.1 36.4 13.9 c 3.6 13.9 -6.8 30.1 -23.3 36.3 c -16.5 6.2 -32.8 -0.1 -36.4 -13.9 c -3.6 -13.9 6.8 -30.1 23.3 -36.3 m -15.3 5.3 c -17.1 13.5 -21.4 33.1 -9.7 43.8 c 11.7 10.7 35.1 8.3 52.2 -5.2 c 17.1 -13.5 21.4 -33.1 9.7 -43.8 c -11.7 -10.7 -35.1 -8.3 -52.1 5.2"/><g><path class="cls-4" d="M 27.6 89.2 v 30.5 h -4.8 v -16.1 H 4.8 v 16.1 H 0 v -30.5 H 4.8 v 10.2 H 22.8 v -10.2 h 4.8 Z"/><path class="cls-4" d="M 39 119.7 c -2.2 0 -4 -0.6 -5.3 -1.9 c -1.3 -1.3 -2 -2.8 -2 -4.8 v -1.6 c 0 -2 0.7 -3.6 2 -4.9 c 1.3 -1.3 3.1 -1.9 5.3 -1.9 h 12.4 v -0.1 c 0 -2.4 -1.3 -3.7 -4 -3.7 h -13.8 v -4.1 h 13.7 c 2.9 0 5 0.7 6.5 2.2 c 1.5 1.4 2.3 3.5 2.3 6.1 v 8.1 c 0 2.1 -0.7 3.7 -2.1 4.9 c -1.3 1.1 -3.1 1.6 -5.4 1.6 h -9.7 Z m 8.7 -11 h -7.5 c -2.4 0 -3.6 1 -3.6 3.1 v 0.8 c 0 2 1.2 3.1 3.6 3.1 h 7.5 c 2.5 0 3.7 -1 3.7 -3.1 v -0.8 c 0 -2.1 -1.2 -3.1 -3.7 -3.1 Z"/><path class="cls-4" d="M 70.1 96.8 h 4.7 c 3 0 5.3 0.9 7 2.6 c 1.7 1.7 2.5 4.1 2.5 7.2 v 13.2 h -4.8 v -12.9 c 0 -1.9 -0.4 -3.3 -1.1 -4.2 c -0.9 -1.1 -2.3 -1.7 -4 -1.7 h -4 c -1.7 0 -3 0.6 -4 1.7 c -0.7 0.9 -1 2.3 -1 4.2 v 12.9 h -4.8 v -13.2 c 0 -3.1 0.9 -5.5 2.5 -7.2 c 1.7 -1.7 4 -2.6 7 -2.6 Z"/><path class="cls-4" d="M 106.3 116.6 c -1.7 2 -3.8 3.1 -6.3 3.1 h -2.9 c -2.7 0 -4.8 -0.8 -6.3 -2.5 c -1.5 -1.6 -2.2 -3.8 -2.2 -6.7 v -13.8 h 4.7 v 13.8 c 0 1.7 0.4 2.9 1.1 3.7 c 0.8 0.9 1.9 1.3 3.2 1.3 h 2.1 c 1.3 0 2.4 -0.4 3.3 -1.3 c 0.7 -0.8 1.1 -2 1.1 -3.7 v -13.8 h 4.7 v 13.8 c 0 1.7 0.4 2.9 1.1 3.7 c 0.8 0.9 1.9 1.3 3.2 1.3 h 2.1 c 1.3 0 2.4 -0.4 3.3 -1.3 c 0.7 -0.8 1.1 -2 1.1 -3.7 v -13.8 h 4.7 v 13.8 c 0 2.9 -0.8 5.1 -2.3 6.7 c -1.6 1.7 -3.7 2.5 -6.3 2.5 h -2.9 c -2.5 0 -4.5 -1 -6.2 -3.1 Z"/><path class="cls-4" d="M 138 100.9 c -1.7 0 -3 0.6 -4 1.7 c -0.7 0.9 -1 2.3 -1 4.2 v 12.9 h -4.8 v -30.6 h 4.8 v 9 c 1.4 -0.9 2.9 -1.4 4.7 -1.4 h 4.7 c 3 0 5.3 0.9 7 2.6 c 1.7 1.7 2.5 4.1 2.5 7.2 v 13.2 h -4.8 v -12.9 c 0 -1.9 -0.4 -3.3 -1.1 -4.2 c -0.9 -1.1 -2.3 -1.7 -4 -1.7 h -4.1 Z"/><path class="cls-4" d="M 163.2 119.7 c -2.2 0 -4 -0.6 -5.3 -1.9 c -1.3 -1.3 -2 -2.8 -2 -4.8 v -1.6 c 0 -2 0.7 -3.6 2 -4.9 c 1.3 -1.3 3.1 -1.9 5.3 -1.9 h 12.4 v -0.1 c 0 -2.4 -1.3 -3.7 -4 -3.7 h -13.8 v -4.1 h 13.7 c 2.9 0 5 0.7 6.6 2.2 c 1.5 1.4 2.3 3.5 2.3 6.1 v 8.1 c 0 2.1 -0.7 3.7 -2.1 4.9 c -1.3 1.1 -3.1 1.6 -5.4 1.6 h -9.7 Z m 8.7 -11 h -7.5 c -2.4 0 -3.7 1 -3.7 3.1 v 0.8 c 0 2 1.2 3.1 3.7 3.1 h 7.5 c 2.5 0 3.7 -1 3.7 -3.1 v -0.8 c 0 -2.1 -1.2 -3.1 -3.7 -3.1 Z"/></g><g><path class="cls-4" d="M 64.2 141.5 c -0.3 0 -0.5 -0.1 -0.8 -0.2 c -0.2 -0.1 -0.5 -0.4 -0.6 -0.7 l -6.8 -14.4 h 2.5 l 5.7 11.9 l 5.7 -11.9 h 2.5 l -6.8 14.4 c -0.2 0.3 -0.4 0.6 -0.6 0.7 c -0.2 0.1 -0.5 0.2 -0.8 0.2 Z"/><path class="cls-4" d="M 76.6 127.6 c 0 0.4 -0.1 0.8 -0.5 1.1 c -0.3 0.3 -0.7 0.4 -1.1 0.4 s -0.8 -0.1 -1.1 -0.4 c -0.3 -0.3 -0.4 -0.6 -0.4 -1.1 s 0.1 -0.8 0.4 -1.1 c 0.3 -0.3 0.7 -0.4 1.1 -0.4 s 0.8 0.1 1.1 0.4 c 0.3 0.3 0.5 0.6 0.5 1.1 Z m -2.8 13.8 v -11.5 h 2.4 v 11.5 h -2.4 Z"/><path class="cls-4" d="M 86.3 134.7 c 1.3 0 2.2 0.2 2.8 0.6 c 0.8 0.5 1.1 1.3 1.1 2.4 v 0.9 c 0 1.1 -0.4 1.9 -1.1 2.4 c -0.6 0.4 -1.5 0.6 -2.8 0.6 h -7.5 v -2.1 h 7.5 c 1 0 1.6 -0.4 1.6 -1.1 v -0.5 c 0 -0.7 -0.5 -1.1 -1.6 -1.1 h -3.9 c -1.3 0 -2.2 -0.2 -2.8 -0.6 c -0.7 -0.5 -1.1 -1.3 -1.1 -2.4 v -0.9 c 0 -1.1 0.4 -1.9 1.1 -2.4 c 0.6 -0.4 1.5 -0.6 2.8 -0.6 h 7.2 v 2.1 h -7.2 c -1 0 -1.5 0.4 -1.5 1.1 v 0.5 c 0 0.7 0.5 1.1 1.5 1.1 h 3.9 Z"/><path class="cls-4" d="M 95.1 127.6 c 0 0.4 -0.1 0.8 -0.5 1.1 c -0.3 0.3 -0.7 0.4 -1.1 0.4 s -0.8 -0.1 -1.1 -0.4 c -0.3 -0.3 -0.4 -0.6 -0.4 -1.1 s 0.1 -0.8 0.4 -1.1 c 0.3 -0.3 0.7 -0.4 1.1 -0.4 s 0.8 0.1 1.1 0.4 c 0.3 0.3 0.5 0.6 0.5 1.1 Z m -2.8 13.8 v -11.5 h 2.4 v 11.5 h -2.4 Z"/><path class="cls-4" d="M 105.1 141.4 h -3.5 c -1.4 0 -2.5 -0.4 -3.3 -1.2 c -0.8 -0.8 -1.2 -1.9 -1.2 -3.4 v -2.1 c 0 -1.5 0.4 -2.6 1.2 -3.5 c 0.8 -0.8 1.9 -1.2 3.3 -1.2 h 3.5 c 1.4 0 2.5 0.4 3.3 1.2 c 0.8 0.8 1.2 1.9 1.2 3.5 v 2.1 c 0 1.5 -0.4 2.6 -1.2 3.4 c -0.8 0.8 -1.9 1.2 -3.3 1.2 Z m -0.2 -2.1 c 0.8 0 1.5 -0.3 1.9 -0.8 c 0.3 -0.4 0.5 -1.1 0.5 -1.9 v -1.9 c 0 -0.9 -0.2 -1.5 -0.5 -2 c -0.4 -0.5 -1 -0.8 -1.9 -0.8 h -3.2 c -0.8 0 -1.4 0.3 -1.8 0.8 c -0.3 0.4 -0.5 1.1 -0.5 2 v 1.9 c 0 0.8 0.2 1.5 0.5 1.9 c 0.4 0.5 1 0.8 1.8 0.8 h 3.2 Z"/><path class="cls-4" d="M 116.5 129.9 h 2.3 c 1.5 0 2.6 0.4 3.5 1.3 c 0.8 0.9 1.3 2.1 1.3 3.6 v 6.6 h -2.4 v -6.5 c 0 -1 -0.2 -1.7 -0.6 -2.1 c -0.5 -0.6 -1.1 -0.9 -2 -0.9 h -2 c -0.8 0 -1.5 0.3 -2 0.9 c -0.3 0.4 -0.5 1.1 -0.5 2.1 v 6.5 h -2.4 v -6.6 c 0 -1.5 0.4 -2.8 1.3 -3.6 c 0.8 -0.9 2 -1.3 3.5 -1.3 Z"/></g></svg>