<?xml version="1.0" encoding="UTF-8"?><svg id="_레이어_1" xmlns="http://www.w3.org/2000/svg" viewBox="0 0 180.35 141.48"><defs><style>.cls-1{fill:#f7995b;}.cls-2{fill:#f27320;}.cls-3{fill:#fab382;}.cls-4{fill:#000500;}</style></defs><path class="cls-3" d="M82.58,39.24c-1.1-9.95,9.34-17.94,23.31-17.83,13.96,.11,26.18,8.26,27.27,18.21,1.1,9.96-9.34,17.94-23.31,17.83-13.96-.1-26.18-8.26-27.27-18.21m53.18,3.09c-1.27-12.35-15.32-22.45-31.4-22.59-16.07-.13-28.08,9.77-26.82,22.11,1.26,12.34,15.32,22.46,31.4,22.59,16.07,.13,28.09-9.77,26.83-22.11"/><path class="cls-1" d="M111.5,64.69c-7.92,8.28-20.63,8.95-28.39,1.53-7.77-7.42-7.63-20.15,.29-28.42,7.92-8.27,20.63-8.96,28.38-1.53,7.76,7.42,7.63,20.15-.29,28.42m-29.35-27.15c-9.2,9.61-9.36,24.4-.34,33.03,9.02,8.63,23.79,7.83,33-1.78,9.21-9.61,9.37-24.4,.34-33.03-9.01-8.63-23.79-7.83-33,1.78"/><path class="cls-2" d="M82.99,6.59c16.47-6.17,32.76,.07,36.38,13.94,3.62,13.87-6.8,30.12-23.26,36.29-16.47,6.18-32.76-.07-36.38-13.94-3.63-13.87,6.79-30.11,23.26-36.29m-15.29,5.3c-17.1,13.52-21.44,33.12-9.72,43.76,11.72,10.65,35.08,8.32,52.16-5.21,17.09-13.52,21.44-33.12,9.71-43.76-11.72-10.65-35.07-8.32-52.15,5.21"/><g><path class="cls-4" d="M27.55,88.19v30.52h-4.76v-16.1H4.76v16.1H0v-30.52H4.76v10.24H22.79v-10.24h4.76Z"/><path class="cls-4" d="M38.98,118.71c-2.22,0-3.98-.63-5.28-1.87-1.32-1.25-1.98-2.85-1.98-4.82v-1.63c0-1.99,.66-3.61,1.98-4.86,1.3-1.27,3.06-1.91,5.28-1.91h12.43v-.12c0-2.44-1.34-3.66-4.01-3.66h-13.81v-4.06h13.74c2.86,0,5.04,.73,6.55,2.19,1.53,1.41,2.3,3.45,2.3,6.14v8.09c0,2.07-.7,3.71-2.1,4.9-1.27,1.09-3.06,1.63-5.36,1.63h-9.73Zm8.69-11.04h-7.54c-2.44,0-3.65,1.04-3.65,3.11v.76c0,2.05,1.22,3.07,3.65,3.07h7.54c2.49,0,3.73-1.02,3.73-3.07v-.76c0-2.07-1.24-3.11-3.73-3.11Z"/><path class="cls-4" d="M70.11,95.76h4.68c2.96,0,5.29,.86,6.99,2.59,1.69,1.73,2.54,4.13,2.54,7.21v13.15h-4.76v-12.91c0-1.91-.37-3.31-1.11-4.18-.93-1.14-2.26-1.71-4.01-1.71h-4.05c-1.69,0-3.02,.57-3.97,1.71-.69,.88-1.03,2.27-1.03,4.18v12.91h-4.76v-13.15c0-3.08,.85-5.48,2.54-7.21,1.69-1.73,4.01-2.59,6.95-2.59Z"/><path class="cls-4" d="M106.27,115.64c-1.69,2.04-3.8,3.07-6.31,3.07h-2.94c-2.65,0-4.75-.84-6.31-2.51-1.48-1.57-2.22-3.79-2.22-6.65v-13.78h4.72v13.82c0,1.67,.36,2.9,1.07,3.66,.82,.88,1.89,1.32,3.22,1.32h2.06c1.35,0,2.43-.44,3.26-1.32,.74-.77,1.11-1.99,1.11-3.66v-13.82h4.68v13.82c0,1.67,.36,2.9,1.07,3.66,.82,.88,1.89,1.32,3.22,1.32h2.06c1.35,0,2.44-.44,3.26-1.32,.74-.77,1.11-1.99,1.11-3.66v-13.82h4.72v13.78c0,2.87-.77,5.09-2.3,6.65-1.56,1.67-3.68,2.51-6.35,2.51h-2.9c-2.46,0-4.54-1.02-6.23-3.07Z"/><path class="cls-4" d="M138.03,99.9c-1.69,0-3.02,.57-3.97,1.71-.69,.88-1.03,2.27-1.03,4.18v12.91h-4.76v-30.6h4.76v9.04c1.38-.93,2.95-1.39,4.72-1.39h4.68c2.96,0,5.29,.86,6.99,2.59,1.69,1.73,2.54,4.13,2.54,7.21v13.15h-4.76v-12.91c0-1.91-.37-3.31-1.11-4.18-.93-1.14-2.26-1.71-4.01-1.71h-4.05Z"/><path class="cls-4" d="M163.16,118.71c-2.22,0-3.98-.63-5.28-1.87-1.32-1.25-1.99-2.85-1.99-4.82v-1.63c0-1.99,.66-3.61,1.99-4.86,1.3-1.27,3.06-1.91,5.28-1.91h12.42v-.12c0-2.44-1.34-3.66-4.01-3.66h-13.81v-4.06h13.74c2.86,0,5.04,.73,6.55,2.19,1.53,1.41,2.3,3.45,2.3,6.14v8.09c0,2.07-.7,3.71-2.1,4.9-1.27,1.09-3.06,1.63-5.36,1.63h-9.73Zm8.69-11.04h-7.54c-2.44,0-3.65,1.04-3.65,3.11v.76c0,2.05,1.22,3.07,3.65,3.07h7.54c2.49,0,3.73-1.02,3.73-3.07v-.76c0-2.07-1.24-3.11-3.73-3.11Z"/></g><g><path class="cls-4" d="M64.21,141.48c-.26,0-.51-.07-.75-.22-.24-.15-.45-.39-.63-.72l-6.82-14.41h2.55l5.66,11.94,5.66-11.94h2.55l-6.82,14.41c-.17,.33-.38,.57-.62,.72-.24,.14-.5,.22-.76,.22Z"/><path class="cls-4" d="M76.63,127.61c0,.44-.15,.79-.47,1.06-.31,.27-.68,.4-1.12,.4s-.78-.13-1.08-.4c-.3-.27-.44-.62-.44-1.06s.15-.79,.44-1.07c.3-.27,.66-.41,1.08-.41s.81,.14,1.12,.41c.31,.27,.47,.63,.47,1.07Zm-2.77,13.81v-11.5h2.41v11.5h-2.41Z"/><path class="cls-4" d="M86.28,134.65c1.28,0,2.22,.2,2.81,.6,.75,.51,1.13,1.3,1.13,2.37v.86c0,1.06-.38,1.85-1.13,2.35-.59,.39-1.54,.58-2.83,.58h-7.55v-2.08h7.55c1.04,0,1.56-.36,1.56-1.08v-.46c0-.73-.52-1.1-1.56-1.1h-3.91c-1.27,0-2.2-.19-2.79-.58-.74-.51-1.11-1.29-1.11-2.35v-.88c0-1.09,.37-1.88,1.11-2.38,.59-.4,1.52-.6,2.79-.6h7.24v2.08h-7.2c-1.03,0-1.54,.37-1.54,1.1v.48c0,.72,.51,1.08,1.52,1.08h3.91Z"/><path class="cls-4" d="M95.14,127.61c0,.44-.15,.79-.46,1.06-.31,.27-.68,.4-1.12,.4s-.78-.13-1.08-.4c-.3-.27-.44-.62-.44-1.06s.15-.79,.44-1.07c.3-.27,.66-.41,1.08-.41s.81,.14,1.12,.41c.31,.27,.46,.63,.46,1.07Zm-2.77,13.81v-11.5h2.41v11.5h-2.41Z"/><path class="cls-4" d="M105.11,141.42h-3.5c-1.41-.01-2.52-.43-3.32-1.24-.8-.8-1.21-1.94-1.21-3.43v-2.14c0-1.5,.4-2.65,1.21-3.45,.8-.81,1.91-1.22,3.32-1.24h3.5c1.43,.01,2.54,.43,3.34,1.24,.8,.8,1.2,1.95,1.2,3.45v2.14c0,1.49-.4,2.64-1.2,3.43-.81,.81-1.92,1.22-3.34,1.24Zm-.18-2.08c.84,0,1.46-.26,1.86-.78,.33-.44,.49-1.08,.49-1.94v-1.88c0-.86-.16-1.52-.49-1.96-.4-.53-1.01-.8-1.86-.8h-3.16c-.83,0-1.44,.27-1.84,.8-.32,.44-.48,1.09-.48,1.96v1.88c0,.85,.16,1.5,.48,1.94,.39,.52,1.01,.78,1.84,.78h3.16Z"/><path class="cls-4" d="M116.48,129.92h2.33c1.47,0,2.64,.43,3.48,1.3,.85,.87,1.27,2.07,1.27,3.61v6.59h-2.37v-6.47c0-.96-.18-1.66-.55-2.1-.46-.57-1.13-.86-2-.86h-2.02c-.85,0-1.5,.29-1.98,.86-.34,.44-.51,1.14-.51,2.1v6.47h-2.37v-6.59c0-1.54,.42-2.75,1.26-3.61,.84-.86,2-1.3,3.46-1.3Z"/></g></svg>