<?xml version="1.0" encoding="utf-8"?>
<!-- Generator: Adobe Illustrator 26.0.3, SVG Export Plug-In . SVG Version: 6.00 Build 0)  -->
<svg version="1.0" id="Layer_1" xmlns="http://www.w3.org/2000/svg" xmlns:xlink="http://www.w3.org/1999/xlink" x="0px" y="0px"
	 viewBox="0 0 252 172" style="enable-background:new 0 0 252 172;" xml:space="preserve">
<style type="text/css">
	.st0{fill:#306BC1;}
	.st1{fill:#DB1F26;}
	.st2{fill:#8FD139;}
	.st3{fill:#08AF4F;}
	.st4{fill:#0DC3D1;}
	.st5{fill:#06A886;}
	.st6{fill:#FDD304;}
	.st7{fill:#F7841C;}
	.st8{fill:#808285;}
	.st9{fill:#282828;}
</style>
<symbol  id="svg-logo-color" viewBox="-115.2 -24.8 48.6 49.5">
	<path class="st0" d="M-90.8,10.2c-1.3,0-2.3,1.3-2.3,3v8.5c0,1.7,1,3,2.3,3s2.3-1.3,2.3-3v-8.5C-88.5,11.5-89.5,10.2-90.8,10.2z"/>
	<path class="st1" d="M-90.8-24.8c-1.3,0-2.3,1.4-2.3,3.1v8.6c0,1.7,1,3.1,2.3,3.1s2.3-1.4,2.3-3.1v-8.6
		C-88.5-23.4-89.5-24.8-90.8-24.8z"/>
	<path class="st2" d="M-103.8-2.8h-8.4c-1.7,0-3,1-3,2.4c0,1.3,1.3,2.4,3,2.4h8.4c1.7,0,3-1,3-2.4C-100.8-1.7-102.1-2.8-103.8-2.8z"
		/>
	<path class="st3" d="M-69.6-2.8h-8.5c-1.7,0-3,1-3,2.4c0,1.3,1.3,2.4,3,2.4h8.5c1.7,0,3-1,3-2.4C-66.6-1.7-67.9-2.8-69.6-2.8z"/>
	<path class="st4" d="M-97.4,6.8c-0.4-0.4-0.9-0.6-1.5-0.6c-0.9,0-1.7,0.4-2.3,1l-5.9,6c-0.6,0.6-1,1.5-1,2.3c0,0.5,0.2,1.1,0.6,1.5
		c0.4,0.4,0.9,0.6,1.5,0.6c0.9,0,1.7-0.4,2.3-1l5.9-6c0.6-0.6,1-1.5,1.1-2.3C-96.8,7.7-97.1,7.2-97.4,6.8z"/>
	<path class="st5" d="M-73.3-17.2c-0.4-0.4-0.9-0.6-1.4-0.6c-0.9,0-1.7,0.4-2.3,1.1l-6,6.1c-0.6,0.6-1,1.5-1.1,2.4
		c0,0.5,0.2,1.1,0.6,1.5c0.4,0.4,0.9,0.6,1.4,0.6c0.9,0,1.7-0.4,2.3-1.1l6-6.1c0.7-0.6,1-1.5,1.1-2.4
		C-72.7-16.3-72.9-16.8-73.3-17.2z"/>
	<path class="st6" d="M-97.9-10.7l-5.9-6c-0.6-0.6-1.4-1-2.3-1c-1.1,0-2,0.8-2,1.9c0,0,0,0.1,0,0.1c0,0.9,0.4,1.7,1.1,2.3l5.9,6
		c0.6,0.6,1.4,1,2.3,1c1.1,0,2-0.8,2-1.9c0,0,0-0.1,0-0.1C-96.9-9.3-97.3-10.1-97.9-10.7z"/>
	<path class="st7" d="M-73.8,13.4l-6-6.1c-0.6-0.7-1.4-1-2.3-1.1c-1.1,0-2,0.8-2,1.9c0,0,0,0.1,0,0.1c0,0.9,0.4,1.8,1.1,2.4l6,6.1
		c0.6,0.7,1.4,1,2.3,1.1c1.1,0,2-0.8,2-1.9c0,0,0-0.1,0-0.1C-72.8,14.9-73.1,14-73.8,13.4z"/>
	<path class="st8" d="M-94.2-0.3c0-1.9,1.6-3.5,3.5-3.5s3.5,1.6,3.5,3.5s-1.6,3.5-3.5,3.5S-94.2,1.7-94.2-0.3z"/>
</symbol>
<g>
	<g>
		<path class="st9" d="M98,99.8h-3.2c-0.3,0-0.6-0.3-0.6-0.6V72.3c0-0.3,0.3-0.6,0.6-0.6H98c0.3,0,0.6,0.3,0.6,0.6v15.9l6.7-7.8
			c0.1-0.1,0.3-0.2,0.5-0.2h3.6c0.5,0,0.8,0.6,0.5,1l-7.4,8.4l7.9,9.2c0.3,0.4,0.1,1-0.5,1h-3.6c-0.2,0-0.3-0.1-0.5-0.2l-7.2-8.2
			v7.7C98.6,99.6,98.4,99.8,98,99.8z"/>
	</g>
	<g>
		<path class="st9" d="M109.9,100h-3.6c-0.2,0-0.4-0.1-0.6-0.3l-6.9-7.9v7.4c0,0.2-0.1,0.4-0.2,0.5s-0.3,0.2-0.5,0.2h-3.2
			c-0.4,0-0.7-0.3-0.7-0.7V72.3c0-0.4,0.3-0.7,0.7-0.7H98c0.2,0,0.4,0.1,0.5,0.2s0.2,0.3,0.2,0.5v15.5l6.5-7.5
			c0.1-0.2,0.3-0.3,0.6-0.3h3.6c0.3,0,0.6,0.2,0.7,0.4c0.1,0.3,0.1,0.6-0.1,0.8l-7.3,8.4l7.8,9.1c0.2,0.2,0.2,0.5,0.1,0.8
			C110.4,99.8,110.2,100,109.9,100z M98.5,91.1l7.4,8.4c0.1,0.1,0.2,0.2,0.4,0.2h3.6c0.2,0,0.4-0.1,0.4-0.3c0.1-0.2,0.1-0.4-0.1-0.5
			l-8-9.2l7.5-8.5c0.1-0.1,0.2-0.3,0.1-0.5s-0.2-0.3-0.4-0.3h-3.6c-0.1,0-0.3,0.1-0.4,0.2l-6.9,8V72.4c0-0.1-0.1-0.3-0.1-0.3
			C98.3,72,98.2,72,98.1,72h-3.2c-0.3,0-0.5,0.2-0.5,0.5v26.9c0,0.3,0.2,0.5,0.5,0.5H98c0.1,0,0.3-0.1,0.3-0.1
			c0.1-0.1,0.1-0.2,0.1-0.3L98.5,91.1z"/>
	</g>
	<g>
		<path class="st9" d="M122.5,96.3c-3.4,0-6.1-2.8-6.1-6.3s2.7-6.3,6.1-6.3s6.1,2.8,6.1,6.3S125.9,96.3,122.5,96.3z M132.8,99.2
			V80.8c0-0.3-0.3-0.6-0.6-0.6H129c-0.3,0-0.6,0.3-0.6,0.6v2.4l-0.2-0.3c-1.4-2-3.8-3.1-6.6-3.1c-5.4,0-9.6,4.5-9.6,10.3
			s4.2,10.3,9.6,10.3c2.7,0,5.2-1.2,6.6-3.3l0.2-0.3v2.5c0,0.3,0.3,0.6,0.6,0.6h3.1C132.5,99.8,132.8,99.6,132.8,99.2z"/>
	</g>
	<g>
		<path class="st9" d="M121.5,100.4c-5.4,0-9.7-4.6-9.7-10.4s4.3-10.4,9.7-10.4c2.8,0,5.3,1.2,6.7,3.2v-2c0-0.4,0.3-0.7,0.7-0.7h3.1
			c0.4,0,0.7,0.3,0.7,0.7v18.4c0,0.4-0.3,0.7-0.7,0.7h-3c-0.4,0-0.7-0.3-0.7-0.7v-2.1C126.8,99.2,124.3,100.4,121.5,100.4z
			 M121.5,79.9c-5.3,0-9.4,4.5-9.4,10.2s4.1,10.2,9.4,10.2c2.6,0,5.1-1.2,6.5-3.3l0.5-0.6v2.9c0,0.3,0.2,0.5,0.5,0.5h3.1
			c0.3,0,0.5-0.2,0.5-0.5V80.8c0-0.3-0.2-0.5-0.5-0.5H129c-0.3,0-0.5,0.2-0.5,0.5v2.8L128,83C126.7,81,124.3,79.9,121.5,79.9z
			 M122.5,96.4c-3.5,0-6.2-2.8-6.2-6.4s2.7-6.4,6.2-6.4s6.2,2.8,6.2,6.4S126,96.4,122.5,96.4z M122.5,83.9c-3.3,0-6,2.7-6,6.2
			s2.6,6.2,6,6.2c3.3,0,6-2.7,6-6.2S125.9,83.9,122.5,83.9z"/>
	</g>
	<g>
		<path class="st9" d="M136.7,72.3v26.9c0,0.3,0.3,0.6,0.6,0.6h3.2c0.3,0,0.6-0.3,0.6-0.6V72.3c0-0.3-0.3-0.6-0.6-0.6h-3.2
			C137,71.7,136.7,72,136.7,72.3z"/>
	</g>
	<g>
		<path class="st9" d="M140.6,100h-3.2c-0.4,0-0.7-0.3-0.7-0.7v-27c0-0.4,0.3-0.7,0.7-0.7h3.2c0.4,0,0.7,0.3,0.7,0.7v26.9
			C141.3,99.6,141,100,140.6,100z M137.3,71.8c-0.3,0-0.5,0.2-0.5,0.5v26.9c0,0.3,0.2,0.5,0.5,0.5h3.2c0.3,0,0.5-0.2,0.5-0.5V72.3
			c0-0.3-0.2-0.5-0.5-0.5H137.3z"/>
	</g>
	<g>
		<path class="st9" d="M153.2,100.3c1.4,0,2.4-0.2,3.1-0.5c0.2-0.1,0.4-0.3,0.4-0.6v-2.6c0-0.4-0.4-0.7-0.8-0.6
			c-0.4,0.1-0.8,0.2-1.3,0.2c-2.2,0-3.2-1-3.2-3.3v-9h4.7c0.3,0,0.6-0.3,0.6-0.6v-2.5c0-0.3-0.3-0.6-0.6-0.6h-4.7V76
			c0-0.3-0.3-0.6-0.6-0.6h-3.2c-0.3,0-0.6,0.3-0.6,0.6v4.2h-2.3c-0.3,0-0.6,0.3-0.6,0.6v2.5c0,0.3,0.3,0.6,0.6,0.6h2.3v9.9
			C146.9,97.9,149.3,100.3,153.2,100.3z"/>
	</g>
	<g>
		<path class="st9" d="M153.2,100.4c-4,0-6.4-2.5-6.4-6.6V84h-2.2c-0.4,0-0.7-0.3-0.7-0.7v-2.5c0-0.4,0.3-0.7,0.7-0.7h2.2v-4
			c0-0.4,0.3-0.7,0.7-0.7h3.2c0.4,0,0.7,0.3,0.7,0.7v4h4.5c0.4,0,0.7,0.3,0.7,0.7v2.5c0,0.4-0.3,0.7-0.7,0.7h-4.5v8.9
			c0,2.2,0.9,3.2,3.1,3.2c0.4,0,0.8-0.1,1.2-0.2c0.2-0.1,0.5,0,0.7,0.1s0.3,0.4,0.3,0.6v2.6c0,0.3-0.2,0.6-0.5,0.7
			C155.4,100.3,154.4,100.4,153.2,100.4z M144.6,80.3c-0.3,0-0.5,0.2-0.5,0.5v2.5c0,0.3,0.2,0.5,0.5,0.5h2.5v10c0,4,2.3,6.4,6.1,6.4
			c1.2,0,2.2-0.2,3-0.5c0.2-0.1,0.3-0.3,0.3-0.5v-2.6c0-0.2-0.1-0.3-0.2-0.4c-0.1-0.1-0.3-0.1-0.4-0.1c-0.4,0.1-0.9,0.2-1.3,0.2
			c-2.2,0-3.3-1.1-3.3-3.4v-9.2h4.8c0.3,0,0.5-0.2,0.5-0.5v-2.5c0-0.3-0.2-0.5-0.5-0.5h-4.8V76c0-0.3-0.2-0.5-0.5-0.5h-3.2
			c-0.3,0-0.5,0.2-0.5,0.5v4.3H144.6z"/>
	</g>
	<g>
		<path class="st9" d="M168,100.3c2.5,0,4.6-1.1,5.9-3.1l0.2-0.4v2.3c0,0.3,0.3,0.6,0.6,0.6h3.2c0.3,0,0.6-0.3,0.6-0.6V80.8
			c0-0.3-0.3-0.6-0.6-0.6h-3.2c-0.3,0-0.6,0.3-0.6,0.6v9.7c0,3.4-1.9,5.7-4.7,5.7s-4.4-1.9-4.4-5.1V80.8c0-0.3-0.3-0.6-0.6-0.6h-3.2
			c-0.3,0-0.6,0.3-0.6,0.6V92C160.5,97.1,163.4,100.3,168,100.3z"/>
	</g>
	<g>
		<path class="st9" d="M168,100.4c-4.7,0-7.6-3.2-7.6-8.4V80.8c0-0.4,0.3-0.7,0.7-0.7h3.2c0.4,0,0.7,0.3,0.7,0.7v10.3
			c0,3.1,1.6,4.9,4.3,4.9c2.8,0,4.6-2.2,4.6-5.5v-9.7c0-0.4,0.3-0.7,0.7-0.7h3.2c0.4,0,0.7,0.3,0.7,0.7v18.4c0,0.4-0.3,0.7-0.7,0.7
			h-3.2c-0.4,0-0.7-0.3-0.7-0.7v-1.9C172.7,99.3,170.5,100.4,168,100.4z M161.1,80.3c-0.3,0-0.5,0.2-0.5,0.5V92c0,5,2.8,8.1,7.3,8.1
			c2.5,0,4.6-1.1,5.8-3l0.5-0.7v2.7c0,0.3,0.2,0.5,0.5,0.5h3.2c0.3,0,0.5-0.2,0.5-0.5V80.8c0-0.3-0.2-0.5-0.5-0.5h-3.2
			c-0.3,0-0.5,0.2-0.5,0.5v9.7c0,3.5-1.9,5.8-4.9,5.8c-2.8,0-4.5-1.9-4.5-5.2V80.8c0-0.3-0.2-0.5-0.5-0.5H161.1z"/>
	</g>
	<g>
		<path class="st9" d="M192.9,84.3c0.2,0,0.3,0,0.4,0c0.4,0,0.7-0.3,0.7-0.6v-3.3c0-0.3-0.3-0.6-0.6-0.6c-0.1,0-0.1,0-0.2,0
			c-2.6,0-4.8,1.5-5.8,3.7l-0.2,0.6v-3.3c0-0.3-0.3-0.6-0.6-0.6h-3.1c-0.3,0-0.6,0.3-0.6,0.6v18.4c0,0.3,0.3,0.6,0.6,0.6h3.2
			c0.3,0,0.6-0.3,0.6-0.6v-8C187.3,87,189.5,84.3,192.9,84.3z"/>
	</g>
	<g>
		<path class="st9" d="M186.6,100h-3.2c-0.4,0-0.7-0.3-0.7-0.7V80.8c0-0.4,0.3-0.7,0.7-0.7h3.1c0.4,0,0.7,0.3,0.7,0.7v2.7
			c1-2.3,3.3-3.8,5.9-3.8c0.1,0,0.1,0,0.2,0c0.4,0,0.7,0.3,0.7,0.7v3.3c0,0.2-0.1,0.4-0.2,0.5c-0.1,0.1-0.3,0.2-0.6,0.2
			c-0.1,0-0.3,0-0.4,0c-3.4,0-5.5,2.7-5.5,6.8v8C187.4,99.6,187,100,186.6,100z M183.5,80.3c-0.3,0-0.5,0.2-0.5,0.5v18.4
			c0,0.3,0.2,0.5,0.5,0.5h3.2c0.3,0,0.5-0.2,0.5-0.5v-8c0-4.3,2.3-7,5.8-7c0.2,0,0.3,0,0.4,0c0.1,0,0.3,0,0.4-0.1
			c0.1-0.1,0.2-0.2,0.2-0.4v-3.3c0-0.3-0.2-0.5-0.5-0.5c-0.1,0-0.1,0-0.2,0c-2.5,0-4.8,1.4-5.7,3.7l-0.2,0.6h-0.2v-3.3
			c0-0.3-0.2-0.5-0.5-0.5L183.5,80.3L183.5,80.3z"/>
	</g>
	<g>
		<path class="st9" d="M205.6,96.3c-3.4,0-6.1-2.8-6.1-6.3s2.7-6.3,6.1-6.3s6.1,2.8,6.1,6.3C211.7,93.5,209,96.3,205.6,96.3z
			 M215.9,99.2V80.8c0-0.3-0.3-0.6-0.6-0.6h-3.1c-0.3,0-0.6,0.3-0.6,0.6v2.4l-0.2-0.3c-1.4-2-3.8-3.1-6.6-3.1
			c-5.4,0-9.6,4.5-9.6,10.3s4.2,10.3,9.6,10.3c2.7,0,5.2-1.2,6.6-3.3l0.2-0.3v2.5c0,0.3,0.3,0.6,0.6,0.6h3.1
			C215.6,99.8,215.9,99.6,215.9,99.2z"/>
	</g>
	<g>
		<path class="st9" d="M204.7,100.4c-5.4,0-9.7-4.6-9.7-10.4s4.3-10.4,9.7-10.4c2.8,0,5.3,1.2,6.7,3.2v-2c0-0.4,0.3-0.7,0.7-0.7h3.1
			c0.4,0,0.7,0.3,0.7,0.7v18.4c0,0.4-0.3,0.7-0.7,0.7h-3.1c-0.4,0-0.7-0.3-0.7-0.7v-2.1C209.9,99.2,207.4,100.4,204.7,100.4z
			 M204.7,79.9c-5.3,0-9.4,4.5-9.4,10.2s4.1,10.2,9.4,10.2c2.6,0,5.1-1.2,6.5-3.3l0.5-0.6v2.9c0,0.3,0.2,0.5,0.5,0.5h3.1
			c0.3,0,0.5-0.2,0.5-0.5V80.8c0-0.3-0.2-0.5-0.5-0.5h-3.1c-0.3,0-0.5,0.2-0.5,0.5v2.8l-0.5-0.6C209.8,81,207.4,79.9,204.7,79.9z
			 M205.6,96.4c-3.5,0-6.2-2.8-6.2-6.4s2.7-6.4,6.2-6.4s6.2,2.8,6.2,6.4S209.1,96.4,205.6,96.4z M205.6,83.9c-3.3,0-6,2.7-6,6.2
			s2.6,6.2,6,6.2c3.3,0,6-2.7,6-6.2S209,83.9,205.6,83.9z"/>
	</g>
</g>
<use xlink:href="#svg-logo-color"  width="48.6" height="49.5" id="XMLID_00000001651539006393634900000004453050828321201828_" x="-115.2" y="-24.8" transform="matrix(0.9839 0 0 0.9839 149.565 85)" style="overflow:visible;"/>
</svg>
