<svg width="142" height="40" viewBox="0 0 142 40" fill="none" xmlns="http://www.w3.org/2000/svg">
<path fill-rule="evenodd" clip-rule="evenodd" d="M17.4985 36C26.3352 36 33.4987 28.8365 33.4987 20C33.4987 11.2995 26.5542 4.22106 17.9057 4.00504C17.7709 4.00169 17.6358 4 17.5002 4C8.66353 4 1.5 11.1635 1.5 20C1.5 23.4787 2.61018 26.6981 4.49557 29.3233C4.49601 29.3246 4.49645 29.326 4.49689 29.3274C7.40103 33.3683 12.1424 36 17.4985 36ZM3.41688 19.9577C3.41688 22.7086 4.2081 25.2747 5.57538 27.4409C9.33515 32.6081 11.9788 31.9429 18.8531 26.5389C21.8785 24.1606 24.5684 24.3701 26.7115 24.5371C28.8819 24.7062 30.4914 24.8316 31.3204 22.1809C31.4356 21.4568 31.4954 20.7142 31.4954 19.9577C31.4954 12.2041 25.2098 5.91854 17.4562 5.91854C9.70248 5.91854 3.41688 12.2041 3.41688 19.9577Z" fill="url(#paint0_linear_250_2439)"/>
<path d="M54.7829 29.7684L54.908 22.9253H54.0921L53.3068 25.701C52.8673 27.2071 52.2284 28.1651 51.3912 28.574C50.9517 28.7894 50.439 28.8972 49.8531 28.8972H46.2732V11.2712H48.9426V10.4L39.8999 10.4V11.2712H42.4116V28.8972H39.8999V29.7684L54.7829 29.7684Z" fill="black"/>
<path d="M61.718 28.7345C60.5461 28.7345 59.9174 27.8738 59.8339 26.1523C59.8339 26.0446 59.8339 25.9369 59.8339 25.8291C59.8339 24.366 60.546 23.4404 61.9692 23.0534C62.6386 22.8599 63.4972 22.7522 64.544 22.7302V25.6681C64.1879 27.1312 63.5186 28.0892 62.5348 28.5411C62.2408 28.6707 61.9692 28.7345 61.718 28.7345ZM67.7149 30.091C69.2011 30.091 70.1218 29.4886 70.4778 28.2838C70.5826 27.8529 70.6559 27.3373 70.6976 26.7338L69.8817 26.7014C69.7566 28.2074 69.3792 28.972 68.7515 28.9929C68.2703 28.95 68.0292 28.4114 68.0292 27.3791V20.5998C68.0292 17.8241 66.7525 16.1769 64.1981 15.6612C63.6752 15.5535 63.1198 15.5002 62.5338 15.5002C59.896 15.5002 58.19 16.1026 57.4159 17.3074C57.1859 17.6515 57.07 18.0176 57.07 18.4045C57.07 19.1367 57.4047 19.6094 58.0751 19.8248C58.2633 19.8897 58.4515 19.9221 58.6407 19.9221C59.3945 19.9221 59.9174 19.5236 60.2103 18.7277C60.252 18.62 60.3151 18.437 60.3985 18.1786C60.6498 17.2959 60.9743 16.7479 61.3721 16.5325C61.6437 16.4038 61.9479 16.339 62.2826 16.339C63.5389 16.339 64.2714 17.1024 64.4809 18.6305C64.5226 18.9745 64.544 19.3511 64.544 19.76V21.8256C59.0598 21.9113 56.307 23.386 56.2856 26.2485C56.2856 28.0997 57.071 29.2941 58.6407 29.8317C59.1432 30.0042 59.6875 30.09 60.2734 30.09C61.9275 30.09 63.2144 29.4876 64.135 28.2827C64.3863 27.9167 64.5847 27.5402 64.7312 27.1532C65.0669 29.0901 66.0618 30.0691 67.7149 30.091Z" fill="black"/>
<path d="M78.9513 35.1602C76.5861 35.1602 75.1202 34.5902 74.5556 33.4492C74.4304 33.1908 74.3674 32.9221 74.3674 32.6418C74.3887 32.1471 74.5769 31.6513 74.933 31.1566C75.3521 31.3072 75.76 31.3826 76.1578 31.3826L82.0296 31.4474C83.3694 31.4694 84.1435 31.7162 84.3531 32.19C84.4365 32.3625 84.4782 32.556 84.4782 32.7715C84.4782 33.7619 83.5677 34.4605 81.7468 34.8695C80.8872 35.0629 79.9563 35.1602 78.9513 35.1602ZM78.8567 15.5011C76.5962 15.5011 74.9004 16.2437 73.7702 17.7288C73.1008 18.6115 72.7651 19.6333 72.7651 20.7953C72.7651 22.3662 73.5078 23.7216 74.994 24.8626C75.2239 25.0352 75.4548 25.1963 75.6848 25.3469C74.4711 25.3249 73.6329 25.8844 73.1731 27.0255C73.0266 27.4125 72.9533 27.8109 72.9533 28.2199C72.9747 29.2741 73.3826 30.1139 74.1782 30.7383C73.5922 31.4056 73.2992 32.0937 73.2992 32.8039C73.2992 33.9658 74.0215 34.8381 75.466 35.4185C76.4294 35.8055 77.5912 36 78.9513 36C82.3002 36 84.4884 35.1926 85.5138 33.5789C85.8281 33.0413 85.9848 32.4818 85.9848 31.9003C85.9848 29.9204 84.9278 28.7585 82.8139 28.4144C82.4792 28.3495 82.1334 28.3171 81.7773 28.3171L75.5291 28.1885C74.8801 28.1665 74.5037 27.8873 74.3989 27.3497C74.3775 27.2639 74.3674 27.1886 74.3674 27.1238C74.3674 26.6291 74.6502 26.3279 75.2148 26.2202C75.3399 26.1982 75.4559 26.1877 75.5606 26.1877L78.6379 26.2202H78.7325C80.9095 26.2202 82.5637 25.4671 83.6939 23.9601C84.406 22.9916 84.761 21.9154 84.761 20.7315C84.7396 19.1606 84.1649 17.8804 83.0336 16.89C83.3266 16.2018 83.7559 15.8462 84.3205 15.8243C84.5932 15.8243 84.9278 16.0073 85.3256 16.3734C85.6186 16.6097 85.88 16.7289 86.1109 16.7289C86.6969 16.7289 87.053 16.4382 87.1781 15.8577C87.1994 15.75 87.2096 15.6538 87.2096 15.567C87.2096 14.814 86.8536 14.2869 86.1425 13.9856C85.8495 13.8779 85.5352 13.8246 85.2005 13.8246C84.1537 13.8246 83.3266 14.4061 82.7203 15.568C82.5738 15.8483 82.4589 16.1276 82.3744 16.4068C81.3897 15.8023 80.2178 15.5011 78.8567 15.5011ZM76.2819 20.8591C76.2819 18.6858 76.6166 17.3293 77.287 16.7917C77.643 16.4905 78.1344 16.3399 78.7631 16.3399C79.9767 16.3399 80.7305 16.9528 81.0235 18.1796C81.17 18.782 81.2432 19.6542 81.2432 20.7942C81.2432 23.0104 80.8872 24.3993 80.1761 24.9589C79.7997 25.2381 79.3175 25.3782 78.7315 25.3782C77.5179 25.3782 76.7641 24.7214 76.4711 23.4089C76.345 22.8065 76.2819 21.9572 76.2819 20.8591Z" fill="black"/>
<path d="M103.722 28.9294H102.497V15.9523H97.1593V16.7597H99.0433L99.0118 24.5399C98.907 26.2614 98.2997 27.4662 97.1908 28.1555C96.7717 28.3918 96.3536 28.5111 95.9345 28.5111C94.553 28.5111 93.7575 27.7037 93.5479 26.0899C93.5062 25.8096 93.4849 25.5303 93.4849 25.2511V15.9523H88.021V16.7597H90.0301V24.7334C90.0515 28.2841 91.5479 30.0704 94.5205 30.0924C96.2163 30.0924 97.5662 29.3603 98.5713 27.8971C98.7809 27.574 98.9589 27.2518 99.1054 26.9287L99.262 29.7692H104.475C104.475 29.2745 104.338 29.0058 104.067 28.9618C103.962 28.9399 103.847 28.9294 103.722 28.9294Z" fill="black"/>
<path d="M112.856 28.9295H111.882L111.914 20.9559C112.06 19.2344 112.688 18.0504 113.798 17.4051C114.196 17.1897 114.593 17.082 114.991 17.082C116.163 17.082 116.907 17.7168 117.22 18.9865C117.325 19.3735 117.377 19.8044 117.377 20.2781V27.1861C117.377 28.0897 117.136 28.6283 116.654 28.7998C116.425 28.8856 116.089 28.9285 115.649 28.9285V29.7683H122.84C122.84 29.2945 122.703 29.0257 122.432 28.9609C122.307 28.9389 122.18 28.9285 122.055 28.9285H120.83V20.7613C120.83 18.222 119.972 16.5862 118.256 15.8541C117.711 15.6178 117.125 15.4985 116.498 15.4985C114.99 15.4985 113.713 16.1114 112.667 17.3382C112.332 17.7471 112.059 18.178 111.851 18.6299L111.694 15.9503H106.418V16.7578H108.428V27.184C108.428 28.1305 108.082 28.6796 107.391 28.8302C107.119 28.895 106.795 28.9274 106.417 28.9274V29.7672H113.639C113.639 29.2935 113.503 29.0247 113.231 28.9598C113.106 28.94 112.981 28.9295 112.856 28.9295Z" fill="black"/>
<path d="M130.12 28.7345C128.948 28.7345 128.32 27.8738 128.236 26.1523C128.236 26.0446 128.236 25.9369 128.236 25.8291C128.236 24.366 128.948 23.4404 130.372 23.0534C131.041 22.8599 131.9 22.7522 132.946 22.7302V25.6681C132.59 27.1312 131.921 28.0892 130.937 28.5411C130.643 28.6707 130.371 28.7345 130.12 28.7345ZM136.117 30.091C137.603 30.091 138.524 29.4886 138.88 28.2838C138.985 27.8529 139.058 27.3373 139.1 26.7338L138.284 26.7014C138.159 28.2074 137.781 28.972 137.154 28.9929C136.673 28.95 136.432 28.4114 136.432 27.3791V20.5998C136.432 17.8241 135.155 16.1769 132.6 15.6612C132.078 15.5535 131.522 15.5002 130.936 15.5002C128.298 15.5002 126.592 16.1026 125.818 17.3074C125.588 17.6515 125.472 18.0176 125.472 18.4045C125.472 19.1367 125.807 19.6094 126.477 19.8248C126.666 19.8897 126.854 19.9221 127.043 19.9221C127.797 19.9221 128.32 19.5236 128.613 18.7277C128.654 18.62 128.717 18.437 128.801 18.1786C129.052 17.2959 129.377 16.7479 129.774 16.5325C130.047 16.4038 130.35 16.339 130.685 16.339C131.941 16.339 132.674 17.1024 132.883 18.6305C132.925 18.9745 132.946 19.3511 132.946 19.76V21.8256C127.462 21.9113 124.709 23.386 124.688 26.2485C124.688 28.0997 125.473 29.2941 127.043 29.8317C127.546 30.0042 128.09 30.09 128.676 30.09C130.33 30.09 131.617 29.4876 132.537 28.2827C132.789 27.9167 132.987 27.5402 133.134 27.1532C133.469 29.0901 134.463 30.0691 136.117 30.091Z" fill="black"/>
<defs>
<linearGradient id="paint0_linear_250_2439" x1="1.5" y1="4" x2="39.5086" y2="25.2511" gradientUnits="userSpaceOnUse">
<stop stop-color="#E624C6"/>
<stop offset="1" stop-color="#783BF2"/>
</linearGradient>
</defs>
</svg>
