<svg width="108" height="24" viewBox="0 0 108 24" fill="none" xmlns="http://www.w3.org/2000/svg">
<path d="M37.3672 2.65771V21.8536H41.2878V8.99217L46.2815 21.8536H49.6243L54.618 8.99217V21.8536H58.5386V2.65771H53.2492L48.0974 16.7503L42.7735 2.65771H37.3672Z" fill="#3BECD4"/>
<path d="M60.9941 2.65771V21.8536H74.1789V18.3185H65.1002V13.8754H72.2256V10.5053H65.1071V6.19978H73.8831V2.65771H60.9941Z" fill="#3BECD4"/>
<path d="M75.0684 15.5467C75.1234 19.2745 78.3562 22.0187 83.0197 22.0187C87.3255 22.0187 90.4758 19.467 90.5033 15.9594C90.5308 12.094 87.6213 11.1036 84.3335 10.5053C81.1557 9.90002 79.6424 9.56989 79.6424 8.00863C79.6424 6.5299 80.9012 5.7871 82.6551 5.7871C84.6567 5.7871 85.9155 6.90818 86.0805 8.53134H90.1112C90.0287 5.05117 86.9335 2.49951 82.6551 2.49951C78.4869 2.49951 75.5017 4.94113 75.5017 8.31125C75.5017 12.2041 78.3562 13.2495 81.589 13.8479C84.7943 14.4806 86.3626 14.8108 86.3626 16.427C86.3626 17.9333 84.9663 18.7586 83.0747 18.7586C80.7155 18.7586 79.2366 17.4725 79.0991 15.6086L75.0684 15.5467Z" fill="#3BECD4"/>
<path d="M92.1523 2.65771V21.8536H96.2656V13.9304H103.887V21.8536H108V2.65771H103.887V10.3608H96.2656V2.65771H92.1523Z" fill="#3BECD4"/>
<path fill-rule="evenodd" clip-rule="evenodd" d="M30.8605 11.114L28.5829 1.44417C28.293 0.220493 26.8506 0.396308 26.471 0.8042C25.3008 2.04846 23.1153 4.22188 21.1952 6.11063L20.0928 1.44441C19.8029 0.220737 18.3605 0.396552 17.9809 0.804444C16.8115 2.04777 14.6285 4.21886 12.7094 6.10661L11.6113 1.44441C11.3214 0.220737 9.87897 0.396552 9.49937 0.804444C7.11137 3.33619 0.527115 9.7218 0.527115 9.7218C0.0232877 10.2211 -0.149256 11.6136 0.140617 12.8373L2.42509 22.5001C2.71497 23.7237 4.0539 23.6253 4.4404 23.2455C5.23783 22.455 7.67837 20.0287 9.82598 17.8931L10.9135 22.493C11.2034 23.7167 12.5423 23.6183 12.9288 23.2385C13.7262 22.448 16.1668 20.0216 18.3145 17.886L19.4036 22.4928C19.6935 23.7165 21.0324 23.618 21.4189 23.2383C22.9442 21.7262 30.4809 14.2295 30.4809 14.2295C30.9847 13.7372 31.1504 12.3377 30.8605 11.114Z" fill="#3BECD4"/>
</svg>