<svg width="860" height="143" viewBox="0 0 860 143" fill="none" xmlns="http://www.w3.org/2000/svg">
<path d="M420.536 27.6114C417.683 27.6114 413.404 27.6846 410.552 28.4891L392.924 38.5829L394.058 41.6183C399.361 39.5703 406.054 38.8389 411.539 38.8389C432.751 38.8389 443.795 51.8949 443.795 82.1029C443.795 91.2823 442.991 100.864 440.723 109.861L442.369 112.311L456.998 103.863C458.643 97.536 459.302 87.0034 459.302 77.3851C459.302 41.2526 441.747 27.5749 420.536 27.5749V27.6114Z" fill="#162F52"/>
<path d="M413.258 118.126C392.047 118.126 381.002 105.07 381.002 74.8617C381.002 65.6823 381.88 56.1737 384.111 47.1771L382.428 44.6537L367.8 53.1017C366.154 59.4286 365.496 69.9612 365.496 79.5794C365.496 115.712 383.05 129.39 404.262 129.39C407.114 129.39 411.393 129.317 414.246 128.512L431.873 118.418L430.739 115.383C425.436 117.431 418.744 118.162 413.258 118.162V118.126Z" fill="#162F52"/>
<path d="M209.336 28.1234L182.492 43.6297L183.37 46.6651L194.195 42.7154V121.929L180.591 125.586V127.963H223.343V125.586L209.336 121.819V28.1234Z" fill="#162F52"/>
<path d="M332.618 122.222V60.4891C332.618 37.0103 324.243 27.6114 302.63 27.6114C300.582 27.6114 297.729 27.8309 295.059 28.416C293.779 29.0377 277.395 38.5829 277.395 38.5829L278.346 41.6183C278.346 41.6183 285.99 38.8389 295.279 38.8389C311.809 38.8389 317.112 46.1897 317.112 65.9749V97.6091C317.112 110.373 316.673 119.845 309.798 123.026C306.872 124.416 301.862 125.586 301.862 125.586V127.963H344.614V125.586L332.618 122.222Z" fill="#162F52"/>
<path d="M624.092 117.321C612.243 117.321 607.16 110.592 607.16 97.9383C607.16 95.488 607.379 92.6354 607.782 89.7829L641.647 81.0057V77.9337L606.136 80.384L592.678 88.5394C591.471 92.0137 590.849 97.536 590.849 102.437C590.849 117.541 599.004 129.975 615.754 129.975C619.228 129.975 621.459 129.755 624.129 128.951C627.384 127.305 641.281 119.442 644.134 117.614L642.927 115.383C637.624 117.431 629.871 117.321 624.166 117.321H624.092Z" fill="#162F52"/>
<path d="M670.831 93.5497L670.502 61.2206C670.502 37.7417 662.127 28.3429 640.513 28.3429C638.465 28.3429 635.612 28.5623 632.943 29.1474C631.663 29.7691 615.279 39.3143 615.279 39.3143L616.23 42.3497C616.23 42.3497 623.873 39.5703 633.162 39.5703C649.692 39.5703 654.995 46.9211 654.995 66.7063L655.142 98.56C655.251 118.345 657.738 125.989 665.711 129.17L686.556 117.175L685.02 115.163C671.855 120.905 670.831 116.37 670.831 93.5131V93.5497Z" fill="#162F52"/>
<path d="M273.482 122.112V60.3794C273.482 36.9006 265.107 27.5017 243.494 27.5017C241.446 27.5017 238.593 27.7211 235.923 28.3063C234.643 28.928 218.259 38.4731 218.259 38.4731L219.21 41.5086C219.21 41.5086 226.854 38.7291 236.143 38.7291C252.673 38.7291 257.976 46.08 257.976 65.8651V97.4994C257.976 110.263 257.537 119.735 250.662 122.917C247.736 124.306 242.726 125.477 242.726 125.477V127.854H285.478V125.477L273.482 122.112Z" fill="#162F52"/>
<path d="M528.312 39.5703C540.271 39.0217 547.548 42.2766 552.924 46.4457L561.519 33.1703C554.936 30.4274 547.183 28.3794 538.588 28.3794C535.334 28.3794 532.481 28.5989 529.592 29.4034L512.659 39.2411L513.61 42.2766C517.889 40.6309 523.814 39.7531 528.312 39.5337V39.5703Z" fill="#162F52"/>
<path d="M540.124 76.1783C536.87 75.1909 522.972 70.8389 518.694 69.6686C507.064 66.5234 502.639 62.1714 502.639 57.4537C502.639 54.6743 503.955 50.1029 505.382 47.5063C504.979 47.104 503.443 44.6171 503.443 44.6171L490.753 51.8949C489.546 54.6743 488.047 57.9291 488.047 61.4766C488.047 69.9612 493.788 77.7508 515.439 84.2971L535.224 90.4411C546.854 93.9886 549.706 99.7303 549.706 104.485C549.706 107.045 548.902 109.641 547.475 111.616L549.121 113.774L561.994 106.459C563.018 103.899 563.64 101.12 563.64 98.56C563.64 88.4663 556.911 81.3714 540.161 76.2149L540.124 76.1783Z" fill="#162F52"/>
<path d="M526.52 117.76C514.561 118.309 507.283 115.054 491.887 103.095L483.292 116.37C499.896 126.903 507.649 128.914 516.243 128.914C519.498 128.914 522.351 128.695 525.24 127.89L542.172 118.053L541.222 115.017C536.943 116.663 531.018 117.541 526.52 117.76Z" fill="#162F52"/>
<path d="M826.04 38.7657C837.999 38.2171 845.276 41.472 850.652 45.6411L859.247 32.3657C852.664 29.6229 844.911 27.5749 836.316 27.5749C833.062 27.5749 830.209 27.7943 827.32 28.5989L810.387 38.4366L811.338 41.472C815.617 39.8263 821.542 38.9486 826.04 38.7291V38.7657Z" fill="#162F52"/>
<path d="M830.063 118.126C808.851 118.126 797.807 105.07 797.807 74.8617C797.807 65.6823 798.611 56.1006 800.879 47.104L799.233 44.6537L784.604 53.1017C782.959 59.4286 782.3 69.9612 782.3 79.5794C782.3 115.712 799.855 129.39 821.066 129.39C823.919 129.39 832.074 128.658 834.927 127.854L855.224 116.078L854.017 113.627C848.714 115.675 835.585 118.162 830.063 118.162V118.126Z" fill="#162F52"/>
<path d="M736.476 21.2114L740.572 0H721.372L725.651 21.2114H736.476Z" fill="#162F52"/>
<path d="M740.572 29.2571L713.692 44.7634L714.607 47.7989L725.432 42.8983V123.063L711.791 126.72V129.097H754.543V126.72L740.572 122.953V29.2571Z" fill="#162F52"/>
<path d="M46.4101 37.0834L46.9221 14.2628H14.8124C7.02271 14.2628 0.732422 20.5531 0.732422 28.3428V72.2651L43.5576 42.3863C45.313 41.1794 46.3736 39.2045 46.4101 37.0834Z" fill="#3A26F9"/>
<path d="M54.6387 50.6514L52.6639 48.8594C50.4696 46.8845 47.1781 46.6651 44.7279 48.384L0.768994 79.0674V127.013C0.768994 134.802 7.05928 141.093 14.849 141.093H65.6467L56.7599 54.784C56.6136 53.2114 55.8456 51.7485 54.6753 50.688L54.6387 50.6514Z" fill="#D4CFFF"/>
<path d="M63.1599 62.5737L71.2421 141.056H113.482C121.272 141.056 127.562 134.766 127.562 126.976V77.8971L69.5233 57.5634C66.1953 56.3931 62.7941 59.0994 63.1599 62.5737Z" fill="#927EFF"/>
<path d="M113.482 14.2628H52.5176L51.969 37.632C51.9324 39.6068 52.737 41.472 54.1999 42.7885L59.5759 47.616C60.2341 48.2011 61.0021 48.6765 61.8433 48.9691L127.526 72.0091V28.3428C127.526 20.5531 121.235 14.2628 113.446 14.2628H113.482Z" fill="#162F52"/>
</svg>
