<svg xmlns="http://www.w3.org/2000/svg" height="800" width="1200" viewBox="-74.724 -44.2535 647.608 265.521"><path d="M 288.5 108.6 c -1.1 7.8 -2.9 13.7 -5.4 17.8 c -4.5 7.4 -10.9 11.1 -19.1 11.1 c -8 0 -14.3 -3.8 -19 -11.3 c -4.6 -7.5 -7 -19.9 -7 -37.2 c 0 -17.4 2.3 -29.9 7 -37.4 c 4.7 -7.5 10.9 -11.3 18.6 -11.3 c 8.1 0 14.4 3.7 19.1 11.1 c 2.8 4.4 4.7 10.2 5.8 17.6 h 38.5 c -2 -18.8 -7.3 -34.1 -15.8 -45.8 C 300.2 7.9 284.3 0.3 263.7 0.3 c -20.1 0 -35.8 7.8 -47 23.3 c -11.3 15.5 -16.9 37.3 -16.9 65.2 c 0 20 2.8 36.6 8.5 49.9 c 5.7 13.3 13.1 23 22.3 29.1 c 9.1 6.1 20.7 9.2 34.7 9.2 c 13.7 0 25.2 -3.6 34.4 -10.7 c 9.2 -7.1 16.2 -17.1 21.1 -29.8 c 3 -7.9 5.1 -17.2 6.2 -27.9 z M 0 0 h 35.2 L 81.1 97.7 V 0 h 35.5 v 176.6 H 81.1 L 35.4 79.6 v 97 H 0 z m 143.1 0 h 37.8 v 176.6 h -37.8 z m 197.2 0 h 101 v 37.7 h -63.2 v 28.1 h 58.6 v 36 h -58.6 v 34.8 h 65 v 40 H 340.3 z"/><path fill="#0067ad" d="M 102.8 67.7 h 40.1 v 40.1 h -40.1 z m 78.2 0 h 40.1 v 40.1 h -40.1 z m 145.4 0 h 40.1 v 40.1 h -40.1 z"/><path d="M466.357 34.082V12.607h9.126c2.295 0 3.962.193 5.003.579 1.039.387 1.872 1.072 2.497 2.059.625.985.938 2.113.938 3.384 0 1.611-.474 2.942-1.421 3.992-.947 1.05-2.363 1.711-4.248 1.984.938.547 1.711 1.147 2.322 1.803.608.653 1.433 1.815 2.468 3.485l2.622 4.189h-5.186l-3.136-4.673c-1.112-1.67-1.875-2.723-2.285-3.157-.409-.436-.845-.732-1.304-.895-.459-.161-1.187-.241-2.183-.241h-.879v8.965zm4.336-12.393h3.208c2.079 0 3.379-.088 3.896-.264a2.339 2.339 0 001.216-.908c.293-.429.439-.967.439-1.61 0-.724-.193-1.307-.578-1.75-.387-.444-.931-.726-1.634-.843-.353-.049-1.406-.072-3.164-.072h-3.384z"/><ellipse ry="20.4" rx="20.4" cy="23.4" cx="475.2" stroke-width="5" stroke="#000000" fill="none"/></svg>