<svg xmlns="http://www.w3.org/2000/svg" id="Layer_2" data-name="Layer 2" viewBox="0 0 133.9 19.36"><g id="BATCH_1_COPY_UPDATES_110722" data-name="BATCH 1 COPY UPDATES 110722"><g><path d="m31.37,0c-5.49,0-9.62,4.16-9.62,9.68,0,6.29,4.92,9.68,9.54,9.68,6.37,0,9.7-4.87,9.7-9.68,0-5.61-4.05-9.68-9.62-9.68Zm0,18.13c-4.08,0-7.16-3.64-7.16-8.46S27.22,1.25,31.37,1.25s7.16,3.54,7.16,8.43-3.08,8.46-7.16,8.46Z"></path><path d="m15.12,18.9h2.14V.43h-2.33v15.14l-.13-.15L2.2.43H0v18.46h2.33V3.45l12.79,15.45Z"></path><path d="m105.26,17.99c1.35.87,3,1.29,5.02,1.29,1.63,0,3.03-.39,4.05-1.13,1.29-.94,2.01-2.28,2.06-3.89,0-2.73-1.8-4.23-5.13-6.01h0s-.06-.03-.06-.03h0s-.06-.03-.06-.03h0c-1.75-.94-3.54-1.93-3.54-3.75,0-1.67,1.44-2.79,3.58-2.79,1.08,0,2.69.14,4.32,1.3v-1.89c-1.16-.68-2.57-1-4.32-1-3.57,0-5.97,1.92-5.97,4.77,0,2.61,2.04,4.06,4.25,5.24,3.07,1.61,4.52,2.59,4.52,4.54,0,1.81-1.59,3.12-3.78,3.12-1.81,0-3.38-.56-4.93-1.76v2.04Z"></path><path d="m125.3,18.9h2.49V1.83h6.11V.43h-14.74v1.39h6.14v17.07Z"></path><path d="m89.7,18.9h11.16v-1.39h-8.7v-7.34h7.93v-1.28h-7.93V1.83h8.46V.43h-10.92v18.46Z"></path><path d="m78.24,19.03h.56L85.54.43h-1.9l-4.88,13.53-.07-.19L74.03.35h-1.57l-5,13.62L62.57.43h-2.55l6.71,18.6h.6l5.53-14.81.07.18,5.3,14.63Z"></path><path d="m56.36,18.9h2.64l-5.22-8.25.18-.08c1.85-.85,2.88-2.54,2.88-4.76,0-3.31-2.29-5.37-5.99-5.37h-5.34v18.46h2.46v-7.72h3.52l.02.03,4.86,7.68Zm-6.09-8.96h-2.31V1.67h2.31c3.75,0,4.04,3.17,4.04,4.14s-.29,4.14-4.04,4.14Z"></path></g></g></svg>