<svg xmlns="http://www.w3.org/2000/svg" width="180" height="39" viewBox="0 0 180 39" fill="none" class="injected-svg" data-src="/assets/images/logo.svg" xmlns:xlink="http://www.w3.org/1999/xlink" role="img">
<path d="M113.073 18.7776H107.779V22.0903H111.538C111.642 22.0833 111.746 22.0984 111.843 22.1347C111.941 22.1711 112.029 22.2278 112.103 22.301C112.176 22.3742 112.233 22.4623 112.27 22.5593C112.306 22.6562 112.321 22.7598 112.314 22.8632C112.314 24.6693 109.92 26.241 107.517 26.241C104.282 26.241 101.718 23.7185 101.718 19.6937C101.718 15.6689 104.282 13.3374 107.6 13.3374C109.724 13.3374 111.281 14.3143 111.9 15.8773H116.182C115.511 12.2129 112.166 9.75977 107.626 9.75977C102.472 9.75977 97.7321 13.0638 97.7321 19.6937C97.7321 26.3235 102.333 29.6276 107.326 29.6276C108.488 29.6492 109.64 29.4041 110.692 28.9112C111.329 28.6016 111.945 28.2521 112.537 27.8648V29.4062H116.243V21.9167C116.247 21.502 116.167 21.0908 116.009 20.7072C115.85 20.3236 115.617 19.9754 115.321 19.683C115.026 19.3906 114.675 19.1598 114.289 19.0044C113.903 18.8489 113.489 18.7718 113.073 18.7776Z" fill="#010E22"></path>
<path d="M57.7174 29.4054V9.98047H65.7498C69.9012 9.98047 72.3258 12.5334 72.3258 16.1154C72.3258 19.6973 69.8969 22.2459 65.7498 22.2459H61.9255V29.4054H57.7174ZM61.9255 18.7768H65.4925C67.4418 18.7768 68.279 17.5308 68.279 16.1154C68.279 14.6999 67.4418 13.4495 65.4925 13.4495H61.9255V18.7768Z" fill="#010E22"></path>
<path d="M89.5554 29.4054L88.0248 25.1592H80.9736L79.4386 29.4054H75.0779L82.4911 9.98047H86.4768L93.89 29.4054H89.5554ZM82.2251 21.6641H86.7689L84.5014 15.3599L82.2251 21.6641Z" fill="#010E22"></path>
<path d="M136.083 29.4054L134.548 25.1592H127.497L125.967 29.4054H121.606L129.019 9.98047H133.005L140.418 29.4054H136.083ZM128.753 21.6641H133.297L131.038 15.3599L128.753 21.6641Z" fill="#010E22"></path>
<path d="M148.694 29.4054V21.3602L142.062 9.98047H146.549L150.813 17.4743L155.074 9.98047H159.561L152.902 21.3602V29.4054H148.694Z" fill="#010E22"></path>
<path d="M175.639 29.4054L174.109 25.1592H167.075L165.54 29.4054H161.179L168.592 9.98047H172.587L180 29.4054H175.639ZM168.309 21.6641H172.853L170.611 15.3599L168.309 21.6641Z" fill="#010E22"></path>
<path d="M34.2349 13.0246V17.0208L8.33337 2.12827L11.2276 0.464312C11.7553 0.160153 12.3543 0 12.9641 0C13.5739 0 14.1729 0.160153 14.7006 0.464312L33.0795 11.0288C33.431 11.2314 33.7227 11.5224 33.9255 11.8727C34.1283 12.223 34.235 12.6203 34.2349 13.0246Z" fill="#183D85"></path>
<path d="M34.2355 13.1514C34.2356 13.556 34.1287 13.9535 33.9255 14.3038C33.7222 14.6542 33.4299 14.9451 33.0778 15.1472L11.6809 27.5304V32.8586L33.0778 20.5651C33.4299 20.3625 33.7222 20.0712 33.9254 19.7204C34.1286 19.3697 34.2356 18.9719 34.2355 18.567V13.1514Z" fill="#1E8CFA"></path>
<path d="M11.7975 38.1175L8.31995 36.1217L34.235 21.2246V24.5525C34.2352 25.1597 34.0749 25.7563 33.77 26.2822C33.4652 26.8082 33.0266 27.2449 32.4985 27.5485L14.1196 38.113C13.7676 38.3182 13.3671 38.4267 12.9592 38.4275C12.5512 38.4282 12.1504 38.3213 11.7975 38.1175Z" fill="#183D85"></path>
<path d="M11.6895 38.0568C11.3374 37.8542 11.0451 37.5629 10.8419 37.2121C10.6387 36.8614 10.5317 36.4636 10.5318 36.0587L10.4529 11.492L5.81995 8.85254V33.352C5.81972 33.7578 5.92706 34.1564 6.13112 34.5076C6.33519 34.8589 6.62875 35.1502 6.98214 35.3523L11.6895 38.0568Z" fill="#1E8CFA"></path>
<path d="M1.15544 6.25325L4.63074 4.25293V34.038L1.73428 32.3741C1.20684 32.0698 0.768981 31.6329 0.464597 31.1071C0.160213 30.5812 -5.21786e-06 29.985 1.01242e-07 29.3781V8.2491C-0.000119976 7.84475 0.106575 7.44749 0.30938 7.09718C0.512184 6.74686 0.803964 6.45581 1.15544 6.25325Z" fill="#183D85"></path>
<path d="M1.2644 6.20102C1.61646 5.9989 2.0157 5.89251 2.42209 5.89251C2.82848 5.89251 3.22772 5.9989 3.57978 6.20102L25.0015 18.4227L29.6142 15.7474L8.28935 3.48533C7.93752 3.28256 7.53819 3.17578 7.13167 3.17578C6.72514 3.17578 6.32581 3.28256 5.97398 3.48533L1.2644 6.20102Z" fill="#1E8CFA"></path>
<path d="M34.2349 13.0246V17.0208L8.33337 2.12827L11.2276 0.464312C11.7553 0.160153 12.3543 0 12.9641 0C13.5739 0 14.1729 0.160153 14.7006 0.464312L33.0795 11.0288C33.431 11.2314 33.7227 11.5224 33.9255 11.8727C34.1283 12.223 34.235 12.6203 34.2349 13.0246Z" fill="#183D85"></path>
<path d="M34.2394 13.168C34.2396 13.5726 34.1326 13.9701 33.9294 14.3204C33.7261 14.6708 33.4338 14.9617 33.0817 15.1638L11.6848 27.547V32.8752L33.0817 20.5817C33.4338 20.3791 33.7261 20.0878 33.9293 19.737C34.1325 19.3863 34.2395 18.9885 34.2394 18.5837V13.168Z" fill="#1E8CFA"></path>
<path d="M11.7975 38.1175L8.31995 36.1217L34.235 21.2246V24.5525C34.2352 25.1597 34.0749 25.7563 33.77 26.2822C33.4652 26.8082 33.0266 27.2449 32.4985 27.5485L14.1196 38.113C13.7676 38.3182 13.3671 38.4267 12.9592 38.4275C12.5512 38.4282 12.1504 38.3213 11.7975 38.1175Z" fill="#183D85"></path>
<path d="M11.6895 38.0568C11.3374 37.8542 11.0451 37.5629 10.8419 37.2121C10.6387 36.8614 10.5317 36.4636 10.5318 36.0587L10.4529 11.492L5.81995 8.85254V33.352C5.81972 33.7578 5.92706 34.1564 6.13112 34.5076C6.33519 34.8589 6.62875 35.1502 6.98214 35.3523L11.6895 38.0568Z" fill="#1E8CFA"></path>
<path d="M1.15544 6.25325L4.63074 4.25293V34.038L1.73428 32.3741C1.20684 32.0698 0.768981 31.6329 0.464597 31.1071C0.160213 30.5812 -5.21786e-06 29.985 1.01242e-07 29.3781V8.2491C-0.000119976 7.84475 0.106575 7.44749 0.30938 7.09718C0.512184 6.74686 0.803964 6.45581 1.15544 6.25325Z" fill="#183D85"></path>
<path d="M1.2644 6.20102C1.61646 5.9989 2.0157 5.89251 2.42209 5.89251C2.82848 5.89251 3.22772 5.9989 3.57978 6.20102L25.0015 18.4227L29.6142 15.7474L8.28935 3.48533C7.93752 3.28256 7.53819 3.17578 7.13167 3.17578C6.72514 3.17578 6.32581 3.28256 5.97398 3.48533L1.2644 6.20102Z" fill="#1E8CFA"></path>
</svg>