<svg class="h-8" viewBox="0 0 810 250" fill="none" xmlns="http://www.w3.org/2000/svg"><path fill-rule="evenodd" clip-rule="evenodd" d="M413.163 22.389C412.089 28.1967 413.466 34.3392 419.147 37.7117C413.359 15.1368 427.167 6.16739 439.954 0C425.057 18.5457 455.509 19.0269 457.242 40.3408C458.719 58.5114 444.431 72.6803 427.98 78.8628C428.17 60.495 407.218 57.9939 405.113 42.9697C404.286 37.0931 408.113 26.3676 413.163 22.389Z" fill="#E11D48"></path><path d="M63.5117 227.794V195.012C55.9972 200.549 47.8324 203.317 39.0175 203.317C26.1562 203.317 16.4379 198.181 9.86274 187.909C3.28758 177.638 0 163.687 0 146.057C0 137.17 1.15607 129.193 3.46823 122.127C5.78037 115.06 8.85118 109.05 12.6807 104.096C16.5102 99.1427 20.99 95.3543 26.12 92.7318C31.25 90.1093 36.6329 88.7979 42.2691 88.7979C53.9741 88.7979 63.8007 92.149 71.7489 98.8513C76.8067 93.3146 83.6708 90.4735 92.3414 90.3276C93.3528 91.2021 94.4005 92.2946 95.4844 93.606C96.5683 94.9174 97.5799 96.3743 98.5191 97.9771C99.4584 99.5796 100.289 101.255 101.012 103.003C101.734 104.752 102.24 106.355 102.529 107.812C98.483 110.871 96.46 116.117 96.46 123.547V246.808L94.9425 248.338H81.7199C75.0724 248.338 70.3761 246.808 67.6303 243.748C64.8846 240.689 63.5117 235.371 63.5117 227.794ZM47.4712 175.78C53.3961 175.78 58.7429 173.376 63.5117 168.568V121.362C58.3095 116.553 53.6129 114.15 49.4221 114.15C39.5955 114.15 34.6823 125.077 34.6823 146.932C34.6823 166.164 38.9453 175.78 47.4712 175.78ZM122.255 164.197V119.395C122.255 109.924 120.521 102.639 117.052 97.5399C122.399 92.7318 128.902 90.3276 136.561 90.3276C144.22 90.3276 149.422 92.0763 152.168 95.5729C154.914 99.0696 156.287 104.388 156.287 111.527V157.859C156.287 162.958 156.865 166.674 158.021 169.005C159.177 171.336 162.212 172.502 167.125 172.502C171.894 172.502 176.735 170.025 181.648 165.071V92.0763C186.417 91.2021 191.98 90.7649 198.339 90.7649C204.697 90.7649 210.405 91.2021 215.463 92.0763V169.879C215.463 177.747 217.486 183.065 221.533 185.833C220.81 188.747 219.437 191.916 217.414 195.34C215.391 198.764 213.296 201.277 211.128 202.88C199.278 202.443 190.752 197.343 185.55 187.582C174.133 197.926 163.368 203.098 153.252 203.098C143.136 203.098 135.441 199.565 130.167 192.499C124.892 185.432 122.255 175.998 122.255 164.197ZM333.816 185.396C333.095 188.456 331.72 191.734 329.698 195.231C327.675 198.727 325.579 201.277 323.41 202.88C313.296 202.588 305.491 198.727 300 191.297C290.608 200.039 280.42 204.41 269.437 204.41C263.802 204.41 258.888 203.499 254.697 201.678C250.507 199.857 246.966 197.416 244.076 194.357C241.186 191.297 239.018 187.764 237.573 183.757C236.128 179.75 235.406 175.562 235.406 171.19C235.406 164.925 236.526 159.425 238.765 154.69C241.005 149.955 244.076 146.021 247.978 142.888C251.879 139.756 256.431 137.388 261.634 135.786C266.836 134.183 272.4 133.382 278.326 133.382C281.649 133.382 284.574 133.418 287.104 133.491C289.633 133.564 291.837 133.673 293.716 133.819V129.666C293.716 120.487 289.018 115.898 279.626 115.898C273.556 115.898 262.935 118.229 247.761 122.891C243.426 117.792 240.68 109.851 239.524 99.0696C242.992 97.7585 246.858 96.5199 251.121 95.3543C255.384 94.1888 259.755 93.1688 264.235 92.2946C268.715 91.4204 273.122 90.7285 277.458 90.2185C281.792 89.7085 285.696 89.4535 289.162 89.4535C294.22 89.4535 299.097 90.1821 303.794 91.639C308.492 93.096 312.61 95.3179 316.151 98.3049C319.691 101.292 322.509 105.153 324.603 109.888C326.7 114.623 327.747 120.269 327.747 126.825V171.19C327.747 177.893 329.769 182.628 333.816 185.396ZM268.354 169.005C268.354 175.853 272.255 179.277 280.059 179.277C284.106 179.277 288.658 177.164 293.716 172.939V155.455C290.826 155.309 288.404 155.2 286.453 155.127C284.503 155.054 283.021 155.018 282.009 155.018C272.906 155.018 268.354 159.68 268.354 169.005ZM395.376 176.217H401.231C402.964 181.025 403.832 185.833 403.832 190.641C403.832 195.449 403.614 198.582 403.182 200.039C394.511 201.496 386.778 202.224 379.986 202.224C370.159 202.224 363.189 199.784 359.07 194.903C354.951 190.022 352.893 182.336 352.893 171.846V41.8101L354.193 40.2804H367.415C374.206 40.2804 378.975 41.8101 381.722 44.8699C384.466 47.9296 385.838 53.2474 385.838 60.8237V165.945C385.838 172.793 389.018 176.217 395.376 176.217ZM459.973 117.209V201.132C457.515 201.568 454.843 201.897 451.952 202.115C449.062 202.333 446.101 202.443 443.064 202.443C440.031 202.443 437.031 202.333 434.069 202.115C431.107 201.897 428.396 201.568 425.942 201.132V128.792C425.942 120.342 422.544 116.117 415.753 116.117H412.502C411.634 113.348 411.202 109.487 411.202 104.533C411.202 99.7254 411.634 95.6457 412.502 92.2946C416.257 92.0032 419.726 91.7485 422.905 91.5299C426.085 91.3113 428.975 91.2021 431.576 91.2021H436.345C443.715 91.2021 449.495 93.5332 453.685 98.1954C457.876 102.858 459.973 109.196 459.973 117.209ZM490.538 201.132V115.898L471.894 116.117C471.029 112.474 470.593 108.467 470.593 104.096C470.593 99.7254 471.029 95.6457 471.894 91.8576L488.802 92.0763C488.08 86.6854 487.719 81.8043 487.719 77.4335C487.719 66.506 491.224 57.4363 498.233 50.2243C505.239 43.0121 514.38 39.4062 525.651 39.4062C536.923 39.4062 547.979 41.446 558.817 45.5254C558.961 49.3137 558.31 53.4296 556.867 57.8735C555.42 62.3174 553.616 65.7046 551.447 68.036C544.656 65.9963 539.091 64.9762 534.757 64.9762C525.073 64.9762 520.232 70.0029 520.232 80.056C520.232 84.2813 520.521 88.361 521.1 92.2946L549.497 91.8576C550.362 95.6457 550.797 99.7254 550.797 104.096C550.797 108.467 550.362 112.474 549.497 116.117L523.483 115.679V201.132C518.571 202.006 513.152 202.443 507.228 202.443C501.302 202.443 495.739 202.006 490.538 201.132ZM612.357 117.209V201.132C609.9 201.568 607.227 201.897 604.337 202.115C601.447 202.333 598.485 202.443 595.449 202.443C592.416 202.443 589.416 202.333 586.454 202.115C583.492 201.897 580.781 201.568 578.326 201.132V128.792C578.326 120.342 574.929 116.117 568.138 116.117H564.887C564.019 113.348 563.586 109.487 563.586 104.533C563.586 99.7254 564.019 95.6457 564.887 92.2946C568.645 92.0032 572.111 91.7485 575.29 91.5299C578.47 91.3113 581.36 91.2021 583.96 91.2021H588.729C596.099 91.2021 601.88 93.5332 606.07 98.1954C610.263 102.858 612.357 109.196 612.357 117.209ZM574.425 48.1479C578.616 45.8168 584.035 44.6512 590.68 44.6512C597.474 44.6512 602.747 45.8168 606.505 48.1479C608.238 52.0818 609.106 56.3071 609.106 60.8237C609.106 65.3404 608.238 69.5657 606.505 73.4996C602.315 75.6851 596.824 76.7779 590.03 76.7779C583.239 76.7779 578.037 75.6851 574.425 73.4996C572.689 69.5657 571.821 65.3404 571.821 60.8237C571.821 56.3071 572.689 52.0818 574.425 48.1479ZM631.434 107.812C632.155 104.898 633.527 101.656 635.552 98.0863C637.575 94.5165 639.597 91.9304 641.622 90.3276C654.915 91.3476 664.164 97.9768 669.366 110.216C674.857 97.1026 683.891 90.5463 696.462 90.5463C700.22 90.5463 704.989 91.129 710.77 92.2946C710.77 96.8113 710.009 102.166 708.491 108.358C706.976 114.55 704.915 119.832 702.314 124.203C699.857 123.328 696.173 122.6 691.261 122.017C684.034 122.017 678.111 125.732 673.485 133.163V201.132C668.716 202.006 663.117 202.443 656.687 202.443C650.256 202.443 644.584 202.006 639.669 201.132V130.541C639.669 119.613 636.924 112.037 631.434 107.812ZM805.06 157.64H748.484C748.773 164.197 750.437 169.296 753.471 172.939C756.504 176.581 761.491 178.403 768.428 178.403C771.897 178.403 775.906 177.893 780.457 176.873C785.011 175.853 790.249 174.177 796.172 171.846C800.941 176.8 803.906 183.502 805.06 191.952C793.5 200.257 779.339 204.41 762.574 204.41C753.471 204.41 745.847 202.953 739.706 200.039C733.565 197.125 728.578 193.045 724.749 187.8C720.919 182.555 718.211 176.363 716.621 169.223C715.032 162.084 714.235 154.289 714.235 145.839C714.235 137.68 715.211 130.14 717.164 123.219C719.115 116.298 722.076 110.288 726.049 105.189C730.025 100.09 735.083 96.0829 741.224 93.1688C747.365 90.2549 754.554 88.7979 762.791 88.7979C769.729 88.7979 775.977 89.9635 781.543 92.2946C787.105 94.626 791.838 97.8313 795.74 101.911C799.641 105.99 802.641 110.871 804.735 116.553C806.832 122.236 807.879 128.428 807.879 135.13C807.879 144.018 806.939 151.521 805.06 157.64ZM748.269 134.037H776.881V131.633C776.881 126.242 775.688 121.799 773.305 118.302C770.919 114.805 767.343 113.057 762.574 113.057C757.951 113.057 754.518 114.696 752.278 117.974C750.038 121.252 748.702 126.607 748.269 134.037Z" fill="black"></path></svg>