<svg xmlns="http://www.w3.org/2000/svg" width="395" height="53" fill="none"><path fill="#292929" fill-rule="evenodd" d="M316.905 21.977c0 5.333 1.183 9.455 3.551 12.368 2.368 2.913 5.767 4.37 10.196 4.37 4.464 0 7.876-1.444 10.235-4.332 2.358-2.887 3.538-7.022 3.538-12.406 0-5.367-1.18-9.481-3.538-12.344-2.359-2.861-5.754-4.292-10.184-4.292-4.413 0-7.816 1.443-10.208 4.33-2.393 2.888-3.59 6.99-3.59 12.306Zm30.335 0c0 5.91-1.471 10.584-4.413 14.024-2.942 3.439-7.001 5.159-12.175 5.159-5.158 0-9.207-1.72-12.149-5.16-2.942-3.439-4.414-8.13-4.414-14.075 0-5.927 1.485-10.594 4.452-13.998 2.968-3.405 7.022-5.108 12.162-5.108 5.174 0 9.224 1.71 12.149 5.133 2.925 3.423 4.388 8.097 4.388 14.025ZM377.426 40.596 371.3 22.117c-.395-1.253-.9-3.091-1.518-5.514h-.155l-.54 1.88-1.158 3.686-6.229 18.427h-2.522l-8.004-27.628h2.728l4.478 16.012c1.046 3.966 1.733 6.88 2.059 8.744h.155c1.012-3.965 1.75-6.6 2.213-7.905l5.766-16.851h2.316l5.482 16.8c1.235 3.982 1.99 6.617 2.265 7.904h.154c.137-1.1.824-4.049 2.059-8.844l4.273-15.86h2.574l-7.593 27.628h-2.677ZM392.752 40.596H395V1.128h-2.248v39.468ZM25.846 29.323c0 2.313-.58 4.366-1.741 6.161-1.161 1.794-2.836 3.189-5.023 4.183-2.187.995-4.754 1.492-7.699 1.492-2.456 0-4.517-.174-6.184-.522-1.666-.348-3.399-.957-5.2-1.824v-8.98a29.512 29.512 0 0 0 5.932 2.31c2.054.552 3.938.828 5.654.828 1.481 0 2.566-.26 3.256-.778s1.035-1.186 1.035-2.002c0-.51-.139-.957-.417-1.34-.277-.382-.723-.769-1.337-1.16-.614-.392-2.25-1.19-4.91-2.398-2.406-1.106-4.21-2.177-5.413-3.214-1.204-1.037-2.095-2.228-2.676-3.571-.58-1.344-.87-2.934-.87-4.77 0-3.435 1.236-6.114 3.71-8.036C6.436 3.78 9.834 2.819 14.16 2.819c3.82 0 7.715.893 11.686 2.68l-3.054 7.78c-3.45-1.599-6.428-2.399-8.935-2.399-1.296 0-2.238.23-2.827.69-.59.458-.883 1.029-.883 1.709 0 .73.374 1.385 1.123 1.964.749.578 2.78 1.632 6.095 3.162 3.18 1.446 5.39 2.998 6.626 4.656 1.237 1.658 1.855 3.746 1.855 6.262ZM44.225 40.596c-4.74 0-8.33-1.274-10.776-3.822-2.446-2.547-3.67-6.207-3.67-10.98 0-4.789 1.322-8.5 3.964-11.133 2.641-2.632 6.4-3.948 11.274-3.948 3.358 0 6.52.73 9.485 2.19l-2.94 7.363a32.116 32.116 0 0 0-3.349-1.26 10.823 10.823 0 0 0-3.196-.472c-1.62 0-2.872.628-3.758 1.885-.886 1.257-1.33 3.032-1.33 5.324 0 4.62 1.714 6.93 5.14 6.93 2.93 0 5.743-.85 8.436-2.548v7.923c-2.573 1.698-5.667 2.548-9.28 2.548ZM77.108 40.596V24.92c0-3.856-1.142-5.783-3.429-5.783-1.626 0-2.824.68-3.594 2.041-.771 1.362-1.156 3.624-1.156 6.786v12.632h-9.932V1.128h9.932v5.605c0 2.536-.136 5.429-.407 8.675h.458c.948-1.488 2.074-2.536 3.378-3.145 1.304-.609 2.82-.913 4.547-.913 3.217 0 5.72.926 7.507 2.777 1.786 1.852 2.68 4.443 2.68 7.775v18.694h-9.984ZM102.768 25.59c0 2.48.33 4.37.989 5.67.659 1.298 1.765 1.948 3.319 1.948 1.537 0 2.622-.65 3.256-1.949.633-1.3.95-3.188.95-5.668 0-2.463-.321-4.323-.963-5.58-.642-1.257-1.74-1.885-3.294-1.885-1.52 0-2.609.624-3.268 1.873-.659 1.248-.989 3.112-.989 5.592Zm18.597.001c0 4.721-1.262 8.403-3.787 11.044-2.526 2.64-6.06 3.96-10.604 3.96-4.357 0-7.824-1.349-10.4-4.05-2.576-2.7-3.864-6.352-3.864-10.954 0-4.705 1.262-8.36 3.788-10.968 2.525-2.606 6.068-3.91 10.629-3.91 2.82 0 5.311.603 7.474 1.809 2.162 1.206 3.83 2.934 5.004 5.184 1.173 2.25 1.76 4.878 1.76 7.885ZM127.546 40.596h9.553V1.128h-9.553v39.468ZM155.828 33.564c1.217 0 2.258-.382 3.124-1.146.865-.765 1.298-1.758 1.298-2.98v-2.243l-2.314.102c-3.308.119-4.962 1.325-4.962 3.617 0 1.767.952 2.65 2.854 2.65Zm7.455 6.522-1.929-3.821h-.205c-1.354 1.664-2.734 2.803-4.139 3.414-1.405.611-3.222.917-5.45.917-2.742 0-4.901-.815-6.478-2.446-1.577-1.63-2.365-3.923-2.365-6.878 0-3.074 1.08-5.363 3.239-6.866 2.159-1.503 5.287-2.348 9.383-2.535l4.859-.152v-.408c0-2.378-1.183-3.567-3.548-3.567-2.125 0-4.824.713-8.097 2.14l-2.905-6.574c3.393-1.731 7.677-2.597 12.853-2.597 3.736 0 6.628.917 8.676 2.751 2.048 1.834 3.072 4.4 3.072 7.693v18.93h-6.966ZM193.66 11.277c.856 0 1.67.068 2.443.203l.554.102-.882 9.383c-.806-.204-1.922-.305-3.35-.305-2.15 0-3.711.496-4.685 1.487-.974.992-1.461 2.42-1.461 4.285v14.164h-9.849v-28.81h7.33l1.537 4.602h.479a9.904 9.904 0 0 1 3.438-3.7c1.469-.94 2.951-1.411 4.446-1.411ZM220.499 38.227c-2.085 1.579-5.078 2.369-8.979 2.369-2.119 0-3.961-.115-5.524-.344-1.565-.23-3.162-.65-4.793-1.261v-7.974c1.53.68 3.207 1.24 5.032 1.681 1.825.442 3.452.662 4.881.662 2.135 0 3.204-.492 3.204-1.477 0-.51-.299-.963-.896-1.363-.597-.399-2.333-1.176-5.209-2.331-2.623-1.087-4.456-2.322-5.499-3.707-1.043-1.384-1.564-3.137-1.564-5.26 0-2.684 1.026-4.773 3.078-6.267 2.051-1.495 4.952-2.242 8.702-2.242 1.884 0 3.653.208 5.31.624 1.656.417 3.376 1.024 5.159 1.822l-2.674 6.42a29.87 29.87 0 0 0-4.163-1.516c-1.463-.416-2.657-.624-3.582-.624-1.614 0-2.421.399-2.421 1.197 0 .492.282.913.846 1.26.562.35 2.189 1.058 4.88 2.128 2.002.833 3.494 1.648 4.477 2.446.984.798 1.707 1.736 2.17 2.815.462 1.078.693 2.39.693 3.936 0 3.09-1.042 5.426-3.128 7.006ZM246.795 40.596V24.92c0-3.856-1.143-5.783-3.429-5.783-1.626 0-2.824.68-3.594 2.041-.771 1.362-1.156 3.624-1.156 6.786v12.632h-9.932V1.128h9.932v5.605c0 2.536-.136 5.429-.407 8.675h.458c.948-1.488 2.074-2.536 3.378-3.145 1.304-.609 2.82-.913 4.547-.913 3.217 0 5.719.926 7.506 2.777 1.786 1.852 2.68 4.443 2.68 7.775v18.694h-9.983ZM263.777 40.596h10.034V11.65h-10.034v28.946Zm-.256-36.151c0-1.499.419-2.614 1.257-3.347.838-.732 2.19-1.098 4.055-1.098 1.865 0 3.225.375 4.081 1.124.855.75 1.283 1.857 1.283 3.32 0 2.93-1.788 4.395-5.364 4.395-3.542 0-5.312-1.464-5.312-4.394ZM294.755 18.604c-1.443 0-2.454.527-3.033 1.581-.579 1.054-.893 2.618-.944 4.692v.796c0 2.503.328 4.31.982 5.424.654 1.114 1.686 1.672 3.096 1.672 1.258 0 2.173-.553 2.743-1.659.57-1.105.856-2.934.856-5.488 0-2.502-.286-4.297-.856-5.385-.57-1.089-1.518-1.633-2.844-1.633Zm3.297 22.262c-1.444 0-2.735-.244-3.876-.732-1.142-.489-2.273-1.367-3.398-2.636h-.452c.302 2.04.452 3.308.452 3.805V53h-9.839V11.227h8.003l1.384 3.702h.452c1.829-2.811 4.355-4.216 7.576-4.216 3.154 0 5.628 1.337 7.424 4.01 1.795 2.673 2.693 6.341 2.693 11.002 0 4.696-.936 8.393-2.806 11.093-1.871 2.699-4.409 4.048-7.613 4.048Z" clip-rule="evenodd"/></svg>
