<svg viewBox="0 0 198 78" xmlns="http://www.w3.org/2000/svg" xmlns:xlink="http://www.w3.org/1999/xlink"><defs><path d="M0 0h31.73v24.067H0z" id="a"></path><path d="M0 0h7.086v17.523H0z" id="c"></path><path d="M0 0h159v51.022H0z" id="e"></path></defs><g fill="none" fill-rule="evenodd"><path class="logo-path" d="M13.785 29.968c-.606-1.468-1.582-2.219-3.334-2.219-1.844 0-4.094 1.282-4.452 3.345-.32 1.843 1.295 2.812 2.642 3.374l1.546.656c3.06 1.313 5.2 3.157 4.517 7.095-.742 4.28-4.53 7.343-8.679 7.343-3.75 0-6.181-2.813-6.017-6.593l3.027-.626c-.48 2.595 1.223 4.469 3.712 4.469 2.49 0 4.64-2.125 5.068-4.593.439-2.532-1.369-3.625-3.22-4.47l-1.479-.687c-2.443-1.156-4.574-2.688-4.005-5.968C3.771 27.28 7.486 25 10.99 25c2.582 0 4.48 1.281 5.344 3.563l-2.548 1.405M20.155 49.062h-2.766l2.08-11.999h-1.505l.455-2.626h1.505l.97-5.593h2.766l-.969 5.593h2.703l-.454 2.626h-2.705l-2.08 11.999M30.668 36.812h.092c.974-1.719 2.578-2.813 4.421-2.813.8 0 1.55.282 2.15.719l-1.705 2.563c-.415-.438-.941-.594-1.587-.594-2.98 0-3.837 2.812-4.249 5.188l-1.245 7.187h-2.767l2.535-14.625h2.767l-.412 2.375M42.173 34.437l-1.403 8.094c-.406 2.344-.18 4.406 2.555 4.406 2.735 0 3.677-2.062 4.083-4.406l1.404-8.094h2.765l-1.457 8.407c-.694 4-3.009 6.718-7.25 6.718-4.24 0-5.613-2.718-4.92-6.718l1.458-8.407h2.765M65.73 38.594c-.884-1.282-2.117-1.969-3.776-1.969-2.705 0-5.217 2.438-5.683 5.125-.52 3 1.16 5.187 4.08 5.187 1.597 0 3.018-.75 4.268-1.937l-.622 3.593a8.896 8.896 0 0 1-4.132.97c-4.242 0-7.14-3.312-6.381-7.688.785-4.532 4.807-7.876 9.232-7.876 1.29 0 2.65.313 3.643.97l-.629 3.625M70.676 49.062h-2.765l2.08-11.999h-1.507l.456-2.626h1.506l.969-5.593h2.766l-.97 5.593h2.705l-.455 2.626h-2.705l-2.08 11.999M80.678 34.437l-1.403 8.094c-.406 2.344-.179 4.406 2.556 4.406s3.676-2.062 4.083-4.406l1.403-8.094h2.765l-1.457 8.407c-.693 4-3.009 6.718-7.25 6.718-4.24 0-5.613-2.718-4.92-6.718l1.458-8.407h2.765M96.923 36.812h.092c.974-1.719 2.578-2.813 4.42-2.813.8 0 1.55.282 2.15.719l-1.703 2.563c-.416-.438-.943-.594-1.588-.594-2.98 0-3.837 2.812-4.249 5.188L94.8 49.062h-2.766l2.535-14.625h2.766l-.412 2.375M114.67 40.094c.041-2.188-1.118-3.657-3.33-3.657-2.152 0-4.02 1.563-4.721 3.657h8.051Zm-8.573 2.125c-.403 2.5.85 4.843 3.492 4.843 2.122 0 3.448-1.094 4.797-2.844l2.102 1.344c-1.792 2.532-4.566 4-7.362 4-4.395 0-6.483-3.374-5.736-7.687.78-4.5 3.732-7.876 8.372-7.876 4.58 0 6.134 3.437 5.38 7.782l-.075.438h-10.97ZM131.622 41.75c.493-2.844-.78-5.25-3.76-5.25-2.858 0-4.987 2.531-5.458 5.25-.478 2.75.707 5.312 3.626 5.312 3.012 0 5.094-2.438 5.592-5.312Zm-1.025 5.031h-.062c-1.393 1.657-3.34 2.782-5.368 2.782-4.425 0-6.24-3.72-5.513-7.907.694-4 3.939-7.657 8.088-7.657 2.15 0 3.677 1.125 4.51 2.875h.061l1.986-11.378h2.765l-4.098 23.566h-2.765l.396-2.28ZM145.681 42.374 155.239 25l3.534 17.374 9.41-16.875h3.133L157.451 50l-3.55-17.282L144.36 50l-5.372-24.501h3.134l3.559 16.875" fill="#000"></path><g transform="translate(166.27 25.496)"><mask fill="#fff" id="b"><use xlink:href="#a"></use></mask><path class="logo-path" d="M11.429 14.598c.04-2.188-1.118-3.656-3.33-3.656-2.152 0-4.02 1.562-4.721 3.656h8.05Zm-8.573 2.125c-.403 2.5.85 4.843 3.492 4.843 2.121 0 3.448-1.094 4.796-2.844l2.103 1.344c-1.79 2.532-4.566 4-7.363 4-4.394 0-6.483-3.374-5.735-7.687.78-4.5 3.732-7.875 8.372-7.875 4.579 0 6.134 3.437 5.38 7.781l-.075.438H2.856ZM28.812 16.254c.493-2.844-.78-5.25-3.76-5.25-2.859 0-4.988 2.531-5.46 5.25-.476 2.75.708 5.312 3.628 5.312 3.011 0 5.094-2.437 5.592-5.312ZM19.81 0h2.765l-1.984 11.379h.061c1.44-1.75 3.356-2.875 5.507-2.875 4.15 0 6.128 3.656 5.434 7.656-.727 4.187-3.829 7.907-8.254 7.907-2.028 0-3.585-1.125-4.404-2.782h-.062l-.396 2.281h-2.765L19.811 0Z" fill="#000" mask="url(#b)"></path></g><g><g fill="#000"><path class="logo-path" d="M96.911 4.014a.077.077 0 0 1-.07.061h-3.955c-.032 0-.055-.027-.05-.061L93.535.06a.075.075 0 0 1 .07-.061h3.955c.032 0 .055.027.05.06l-.698 3.954M94.6 17.493a.076.076 0 0 1-.07.06h-3.955c-.032 0-.054-.026-.048-.06l.696-3.953a.074.074 0 0 1 .07-.061h3.955a.05.05 0 0 1 .05.06l-.697 3.954M111.24 4.014a.075.075 0 0 1-.071.061h-3.957c-.032 0-.053-.027-.047-.061l.697-3.953c.005-.034.037-.061.068-.061h3.957c.034 0 .055.027.05.06l-.697 3.954M125.567 4.014c-.007.034-.04.061-.071.061h-3.955c-.032 0-.055-.027-.049-.061L122.19.06a.075.075 0 0 1 .07-.061h3.954a.05.05 0 0 1 .05.06l-.697 3.954M139.893 4.014a.075.075 0 0 1-.07.061h-3.956c-.033 0-.054-.027-.048-.061l.697-3.953a.073.073 0 0 1 .07-.061h3.956c.032 0 .055.027.049.06l-.698 3.954"></path></g><path class="logo-path" d="M108.92 17.493a.072.072 0 0 1-.07.06h-3.954c-.033 0-.055-.026-.05-.06l.697-3.953a.076.076 0 0 1 .07-.061h3.956c.033 0 .054.027.048.06l-.697 3.954M123.243 17.493a.076.076 0 0 1-.072.06h-3.957c-.032 0-.053-.026-.047-.06l.696-3.953a.075.075 0 0 1 .07-.061h3.957c.032 0 .055.027.05.06l-.697 3.954M137.563 17.493a.077.077 0 0 1-.072.06h-3.955c-.033 0-.056-.026-.05-.06l.696-3.953a.077.077 0 0 1 .073-.061h3.955a.05.05 0 0 1 .05.06l-.697 3.954" fill="#000"></path><g transform="translate(123.258 60.477)"><mask fill="#fff" id="d"><use xlink:href="#c"></use></mask><path class="logo-path" d="M6.388 4.014a.076.076 0 0 1-.07.061H2.36c-.032 0-.055-.026-.049-.061L3.01.06A.077.077 0 0 1 3.08 0h3.956c.032 0 .054.029.05.06l-.698 3.954M4.077 17.495a.075.075 0 0 1-.072.058H.052c-.034 0-.057-.025-.051-.058l.698-3.954a.074.074 0 0 1 .071-.061h3.954a.05.05 0 0 1 .05.061l-.697 3.954" fill="#000" mask="url(#d)"></path></g><path class="logo-path" d="M143.972 64.49c-.006.035-.038.062-.069.062h-3.956c-.03 0-.054-.027-.048-.062l.697-3.952c.005-.033.04-.061.07-.061h3.956c.03 0 .052.028.046.06l-.696 3.953" fill="#000"></path><g transform="translate(0 26.978)"><mask fill="#fff" id="f"><use xlink:href="#e"></use></mask><path class="logo-path" d="M158.302 37.513a.077.077 0 0 1-.072.061h-3.956c-.03 0-.054-.026-.048-.061l.697-3.953c.006-.032.04-.06.069-.06h3.956a.05.05 0 0 1 .051.06l-.697 3.953M141.654 50.994a.073.073 0 0 1-.07.058h-3.954c-.033 0-.056-.025-.05-.058l.698-3.954a.074.074 0 0 1 .07-.06h3.955c.033 0 .055.026.05.06l-.699 3.954M155.975 50.994a.072.072 0 0 1-.07.058h-3.956a.048.048 0 0 1-.049-.058l.697-3.954a.076.076 0 0 1 .07-.06h3.956c.034 0 .055.026.048.06l-.696 3.954" fill="#000" mask="url(#f)"></path></g></g></g></svg>
