<?xml version="1.0" encoding="utf-8"?>
<!-- Generator: Adobe Illustrator 19.2.1, SVG Export Plug-In . SVG Version: 6.00 Build 0)  -->
<svg version="1.1" id="layer" xmlns="http://www.w3.org/2000/svg" xmlns:xlink="http://www.w3.org/1999/xlink" x="0px" y="0px"
	 viewBox="0 0 652 652" style="enable-background: new 0 0 652 652" xml:space="preserve">
<style type="text/css">
	.st0{fill:#B2191E;}
	.st1{fill:#FFFFFF;}
</style>
<g>
	<circle class="st0" cx="83.5" cy="322" r="63.2"/>
	<path class="st1" d="M 118.7 280.8 C 118.7 280.8 118.7 280.4 118.7 280.8 L 118.7 280.8 c -10.4 0 -71.2 0 -71.2 0 h -1.2 c -4 0.4 -9.2 5.2 -13.2 11.6 c -1.6 2.4 -2.4 5.2 -3.2 7.6 c -0.4 1.2 -0.4 2 -0.8 3.2 c 2 -4.4 6 -7.6 11.2 -7.6 l 0 0 c 0 0 72.8 0 83.6 0 c 0.8 -1.6 1.2 -3.2 1.2 -5.2 C 125.5 286 122.7 282.4 118.7 280.8 z"/>
	<path class="st1" d="M 30.3 312.4 L 30.3 312.4 L 30.3 312.4 c 5.2 8.8 35.6 61.6 35.6 61.6 l 0.8 1.2 c 2.4 3.2 9.2 5.6 16.4 5.6 c 2.8 0 5.6 -0.4 8 -1.2 c 1.2 -0.4 2 -0.8 3.2 -1.2 c -4.4 0.4 -9.2 -1.6 -11.6 -6 l 0 0 c 0 0 -36.4 -63.2 -42 -72.4 c -2 0 -3.6 0.4 -5.2 1.6 C 31.9 303.6 29.9 308 30.3 312.4 z"/>
	<path class="st1" d="M 101.9 372.8 L 101.9 372.8 L 101.9 372.8 c 5.2 -8.8 35.6 -61.6 35.6 -61.6 l 0.8 -1.2 c 1.6 -4 0.4 -10.8 -3.6 -17.2 c -1.6 -2.4 -3.2 -4.8 -4.8 -6.4 c -0.8 -0.8 -1.6 -1.6 -2.4 -2 c 2.8 3.6 3.2 8.8 0.8 13.2 l 0 0 c 0 0 -36.4 63.2 -42 72.4 c 0.8 1.6 2.4 2.8 3.6 3.6 C 93.9 376 98.7 375.6 101.9 372.8 z"/>
	<path class="st0" d="M 256.3 284.8 c 3.2 -2.8 6.4 -4.8 10 -6 h -110 v 18 h 32 v 82.4 h 21.2 v -82.4 h 36.4 C 248.7 292 252.3 288.4 256.3 284.8 z"/>
	<path class="st0" d="M 332.3 361.2 h -34 c -20.4 0 -28 -6 -29.6 -22.8 h 56.4 v -18 h -56.4 c 0.8 -10 1.2 -12 4.4 -16.4 c 4.4 -5.6 9.6 -7.2 24 -7.2 h 27.6 v -18 h -36 c -13.6 0 -20.4 2 -27.6 8 c -11.6 9.6 -16.8 23.6 -16.8 42 c 0 16 4.8 30 13.2 38.8 c 8 8.4 18 11.2 39.6 11.2 h 58.4 C 345.5 375.6 337.5 369.6 332.3 361.2 z"/>
	<path class="st0" d="M 382.7 294.8 c -18.8 0 -26.4 10 -26.4 33.6 c 0 23.6 8 34 26.4 34 c 17.2 0 25.6 -10.8 25.6 -34 C 407.9 305.6 399.9 294.8 382.7 294.8 z M 383.5 379.6 c -33.2 0 -50.8 -17.6 -50.8 -50 c 0 -34.8 16 -51.2 49.6 -51.2 s 49.2 16.8 49.2 53.2 C 431.5 362.8 414.7 379.6 383.5 379.6"/>
	<path class="st0" d="M 521.5 361.2 h -33.2 c -20 0 -27.2 -9.2 -27.2 -33.6 c 0 -22.4 7.2 -30.8 26.4 -30.8 h 31.2 v -18 h -34 c -9.6 0 -19.6 1.6 -25.2 4.4 c -14 6.8 -22 23.2 -22 45.6 c 0 18 4.4 32 13.2 40 c 7.6 7.6 16 10 33.2 10 h 60.8 C 534.7 375.6 526.7 369.6 521.5 361.2 z"/>
	<path class="st0" d="M 571.5 294.8 c -18.8 0 -26.4 10 -26.4 33.6 c 0 23.6 8 34 26.4 34 c 17.6 0 25.6 -10.8 25.6 -34 C 597.1 305.6 589.1 294.8 571.5 294.8 z M 572.3 379.6 c -33.2 0 -50.8 -17.6 -50.8 -50 c 0 -34.8 16 -51.2 49.6 -51.2 c 33.6 0 49.2 16.8 49.2 53.2 C 620.7 362.8 603.9 379.6 572.3 379.6"/>
</g>
</svg>
