<?xml version="1.0" encoding="utf-8"?>
<!-- Generator: Adobe Illustrator 19.2.1, SVG Export Plug-In . SVG Version: 6.00 Build 0)  -->
<svg version="1.1" id="layer" xmlns="http://www.w3.org/2000/svg" xmlns:xlink="http://www.w3.org/1999/xlink" x="0px" y="0px"
	 viewBox="0 0 652 652" style="enable-background:new 0 0 652 652;" xml:space="preserve">
<style type="text/css">
	.st0{fill:#B2191E;}
	.st1{fill:#FFFFFF;}
</style>
<g>
	<circle class="st0" cx="83.5" cy="322" r="63.2"/>
	<path class="st1" d="M118.7,280.8C118.7,280.8,118.7,280.4,118.7,280.8L118.7,280.8c-10.4,0-71.2,0-71.2,0h-1.2
		c-4,0.4-9.2,5.2-13.2,11.6c-1.6,2.4-2.4,5.2-3.2,7.6c-0.4,1.2-0.4,2-0.8,3.2c2-4.4,6-7.6,11.2-7.6l0,0c0,0,72.8,0,83.6,0
		c0.8-1.6,1.2-3.2,1.2-5.2C125.5,286,122.7,282.4,118.7,280.8z"/>
	<path class="st1" d="M30.3,312.4L30.3,312.4L30.3,312.4c5.2,8.8,35.6,61.6,35.6,61.6l0.8,1.2c2.4,3.2,9.2,5.6,16.4,5.6
		c2.8,0,5.6-0.4,8-1.2c1.2-0.4,2-0.8,3.2-1.2c-4.4,0.4-9.2-1.6-11.6-6l0,0c0,0-36.4-63.2-42-72.4c-2,0-3.6,0.4-5.2,1.6
		C31.9,303.6,29.9,308,30.3,312.4z"/>
	<path class="st1" d="M101.9,372.8L101.9,372.8L101.9,372.8c5.2-8.8,35.6-61.6,35.6-61.6l0.8-1.2c1.6-4,0.4-10.8-3.6-17.2
		c-1.6-2.4-3.2-4.8-4.8-6.4c-0.8-0.8-1.6-1.6-2.4-2c2.8,3.6,3.2,8.8,0.8,13.2l0,0c0,0-36.4,63.2-42,72.4c0.8,1.6,2.4,2.8,3.6,3.6
		C93.9,376,98.7,375.6,101.9,372.8z"/>
	<path class="st0" d="M256.3,284.8c3.2-2.8,6.4-4.8,10-6h-110v18h32v82.4h21.2v-82.4h36.4C248.7,292,252.3,288.4,256.3,284.8z"/>
	<path class="st0" d="M332.3,361.2h-34c-20.4,0-28-6-29.6-22.8h56.4v-18h-56.4c0.8-10,1.2-12,4.4-16.4c4.4-5.6,9.6-7.2,24-7.2h27.6
		v-18h-36c-13.6,0-20.4,2-27.6,8c-11.6,9.6-16.8,23.6-16.8,42c0,16,4.8,30,13.2,38.8c8,8.4,18,11.2,39.6,11.2h58.4
		C345.5,375.6,337.5,369.6,332.3,361.2z"/>
	<path class="st0" d="M382.7,294.8c-18.8,0-26.4,10-26.4,33.6c0,23.6,8,34,26.4,34c17.2,0,25.6-10.8,25.6-34
		C407.9,305.6,399.9,294.8,382.7,294.8z M383.5,379.6c-33.2,0-50.8-17.6-50.8-50c0-34.8,16-51.2,49.6-51.2s49.2,16.8,49.2,53.2
		C431.5,362.8,414.7,379.6,383.5,379.6"/>
	<path class="st0" d="M521.5,361.2h-33.2c-20,0-27.2-9.2-27.2-33.6c0-22.4,7.2-30.8,26.4-30.8h31.2v-18h-34
		c-9.6,0-19.6,1.6-25.2,4.4c-14,6.8-22,23.2-22,45.6c0,18,4.4,32,13.2,40c7.6,7.6,16,10,33.2,10h60.8
		C534.7,375.6,526.7,369.6,521.5,361.2z"/>
	<path class="st0" d="M571.5,294.8c-18.8,0-26.4,10-26.4,33.6c0,23.6,8,34,26.4,34c17.6,0,25.6-10.8,25.6-34
		C597.1,305.6,589.1,294.8,571.5,294.8z M572.3,379.6c-33.2,0-50.8-17.6-50.8-50c0-34.8,16-51.2,49.6-51.2
		c33.6,0,49.2,16.8,49.2,53.2C620.7,362.8,603.9,379.6,572.3,379.6"/>
</g>
</svg>
