<svg xmlns="http://www.w3.org/2000/svg" xmlns:xlink="http://www.w3.org/1999/xlink" id="Layer_2" data-name="Layer 2" viewBox="0 0 519.06 107.37" height="100px" width="100px" transform="rotate(0) scale(1, 1)"><defs><style>.cls-1 { }.cls-2 { }.cls-3 { fill: #3e3155; }.cls-4 { }</style><linearGradient id="New_Gradient_Swatch_3" x1="38.33" y1="89.22" x2="89.29" y2=".95" gradientTransform="translate(0 0)" gradientUnits="userSpaceOnUse"><stop offset="0" stop-color="#35c0d1" data-originalstopcolor="#35c0d1"/><stop offset="1" stop-color="#00a959" data-originalstopcolor="#00a959"/></linearGradient><linearGradient id="New_Gradient_Swatch_3-2" x1="57.21" y1="77.31" x2="82.43" y2="33.62" xlink:href="#New_Gradient_Swatch_3"/><linearGradient id="linear-gradient" x1="9.26" y1="80.39" x2="87.65" y2="80.39" gradientTransform="translate(0 0)" gradientUnits="userSpaceOnUse"><stop offset="0" stop-color="#004b64" data-originalstopcolor="#004b64"/><stop offset=".41" stop-color="#3abfcb" stop-opacity="0" data-originalstopcolor="#3abfcb"/></linearGradient></defs><g id="Layer_2-2"><g><g><path class="cls-3" d="M136.29,29.75h-18.16s0-4.63,0-4.63h41.3s0,4.63,0,4.63h-18.16s0,53,0,53h-4.98s0-53,0-53Z"/><path class="cls-3" d="M180.3,79.21c-2.33-2.36-3.49-5.63-3.49-9.82v-30.91c0-4.19,1.16-7.46,3.49-9.82,2.33-2.36,5.62-3.54,9.87-3.54h26.19s0,4.63,0,4.63h-28.38c-1.92,0-3.44.57-4.54,1.7-1.11,1.13-1.66,2.66-1.66,4.58v15.11s27.24,0,27.24,0v4.63s-27.24,0-27.24,0v16.07c0,1.92.55,3.45,1.66,4.58,1.11,1.13,2.62,1.7,4.54,1.7h29.77s0,4.63,0,4.63h-27.59c-4.25,0-7.54-1.18-9.87-3.54Z"/><g><path class="cls-3" d="M244.81,76.16c-3.17-1.89-5.62-4.7-7.33-8.43-1.72-3.72-2.58-8.32-2.58-13.79s.87-10.07,2.62-13.79c1.75-3.72,4.19-6.53,7.33-8.43,3.14-1.89,6.84-2.84,11.09-2.84h16.85v-4.63h-16.85c-5.36,0-10,1.13-13.93,3.4-3.93,2.27-6.96,5.63-9.08,10.08-2.13,4.45-3.19,9.85-3.19,16.2,0,6.35,1.06,11.74,3.19,16.2,2.12,4.45,5.16,7.81,9.12,10.08,3.96,2.27,8.61,3.41,13.97,3.41h16.85v-4.63h-16.85c-4.31,0-8.05-.95-11.22-2.84Z"/><polygon class="cls-3" points="331.67 25.12 331.67 50.62 297.01 50.62 297.01 25.12 292.03 25.12 292.03 82.75 297.01 82.75 297.01 55.25 331.67 55.25 331.67 82.75 336.65 82.75 336.65 25.12 331.67 25.12"/></g><path class="cls-3" d="M363.68,72.01c2.62-1.63,4.7-3.75,6.24-6.37,1.54-2.62,2.78-5.73,3.71-9.34.29-1.22.58-2.97.87-5.24.64-5.06,1.76-9.53,3.36-13.4,1.6-3.87,4.06-7.03,7.38-9.47,3.32-2.44,7.68-3.67,13.1-3.67v9.43c-2.85,0-5.25.67-7.2,2.01-1.95,1.34-3.51,3.14-4.67,5.41-1.16,2.27-2.1,5.01-2.79,8.21-.41,1.92-.67,3.49-.79,4.72-.76,5.18-2.11,9.94-4.06,14.28-1.95,4.34-4.93,7.93-8.95,10.78-4.02,2.85-9.17,4.28-15.45,4.28v-9.17c3.55,0,6.64-.81,9.26-2.44Z"/><path class="cls-3" d="M419.45,78.6c-2.77-2.76-4.15-6.77-4.15-12.01v-25.32c0-5.24,1.38-9.24,4.15-12.01,2.76-2.76,6.77-4.15,12.01-4.15h25.49s0,8.56,0,8.56h-28.2c-1.34,0-2.39.36-3.14,1.09-.76.73-1.14,1.73-1.14,3.01v12.14s25.41,0,25.41,0v7.51s-25.41,0-25.41,0v12.66c0,1.28.38,2.28,1.14,3.01.76.73,1.8,1.09,3.14,1.09h29.51s0,8.56,0,8.56h-26.8c-5.24,0-9.24-1.38-12.01-4.15Z"/><path class="cls-3" d="M480.25,78.6c-2.77-2.76-4.15-6.77-4.15-12.01v-25.32c0-5.24,1.38-9.24,4.15-12.01,2.76-2.76,6.77-4.15,12.01-4.15h25.49s0,8.56,0,8.56h-28.2c-1.34,0-2.39.36-3.14,1.09-.76.73-1.13,1.73-1.13,3.01v12.14s25.41,0,25.41,0v7.51s-25.41,0-25.41,0v12.66c0,1.28.38,2.28,1.13,3.01.76.73,1.8,1.09,3.14,1.09h29.51s0,8.56,0,8.56h-26.8c-5.24,0-9.24-1.38-12.01-4.15Z"/></g><g><path class="cls-4" d="M29.46,64.77l-.19-.15c-2.85-2.31-8.68-7.03-10.98-9.9-.34-.48-.65-.63-.47-1.31,17.2-20.13,50.06-36.05,69.82-38.38V0s-3.43.43-3.43.43C51.79,6.48,25.34,23.06,2.63,47.85c-7.02,8.82,1.68,13.67,6.63,18.89.65.65,1.32,1.3,1.99,1.94,18.54,17.73,44.31,32.14,66.98,37,1.91.42,3.74.95,5.98,1.24l3.45.45v-15.13c-1.51-.22-4.23-.52-5.57-.82-18.39-4.27-36.1-13.23-52.62-26.65Z"/><path class="cls-1" d="M79.95,32.63c-2.68-2.28-8.71-5.8-13.18-6.14l-2.95-.22v13.91s1.94.6,1.94.6c.42.13.76.23,1.03.35,5.31,2.34,8.52,6.98,8.59,12.42.07,5.33-2.95,9.96-8.07,12.39-.37.17-.89.34-1.45.52l-2.03.66v13.99s2.99-.27,2.99-.27c2.68-.24,7.2-2.3,8.92-3.3,7.72-4.47,12.81-12.53,13.63-21.57.82-9.06-2.61-17.57-9.41-23.34Z"/></g><path class="cls-2" d="M87.65,92.24v15.13s-3.45-.45-3.45-.45c-2.24-.29-4.07-.82-5.98-1.24-22.66-4.87-48.44-19.28-66.98-37-.67-.64-1.34-1.29-1.99-1.94,1.96-4.57,4.91-9.04,8.56-13.32-.18.67.12.82.47,1.31,2.3,2.86,8.12,7.58,10.98,9.9l.19.15c16.52,13.42,34.22,22.38,52.62,26.65,1.34.29,4.05.6,5.57.82Z"/></g></g></svg>