<svg viewBox="0 0 603.9 129" xmlns="http://www.w3.org/2000/svg">
  <g transform="translate(150, 14) scale(0.15)">
    <path fill="#93D4F0" d="M70.8,205.4c29.2-19.9,68.1-24.5,101.3-12c37.9,13.6,66.7,49.3,72.4,89.2c1.6,11.6,3.4,25.3-5.5,34.7
      c-10.3,12.4-31.6,11.1-40.5-2c-7.5-9.5-3.6-22.5-7.7-33.2c-7.3-25.3-32.6-44-59.2-42.8c-25.1,0.2-48.4,18.2-55.7,42.2
      c-5.1-10.3-15.6-18-27.4-18c-9.9-0.4-19.1,4.9-25.5,12.2C29.5,247.3,46.5,221.6,70.8,205.4z M495.5,293.7
      c22.3-24.3,61.4-29.6,89.6-12.6c21.1,12.4,35.3,35.9,35.7,60.4c0.2,19.7,0,39.1,0.2,58.6c0.2,8.9-8.1,16.8-16.8,16.4
      c-6.5,0-13.8-4.5-15-10.9c-0.6-21.3,0-42.8-0.6-64.1c-0.8-19.1-16.8-35.9-35.9-37.5c-17-2-34.7,8.1-41.1,23.9
      c-7.7,16.6-1.8,38.1,13.2,48.6c12,9.1,28.8,9.9,42.2,3.4c4.7,3.2,9.3,6.7,14.2,10.1c-0.2,6.3-0.6,12.8-0.6,19.1
      c-30.8,16.4-72,5.3-91.4-23.3C468.7,358.6,471.8,317.7,495.5,293.7L495.5,293.7z"/>
    <path fill="#93D4F0" d="M21,299c0.2-11.1,8.5-21.7,19.5-24.3c10.7-3,23.1,1.8,28.8,11.6c5.9,9.1,2.8,20.5,6.5,30.4
      c7.1,25.9,33.2,44.8,60.2,43.2c24.7-0.6,47.6-18.2,54.7-42c4.9,10.7,16.2,18.4,28.2,18.2c9.3,0.2,17.8-4.9,24.3-11.4
      c-5.3,20.5-15.4,39.7-30.6,54.7c-26.4,26.1-53.1,52.1-79.9,78c-26.4-26.1-52.9-52.3-79.1-78.6C32.7,358,20.4,328.6,21,299z
      M291.8,282.6c6.9-8.7,22.5-7.3,27.4,2.8c11.4,24.9,22.1,50.3,33.4,75.2c11.1-24.9,22.1-50.3,33.4-75.2c5.7-11.8,24.5-11.1,29.6,0.8
      c4.1,7.1,0.2,15-3.4,21.3c-14.4,32.2-28.8,64.7-43,97.1c-2.2,4.9-5.3,9.7-10.5,11.8c-8.1,3.4-18.2-0.8-21.5-8.9
      c-15.2-34.1-30-68.5-45.6-102.4C287.1,298.4,286.1,288.9,291.8,282.6z M442.4,277.5c7.7-2.8,16.8,0.8,20.5,8.1
      c3,5.3,1.2,11.6,1.4,17.2v95.5c0.2,6.9-2.4,14.4-8.9,17.4c-9.7,5.9-24.1-2-23.9-13.4V292.7C431.4,285.8,436.1,279.8,442.4,277.5z"/>
  </g>
</svg>