<svg width="81" height="37" viewBox="0 0 81 37" fill="none" xmlns="http://www.w3.org/2000/svg">
<g clip-path="url(#clip0)">
<path fill-rule="evenodd" clip-rule="evenodd" d="M51.8502 12.3036C52.0378 11.8851 52.1 11.4211 52.0293 10.9679C51.9586 10.5147 51.7581 10.0917 51.452 9.75019C51.1902 9.46533 50.8624 9.24922 50.4974 9.12089C50.1325 8.99256 49.7416 8.95595 49.3591 9.01428C48.9767 9.0726 48.6145 9.22409 48.3044 9.45538C47.9943 9.68667 47.7458 9.99067 47.5809 10.3406L42.8995 20.9249L38.2596 10.4489C38.2458 10.4069 38.2177 10.3649 38.2047 10.3251L38.177 10.2701C38.0527 10.0192 37.8802 9.79536 37.6692 9.61129C37.4414 9.40256 37.1747 9.24085 36.8842 9.13544C36.5938 9.03004 36.2854 8.983 35.9768 8.99704C35.6681 9.01107 35.3653 9.0859 35.0856 9.21723C34.8059 9.34856 34.5549 9.53381 34.347 9.76235C34.0598 10.0835 33.8647 10.4763 33.7826 10.8992C33.7004 11.3222 33.7342 11.7594 33.8804 12.1647L33.8942 12.2067C33.9215 12.2755 33.9488 12.3439 33.9782 12.3989L40.7459 27.7066C40.9864 28.2168 41.3998 28.6254 41.9129 28.8597C43.0795 29.3813 44.4798 28.8731 45.0153 27.7066L51.8107 12.3448V12.3313L51.8502 12.3036Z" fill="#00A8E2"/>
<path fill-rule="evenodd" clip-rule="evenodd" d="M58.6453 11.3301C58.6312 10.7242 58.3806 10.148 57.9472 9.72452C57.5137 9.30105 56.9318 9.06396 56.3258 9.06396C55.7198 9.06396 55.1379 9.30105 54.7045 9.72452C54.271 10.148 54.0204 10.7242 54.0063 11.3301V26.7305C54.0022 27.0377 54.0591 27.3428 54.1739 27.6279C54.2886 27.913 54.4588 28.1724 54.6747 28.3912C54.8905 28.6099 55.1476 28.7836 55.4312 28.9022C55.7147 29.0207 56.0189 29.0818 56.3262 29.0818C56.6335 29.0818 56.9378 29.0207 57.2213 28.9022C57.5048 28.7836 57.762 28.6099 57.9778 28.3912C58.1936 28.1724 58.3639 27.913 58.4786 27.6279C58.5933 27.3428 58.6503 27.0377 58.6461 26.7305L58.6453 11.3301Z" fill="#00A8E2"/>
<path d="M80.5549 19.0302C80.5549 13.4978 76.0649 9.00903 70.5338 9.00903C65.0026 9.00903 60.5105 13.4978 60.5105 19.0302C60.5105 24.5626 65.0005 29.0518 70.5321 29.0518C72.0443 29.0554 73.5372 28.7124 74.8962 28.0493L75.0196 25.3725L73.1527 24.041L72.9055 23.8488C72.1673 24.2137 71.3543 24.4016 70.5308 24.3977C69.4694 24.3971 68.4319 24.0818 67.5496 23.4917C66.6673 22.9015 65.9798 22.063 65.574 21.0822C65.1682 20.1014 65.0623 19.0223 65.2698 17.9813C65.4772 16.9403 65.9887 15.9841 66.7394 15.2338C67.4902 14.4834 68.4466 13.9725 69.4877 13.7656C70.5288 13.5588 71.6079 13.6652 72.5885 14.0716C73.5691 14.4779 74.4072 15.1659 74.9969 16.0485C75.5865 16.9311 75.9013 17.9687 75.9013 19.0302V26.7304C75.9095 27.3439 76.159 27.9296 76.5958 28.3605C77.0325 28.7915 77.6214 29.0331 78.235 29.0331C78.8486 29.0331 79.4375 28.7915 79.8743 28.3605C80.3111 27.9296 80.5606 27.3439 80.5688 26.7304V19.0302H80.5549Z" fill="#00A8E2"/>
<path d="M29.9678 19.2362C29.5792 19.6252 29.1175 19.9335 28.6093 20.1435C28.1011 20.3534 27.5564 20.4609 27.0066 20.4596C26.4567 20.4583 25.9125 20.3483 25.4053 20.136C24.8981 19.9237 24.4379 19.6131 24.0511 19.2223C23.6896 18.8513 23.3968 18.4191 23.1862 17.9458C22.7919 19.2 22.0995 20.34 21.1682 21.268C17.9698 24.4803 12.7668 24.4803 9.56839 21.268C8.03802 19.7328 7.17479 17.6561 7.16601 15.4885C7.15444 14.548 6.78081 13.6482 6.12282 12.9761C5.62521 12.4779 4.99135 12.1379 4.30101 11.9991C3.61066 11.8602 2.89466 11.9286 2.2431 12.1957C1.59153 12.4627 1.0335 12.9165 0.639226 13.5C0.24495 14.0834 0.032037 14.7705 0.0272759 15.4746H0C0.00718404 19.5365 1.62138 23.4304 4.49004 26.3061C7.57851 29.4084 15.2527 36.9999 15.2527 36.9999C15.2527 36.9999 23.2823 29.2301 26.1929 26.3061C28.2457 24.2465 29.6735 21.6478 30.3111 18.8107C30.2087 18.9618 30.0938 19.1041 29.9678 19.2362V19.2362Z" fill="#00A8E2"/>
<path d="M30.6954 15.2824C30.6657 11.2453 29.0536 7.38096 26.2054 4.51972C20.2047 -1.50657 10.4869 -1.50657 4.5013 4.51972C2.39184 6.63247 0.942329 9.31308 0.329346 12.235C0.452326 12.0548 0.5952 11.889 0.75527 11.7407C1.14212 11.3493 1.6028 11.0385 2.11063 10.8264C2.61845 10.6143 3.16332 10.5051 3.71366 10.5051C4.264 10.5051 4.80886 10.6143 5.31669 10.8264C5.82451 11.0385 6.2852 11.3493 6.67205 11.7407C7.0333 12.1068 7.32619 12.5346 7.5369 13.0038C7.9293 11.7298 8.62627 10.5706 9.56749 9.62661C12.7659 6.41435 17.9689 6.41435 21.1673 9.62661C22.6705 11.1296 23.532 13.1571 23.5705 15.2824V15.6101C23.6103 16.5014 23.9769 17.3469 24.6003 17.9852C25.0872 18.4763 25.7064 18.8152 26.3825 18.9607C27.0585 19.1062 27.7623 19.0521 28.4082 18.8048C29.054 18.5576 29.614 18.128 30.0201 17.5682C30.4262 17.0085 30.6608 16.3427 30.6954 15.6521V15.5014C30.7092 15.4291 30.7092 15.3547 30.6954 15.2824Z" fill="#00A8E2"/>
</g>
<defs>
<clipPath id="clip0">
<rect width="81" height="37" fill="white"/>
</clipPath>
</defs>
</svg>
