<?xml version="1.0" encoding="UTF-8"?>
<svg width="143px" height="33px" viewBox="0 0 143 33" version="1.1" xmlns="http://www.w3.org/2000/svg" xmlns:xlink="http://www.w3.org/1999/xlink">
    <!-- Generator: Sketch 51.2 (57519) - http://www.bohemiancoding.com/sketch -->
    <title>Logo/Wochit</title>
    <desc>Created with Sketch.</desc>
    <defs>
        <polygon id="path-1" points="0.187742577 0.336480723 31.0276754 0.336480723 31.0276754 24.253012 0.187742577 24.253012"></polygon>
        <polygon id="path-3" points="0 32.6024096 142.957541 32.6024096 142.957541 0.205156627 0 0.205156627"></polygon>
    </defs>
    <g id="WochitMobile" stroke="none" stroke-width="1" fill="none" fill-rule="evenodd">
        <g id="Wochit-Home-Mobile" transform="translate(-20.000000, -97.000000)">
            <g id="Top-Menu" transform="translate(20.000000, 97.000000)">
                <g id="Logo/Wochit">
                    <polygon id="Fill-1" fill="#06A9F4" points="27.7566605 9.14771928 23.958949 23.596153 19.1217838 9.14771928 14.8273776 9.14771928 10.0358762 23.596153 6.23816471 9.14771928 -0.00016022409 9.14771928 7.23275574 32.5256349 12.069921 32.5256349 16.9972123 17.8525627 21.9249042 32.5256349 26.7616689 32.5256349 33.9497221 9.14771928"></polygon>
                    <g id="Group-14" stroke-width="1" transform="translate(0.000000, 0.192593)">
                        <g id="Group-4" transform="translate(33.647059, 8.349398)">
                            <mask id="mask-2" fill="white">
                                <use xlink:href="#path-1"></use>
                            </mask>
                            <g id="Clip-3"></g>
                            <path d="M28.3603448,3.2082759 C27.027681,1.80319157 24.8902916,0.550781928 21.8416277,0.361131325 C21.7078406,0.352781928 18.7160563,0.346818072 15.7899639,0.342046988 L18.7893588,2.9733 L15.760723,5.58904699 C18.4540899,5.59103494 21.3152916,5.59342048 21.3673644,5.5966012 C22.3831852,5.6586253 23.1815017,6.01009518 23.7947594,6.61840843 C25.0144653,7.83026386 25.1502552,9.84922771 25.1502552,12.272541 C25.1502552,14.6954566 25.0144653,16.7593482 23.7947594,17.970806 C23.1718882,18.5886614 22.3599527,18.9413241 21.3221011,18.9953964 C21.2287706,19.0005651 10.230188,19.0029506 10.1332524,19.0029506 C8.95800868,19.0029506 8.09920756,18.6439265 7.4210591,17.970806 C6.20015154,16.7593482 6.06436162,14.6954566 6.06436162,12.272541 C6.06436162,9.84922771 6.20015154,7.83026386 7.4210591,6.61840843 C8.09920756,5.94568554 8.95800868,5.58626386 10.1332524,5.58626386 C10.1697034,5.58626386 11.1158266,5.58626386 12.7088546,5.58785422 L15.7354877,2.9733 L12.7316866,0.338866265 C11.2792552,0.337275904 10.2157678,0.336480723 10.1332524,0.336480723 C6.65238403,0.336480723 4.30149608,1.68272169 2.85467255,3.2082759 C0.730501681,5.4069506 0.187742577,8.05410723 0.187742577,12.272541 C0.187742577,16.5351072 0.730501681,19.1826614 2.85467255,21.3809386 C4.30149608,22.9064928 6.65238403,24.2531313 10.1332524,24.2531313 C10.2025493,24.2531313 21.8211992,24.2523361 21.8892944,24.2511434 C25.258807,24.199059 26.9419611,22.8766735 28.3603448,21.3809386 C30.4849162,19.1826614 31.0276754,16.5351072 31.0276754,12.272541 C31.0276754,8.05410723 30.4849162,5.4069506 28.3603448,3.2082759" id="Fill-2" fill="#06A9F4" mask="url(#mask-2)"></path>
                        </g>
                        <path d="M77.729793,32.6024096 C73.0288182,32.6024096 67.1966613,30.0896386 67.1966613,20.6218193 C67.1966613,11.154 73.0288182,8.68615663 77.729793,8.68615663 C80.9847454,8.68615663 83.4261599,9.67337349 85.5054681,11.8271205 L81.5271039,15.775988 C80.3069975,14.4742771 79.2675437,13.9359398 77.729793,13.9359398 C76.3286333,13.9359398 75.2435157,14.4293494 74.3847146,15.461494 C73.4806501,16.583494 73.0740815,18.1539759 73.0740815,20.6218193 C73.0740815,23.0896627 73.4806501,24.7046747 74.3847146,25.8266747 C75.2435157,26.8588193 76.3286333,27.3522289 77.729793,27.3522289 C79.2675437,27.3522289 80.3069975,26.813494 81.5271039,25.5125783 L85.5054681,29.4161205 C83.4261599,31.5702651 80.9847454,32.6024096 77.729793,32.6024096" id="Fill-5" fill="#06A9F4"></path>
                        <path d="M101.525954,32.3329627 L101.525954,18.0638422 C101.525954,14.967806 99.5367723,13.936059 97.6829796,13.936059 C95.8295874,13.936059 93.8860692,15.0127337 93.8860692,18.0638422 L93.8860692,32.3329627 L88.0094501,32.3329627 L88.0094501,0.384986747 L93.8860692,0.384986747 L93.8860692,11.1091916 C95.4682821,9.49378193 97.4574641,8.68587831 99.5367723,8.68587831 C104.68998,8.68587831 107.402573,12.2761193 107.402573,17.211806 L107.402573,32.3329627 L101.525954,32.3329627 Z" id="Fill-7" fill="#06A9F4"></path>
                        <mask id="mask-4" fill="white">
                            <use xlink:href="#path-3"></use>
                        </mask>
                        <g id="Clip-10"></g>
                        <path d="M110.004653,32.3328434 L115.881272,32.3328434 L115.881272,8.95492771 L110.004653,8.95492771 L110.004653,32.3328434 Z M109.914527,4.96153012 L115.926535,4.96153012 L115.926535,0.205156627 L109.914527,0.205156627 L109.914527,4.96153012 Z" id="Fill-9" fill="#06A9F4" mask="url(#mask-4)"></path>
                        <path d="M127.70593,32.3329627 C122.913627,32.3329627 120.879582,28.9677578 120.879582,25.6474807 L120.879582,14.0704446 L118.393305,14.0704446 L118.393305,8.94669759 L120.879582,8.94669759 L120.879582,0.204878313 L126.756201,0.204878313 L126.756201,8.94669759 L130.915218,8.94669759 L130.915218,14.0704446 L126.756201,14.0704446 L126.756201,25.288059 C126.756201,26.6346976 127.389087,27.3972759 128.791047,27.3972759 L130.915218,27.3972759 L130.915218,32.3329627 L127.70593,32.3329627 Z" id="Fill-11" fill="#06A9F4" mask="url(#mask-4)"></path>
                        <polygon id="Fill-12" fill="#06A9F4" mask="url(#mask-4)" points="137.1942 0.20499759 137.1942 0.849093976 135.700511 0.849093976 135.700511 4.96137108 134.925026 4.96137108 134.925026 0.849093976 133.427332 0.849093976 133.427332 0.20499759"></polygon>
                        <path d="M140.335313,3.29506988 C140.366557,3.36186506 140.394196,3.43104578 140.41903,3.50141928 C140.445067,3.43104578 140.473907,3.36106988 140.503548,3.29149157 C140.53359,3.22231084 140.565235,3.15551566 140.598481,3.0919012 L142.112599,0.333816867 C142.143843,0.271792771 142.17789,0.235214458 142.215543,0.223286747 C142.253196,0.210961446 142.30647,0.20499759 142.375366,0.20499759 L142.957781,0.20499759 L142.957781,4.96137108 L142.272422,4.96137108 L142.272422,1.70113012 C142.272422,1.6482506 142.274025,1.59139518 142.27763,1.52937108 C142.280434,1.46814217 142.284439,1.40532289 142.288845,1.34131084 L140.751495,4.16181687 C140.691812,4.27910602 140.599683,4.33715422 140.475509,4.33715422 L140.365355,4.33715422 C140.239179,4.33715422 140.146649,4.27910602 140.089369,4.16181687 L138.521977,1.33137108 C138.528386,1.39737108 138.534394,1.46178072 138.538801,1.5246 C138.542806,1.58741928 138.54521,1.64626265 138.54521,1.70113012 L138.54521,4.96137108 L137.859851,4.96137108 L137.859851,0.20499759 L138.441865,0.20499759 C138.510761,0.20499759 138.564036,0.210961446 138.602089,0.223286747 C138.639742,0.235214458 138.673789,0.271792771 138.705033,0.333816867 L140.242784,3.09826265 C140.273627,3.16267229 140.304871,3.22787711 140.335313,3.29506988" id="Fill-13" fill="#06A9F4" mask="url(#mask-4)"></path>
                    </g>
                </g>
            </g>
        </g>
    </g>
</svg>